<?xml version="1.0" standalone="no"?>
<!DOCTYPE svg PUBLIC "-//W3C//DTD SVG 20010904//EN"
 "http://www.w3.org/TR/2001/REC-SVG-20010904/DTD/svg10.dtd">
<svg version="1.0" xmlns="http://www.w3.org/2000/svg"
 width="720.000000pt" height="761.000000pt" viewBox="0 0 720.000000 761.000000"
 preserveAspectRatio="xMidYMid meet">
<metadata>
Created by potrace 1.16, written by Peter Selinger 2001-2019
</metadata>
<g transform="translate(0.000000,761.000000) scale(0.100000,-0.100000)"
fill="#000000" stroke="none">
<path d="M0 5010 l0 -2600 38 -20 c25 -14 29 -19 12 -14 -14 4 -31 11 -37 16
-10 8 -13 -104 -13 -555 l0 -566 47 -4 48 -3 -47 -2 -48 -2 0 -365 c0 -287 3
-364 12 -363 7 2 13 -4 13 -12 0 -8 -6 -14 -13 -12 -8 1 -12 -12 -12 -40 0
-41 0 -41 20 -23 22 20 36 15 27 -10 -4 -8 -16 -15 -27 -15 -19 0 -20 -6 -20
-210 l0 -210 2348 1 c1291 0 2340 3 2332 6 -46 17 -351 173 -360 184 -3 3 -35
17 -72 30 -38 13 -68 28 -68 32 0 11 29 1 126 -44 46 -22 86 -39 89 -39 4 0 4
10 0 23 -5 19 -4 20 5 4 6 -9 9 -21 6 -25 -5 -9 72 -52 91 -52 6 0 16 -7 23
-15 20 -24 127 -16 113 9 -3 6 0 6 8 -1 7 -7 26 -13 41 -13 24 0 27 2 16 14
-7 7 -18 12 -24 9 -6 -2 -18 3 -27 11 -11 12 -16 13 -19 4 -3 -9 -12 -8 -31 5
-19 13 -27 14 -27 5 0 -9 -3 -9 -9 1 -7 11 -13 12 -23 3 -11 -9 -17 -7 -28 8
-17 23 -35 27 -27 5 5 -12 2 -12 -20 -2 -23 10 -24 12 -7 16 10 2 24 7 30 12
6 5 15 1 23 -10 11 -15 17 -16 37 -7 13 6 24 14 24 19 0 11 -14 8 -29 -6 -11
-10 -13 -8 -9 9 3 12 2 28 -3 35 -6 10 -9 7 -9 -11 0 -19 -3 -22 -9 -11 -8 12
-12 12 -25 2 -19 -16 -21 -1 -3 19 6 7 -4 3 -24 -8 -43 -26 -45 -26 -53 -7
-10 27 66 51 93 31 11 -9 13 -7 9 4 -2 8 -11 16 -19 16 -8 1 -20 2 -27 3 -9 1
-11 8 -7 22 5 15 4 19 -4 15 -6 -4 -11 -16 -11 -26 0 -37 -82 -56 -95 -23 -5
15 -4 16 6 5 7 -6 22 -12 34 -11 20 0 20 0 0 9 l-20 9 20 1 c11 2 24 2 28 1 5
-1 6 2 3 7 -7 12 33 54 45 46 5 -3 16 0 24 6 18 15 20 34 3 24 -8 -5 -9 -2 -5
9 4 10 2 17 -4 17 -7 0 -9 -11 -7 -25 3 -13 1 -22 -3 -19 -5 3 -9 12 -9 20 0
8 -13 20 -30 25 -44 16 -37 57 9 55 13 0 28 7 34 16 15 24 1 35 -20 16 -10 -9
-24 -13 -31 -11 -8 3 -16 -4 -19 -15 -5 -21 -33 -39 -33 -22 0 6 -4 10 -9 10
-5 0 -7 -9 -4 -21 3 -12 11 -18 19 -15 8 3 14 0 14 -7 0 -23 -38 -17 -44 6
-10 38 -7 47 18 47 13 0 26 7 30 15 3 8 16 15 30 15 14 0 28 5 31 10 3 6 -1
10 -10 10 -9 0 -14 4 -11 9 8 12 46 2 46 -13 0 -6 5 -4 10 4 7 12 12 12 22 2
9 -9 9 -12 -5 -12 -10 0 -17 -8 -17 -20 0 -14 6 -20 23 -19 12 0 16 3 9 6 -22
9 -13 19 16 17 42 -2 44 -3 36 -16 -5 -8 0 -9 14 -6 12 4 22 2 22 -4 0 -6 7
-8 15 -4 8 3 15 1 15 -4 0 -6 6 -9 12 -8 7 2 12 -5 10 -14 -3 -21 27 -25 46
-6 6 6 14 9 18 6 3 -4 -4 -16 -15 -27 l-21 -21 21 0 c11 0 18 4 14 9 -6 11 34
9 52 -2 6 -4 18 -4 27 -1 12 4 16 0 16 -16 0 -18 4 -21 23 -16 12 3 36 6 52 7
27 1 25 3 -24 25 -30 14 -60 23 -68 20 -8 -3 -12 -2 -8 3 6 10 -143 71 -174
71 -11 0 -23 5 -26 10 -4 7 32 9 109 7 64 -2 116 0 116 5 0 4 0 11 -1 16 0 4
10 10 23 14 20 5 19 6 -9 7 -17 1 -34 5 -38 10 -3 5 -21 7 -40 4 -22 -4 -35
-2 -35 5 0 6 -12 11 -27 11 -99 0 -126 1 -134 7 -6 3 -33 7 -62 8 -47 2 -134
32 -124 43 3 2 23 -3 46 -10 31 -11 41 -12 41 -3 0 9 15 11 48 9 26 -2 92 -5
147 -7 55 -2 116 -7 135 -11 19 -4 78 -9 130 -11 52 -3 106 -6 120 -8 14 -2
41 -4 60 -5 33 -3 33 -4 10 -11 -14 -4 -18 -9 -10 -10 11 -1 9 -4 -5 -10 l-20
-9 20 -1 c11 -1 27 -2 37 -1 9 1 19 -2 22 -7 3 -6 0 -9 -7 -8 -6 0 -12 -3 -12
-9 0 -5 6 -9 13 -9 20 3 14 -14 -8 -21 -11 -3 -20 -11 -20 -17 0 -6 -3 -8 -6
-5 -4 4 -1 13 6 22 7 8 9 15 4 15 -18 0 -31 -16 -38 -42 -3 -16 -11 -28 -16
-28 -6 0 -6 10 0 26 10 26 6 44 -9 44 -5 0 -6 -10 -4 -23 5 -29 -13 -58 -26
-39 -7 11 -9 11 -14 -2 -7 -17 -37 -22 -37 -6 0 6 7 10 15 10 8 0 15 5 15 10
0 23 -33 5 -43 -24 -5 -13 -11 -15 -20 -8 -8 6 -20 6 -37 -1 l-25 -11 30 -4
c17 -2 35 -8 42 -14 7 -5 25 -7 40 -4 15 3 123 7 238 9 116 1 193 1 173 -1
-21 -2 -38 -6 -38 -10 0 -4 -37 -7 -82 -6 -82 1 -82 0 -10 -3 40 -2 72 -8 72
-14 0 -6 8 -8 19 -4 21 6 49 -19 31 -30 -5 -3 -10 1 -10 9 0 10 -6 13 -15 10
-8 -4 -13 -10 -10 -14 3 -5 1 -12 -5 -15 -6 -4 -10 -3 -9 2 5 26 -3 33 -28 27
-22 -4 -25 -3 -13 5 8 6 11 11 5 11 -13 0 -43 -20 -30 -20 6 0 3 -4 -5 -10 -8
-5 -11 -12 -7 -16 3 -4 14 -1 23 7 15 12 16 12 10 -7 -6 -18 -3 -21 19 -18 17
1 25 -2 22 -9 -4 -14 -47 -17 -64 -5 -7 5 -14 4 -18 -2 -10 -16 -1 -22 37 -25
58 -5 63 -7 38 -14 -21 -6 -15 -9 38 -21 34 -8 62 -17 62 -22 0 -4 17 -10 38
-14 20 -4 39 -10 42 -13 10 -12 61 -31 88 -32 16 -1 20 -3 10 -6 -11 -3 -15
-11 -12 -21 4 -11 3 -13 -3 -5 -12 16 -102 46 -119 39 -8 -3 -14 0 -14 7 0 7
-28 22 -63 34 -34 12 -145 54 -245 92 -171 66 -227 80 -266 65 -14 -5 -14 -8
0 -21 8 -9 18 -12 22 -9 3 4 0 11 -8 16 -12 8 -11 10 7 10 12 0 24 -6 27 -12
5 -10 7 -10 12 0 3 6 10 9 16 6 6 -4 1 -13 -13 -21 -23 -14 -23 -14 14 -9 21
3 60 -2 90 -11 28 -9 57 -17 62 -17 6 -1 45 -14 87 -30 70 -26 76 -30 67 -48
-6 -10 -8 -29 -6 -41 3 -18 5 -16 6 7 1 25 4 27 27 22 17 -5 23 -3 19 4 -8 13
1 13 26 0 10 -6 19 -17 19 -25 0 -11 10 -14 40 -11 22 2 40 1 40 -4 0 -10 -26
-20 -51 -20 -10 0 -19 -4 -19 -10 0 -5 -4 -10 -10 -10 -5 0 -6 7 -3 17 4 11 3
14 -5 9 -6 -3 -29 -9 -52 -11 -22 -3 -59 -7 -81 -10 -23 -2 -45 -7 -48 -10
-10 -10 19 -22 43 -18 13 3 30 -2 39 -12 21 -20 22 -39 2 -32 -8 4 -17 2 -21
-4 -4 -6 -11 -6 -20 2 -8 7 -14 7 -14 1 0 -5 6 -12 14 -15 27 -11 628 -8 621
3 -4 7 2 7 20 0 17 -6 270 -10 681 -10 l654 0 -1 938 c0 515 -4 928 -8 917 -7
-16 -9 -13 -13 19 -3 25 0 40 9 43 11 4 13 520 13 2849 l0 2844 -3600 0 -3600
0 0 -2600z m2789 -1207 c-4 -570 -7 -644 -27 -651 -11 -3 -13 28 -10 167 2 94
0 171 -4 171 -4 0 -22 -8 -40 -18 -18 -10 -69 -38 -113 -62 -44 -23 -95 -51
-112 -62 l-33 -20 0 -168 0 -169 35 15 c19 7 36 14 38 14 3 0 3 -28 2 -62 -2
-35 -3 -75 -4 -89 -1 -19 -9 -29 -36 -39 l-35 -14 -2 -123 c-4 -222 -4 -218
11 -218 8 0 16 -6 19 -13 3 -9 -4 -11 -25 -7 -15 3 -22 2 -15 -1 6 -3 12 -15
12 -27 0 -18 -2 -19 -10 -7 -8 13 -10 12 -10 -3 0 -12 6 -17 18 -15 10 2 16
11 14 21 -2 9 2 17 8 17 5 0 10 -15 10 -34 0 -34 0 -35 -37 -29 -47 7 -49 9
-33 28 10 12 10 15 -1 16 -10 0 -11 2 -1 6 6 2 12 9 12 14 0 4 -6 6 -14 3 -8
-3 -17 -1 -21 5 -3 6 -1 11 4 11 6 0 14 0 19 0 8 0 20 331 12 342 -3 3 -45 -7
-95 -23 -49 -16 -97 -29 -107 -29 -9 0 -20 -5 -23 -10 -4 -6 -12 -10 -18 -9
-12 2 -25 -2 -77 -23 -17 -6 -22 -6 -15 1 6 5 33 19 60 30 45 18 47 20 20 21
-23 0 -27 3 -15 10 12 8 13 12 1 19 -10 6 -11 13 -2 29 15 28 14 32 -6 25 -16
-6 -16 -4 1 15 11 12 27 22 36 22 10 0 23 7 30 15 10 13 15 13 21 3 5 -7 8 2
7 22 -1 34 4 71 17 130 3 16 13 31 21 34 9 3 12 1 9 -4 -3 -6 -1 -10 6 -10 7
0 4 -7 -7 -15 -17 -13 -17 -14 -1 -15 13 0 17 -8 17 -36 0 -19 -5 -44 -10 -55
-15 -27 12 -24 80 9 l55 27 2 163 c1 89 0 162 -1 162 -15 0 -245 -140 -237
-144 5 -4 8 -33 5 -69 -3 -34 -6 -94 -7 -134 -1 -39 -5 -66 -8 -61 -4 6 -12 7
-18 4 -8 -5 -11 13 -11 58 0 40 4 66 12 68 11 4 25 88 14 88 -3 0 -16 -4 -30
-10 -14 -5 -26 -6 -26 -1 0 5 14 14 30 20 17 5 30 17 30 26 0 9 -3 15 -7 13
-58 -25 -144 -71 -148 -78 -15 -25 -25 -5 -25 53 l0 62 60 38 c33 20 63 37 67
37 4 0 17 10 30 22 16 15 23 33 23 60 0 21 -4 38 -10 38 -12 0 -13 27 -1 32 9
3 21 178 12 178 -6 0 -57 -40 -140 -108 l-41 -34 0 83 c0 66 3 84 18 95 23 18
35 17 28 -2 -3 -9 -2 -12 5 -9 6 4 8 13 6 19 -3 7 -1 19 4 27 6 9 9 0 10 -31
1 -25 1 -49 0 -54 -1 -5 5 -4 13 3 9 7 23 10 32 7 20 -8 41 4 25 14 -8 5 -7
15 4 36 8 16 15 35 15 42 0 7 5 10 10 7 6 -4 8 -11 5 -16 -3 -5 1 -6 10 -3 8
4 18 18 21 33 3 14 7 31 9 36 1 6 -2 18 -7 28 -7 14 -4 17 14 17 18 0 20 2 9
9 -12 8 -13 12 -1 26 7 9 19 14 27 11 8 -3 11 -1 8 4 -7 11 30 49 131 135 32
28 65 57 74 65 8 8 60 55 115 104 55 49 120 109 144 133 25 23 49 43 54 43 5
0 8 -217 6 -527z m1509 140 c24 -10 32 -20 32 -39 0 -14 -4 -23 -9 -20 -5 4
-4 -5 2 -19 9 -18 20 -25 40 -25 25 0 27 3 27 45 0 33 4 45 15 45 19 0 21 -76
3 -83 -7 -3 6 -6 30 -6 36 -1 42 -4 43 -23 l2 -23 4 22 c3 14 9 20 19 16 21
-8 21 -223 -1 -223 -12 0 -15 15 -16 68 -1 37 -3 59 -6 50 -4 -15 -14 -17 -84
-12 -55 4 -79 2 -79 -6 0 -7 8 -9 20 -5 14 4 20 2 20 -8 0 -9 -10 -14 -28 -13
-26 1 -29 4 -26 33 1 18 5 37 9 43 3 5 -1 10 -9 10 -12 0 -16 -10 -16 -40 0
-31 -3 -38 -15 -34 -9 4 -25 -4 -40 -20 l-24 -26 22 -5 c12 -2 40 -6 62 -8 22
-2 7 -4 -32 -5 l-73 -2 0 158 c0 87 3 162 7 165 10 11 65 6 101 -10z m-3607
-209 c12 -3 16 -22 16 -95 l1 -91 -115 7 c-64 4 -123 8 -132 10 -12 1 -16 14
-16 56 l0 54 45 -2 45 -2 -39 10 c-50 12 -49 11 -36 43 l10 28 103 -7 c56 -4
109 -9 118 -11z m1218 -62 c61 -7 65 -9 73 -37 10 -39 -2 -425 -14 -425 -5 0
-7 4 -3 9 3 6 -4 9 -15 8 -11 -1 -20 -4 -20 -8 0 -4 -14 -2 -30 4 -25 10 -33
9 -40 -3 -5 -8 -12 -11 -16 -8 -10 11 22 38 45 38 11 0 23 5 26 10 4 6 -6 10
-24 10 -19 0 -35 8 -45 21 -13 19 -17 20 -29 8 -18 -18 -29 -76 -17 -84 6 -4
8 -11 5 -16 -4 -5 15 -10 42 -11 36 -1 28 -3 -32 -8 -44 -4 -95 -5 -113 -2
l-32 5 2 246 3 246 30 6 c29 7 75 5 204 -9z m2869 -238 c12 -8 22 -19 22 -25
0 -22 40 -51 79 -56 35 -5 46 -2 67 18 15 13 30 33 34 44 9 22 84 50 103 38 6
-4 21 -8 33 -9 12 -1 37 -18 56 -37 19 -19 46 -38 58 -42 23 -7 23 -8 4 -22
-10 -8 -18 -20 -16 -28 3 -15 -48 -55 -72 -55 -9 0 -16 -4 -16 -9 0 -5 -14
-17 -32 -25 -27 -14 -34 -14 -47 -2 -9 8 -34 14 -57 14 l-41 1 8 -52 c4 -29
10 -356 13 -727 3 -371 6 -677 7 -680 3 -13 -3 -76 -9 -81 -4 -3 -23 -2 -42 2
l-35 6 34 2 34 1 -7 353 c-3 193 -11 471 -17 617 -11 285 -15 516 -8 540 3 11
-5 16 -26 18 -16 1 -40 8 -52 14 -18 9 -26 6 -49 -17 -28 -28 -81 -55 -110
-55 -9 0 -30 10 -47 23 -34 24 -77 30 -90 13 -5 -7 -7 -2 -4 12 3 12 1 22 -4
22 -5 0 -10 -6 -10 -12 -1 -7 -3 -20 -4 -28 -1 -8 -3 -21 -4 -28 0 -7 -6 -10
-11 -7 -6 4 -8 11 -5 16 4 5 -3 9 -14 9 -15 0 -19 -5 -14 -16 4 -12 1 -15 -12
-13 -11 3 -19 14 -20 26 -2 30 -15 42 -15 15 0 -12 -4 -22 -10 -22 -5 0 -10 7
-10 15 0 10 -10 15 -31 15 -28 0 -31 2 -25 25 5 21 3 25 -16 26 -17 0 -19 2
-8 7 13 6 19 28 21 85 0 13 9 17 35 17 20 0 34 -5 34 -12 0 -7 3 -23 6 -35 5
-19 2 -23 -15 -23 -11 0 -21 -4 -21 -9 0 -4 11 -6 24 -4 21 4 23 2 18 -23 l-5
-27 22 22 c11 11 30 21 41 21 11 0 20 4 20 9 0 6 -12 6 -29 1 -34 -10 -39 -3
-33 46 4 32 6 34 43 34 26 0 46 7 59 20 11 11 28 20 38 20 9 0 28 9 41 19 28
21 101 18 139 -5z m-2822 -347 c-3 -16 -2 -35 3 -41 8 -10 16 -97 13 -138 -1
-12 -10 -18 -27 -18 -14 0 -25 -4 -25 -8 0 -7 -62 -42 -74 -42 -2 0 -13 9 -25
19 l-22 19 46 0 c26 0 49 3 53 6 3 3 -6 6 -20 6 -20 0 -29 7 -38 33 -19 47
-18 129 0 144 22 18 30 16 30 -7 0 -14 6 -20 23 -19 12 0 17 3 10 5 -7 3 -2
14 13 29 13 13 24 31 24 40 0 9 5 13 11 9 6 -4 9 -19 5 -37z m820 -19 c-3 -35
-8 -84 -12 -110 -5 -40 -3 -48 10 -48 13 0 15 -10 11 -62 -4 -61 -5 -567 -2
-753 2 -119 -11 -236 -29 -255 -12 -12 -14 3 -14 118 l0 132 -59 0 c-50 0 -61
-3 -66 -19 -9 -30 -104 -119 -147 -138 -24 -11 -38 -24 -38 -35 0 -10 -5 -18
-11 -18 -8 0 -9 58 -4 210 l7 210 -31 -6 c-20 -4 -31 -3 -31 5 0 6 9 11 19 11
11 0 23 5 27 12 4 7 3 8 -4 4 -8 -5 -10 -2 -6 8 3 9 15 17 25 18 10 0 25 1 32
2 6 1 11 -5 9 -12 -1 -6 2 -12 8 -12 5 0 10 -4 10 -10 0 -14 -33 -13 -48 2
-14 14 -16 0 -3 -21 8 -12 27 -12 127 -2 64 7 123 15 129 18 7 2 17 30 23 61
l9 57 2 -62 c0 -35 5 -63 9 -63 18 0 44 28 39 41 -4 10 -6 9 -6 -3 -1 -10 -5
-18 -10 -18 -6 0 -7 115 -4 294 l6 295 -39 -14 c-51 -18 -80 -19 -67 -2 5 6 9
43 8 80 0 60 2 67 18 63 9 -2 17 0 17 4 0 5 -10 10 -22 12 -19 3 -11 10 37 35
33 17 64 31 68 32 5 0 6 -27 3 -61z m1458 -214 c12 -4 16 -20 16 -56 l0 -51
49 5 50 5 4 -36 c2 -20 4 -7 4 29 0 36 -2 55 -4 42 -3 -16 -9 -22 -20 -18 -8
3 -27 6 -42 6 -25 0 -28 4 -29 38 l-2 37 135 -3 135 -3 2 -47 1 -47 7 50 c4
28 8 48 9 45 1 -3 5 -86 8 -185 4 -151 3 -178 -8 -169 -8 6 -30 10 -49 8 -44
-4 -190 7 -172 13 7 3 12 21 12 43 0 36 -1 38 -40 44 -26 4 -40 11 -40 21 0 8
7 15 15 15 8 0 15 7 15 15 0 8 7 15 15 15 23 0 37 43 16 51 -9 4 -22 2 -28 -3
-10 -8 -13 -5 -14 8 0 11 -3 14 -6 6 -2 -6 -9 -10 -14 -6 -5 3 -10 -5 -10 -18
-1 -19 -3 -18 -9 7 -8 30 -8 30 -9 -8 0 -21 3 -36 8 -32 6 3 10 -30 10 -80 0
-50 -4 -83 -9 -80 -5 3 -7 11 -5 18 2 7 0 28 -4 47 -9 34 -9 33 -10 -17 -1
-29 -5 -53 -9 -53 -10 0 -25 327 -16 341 6 11 16 11 38 3z m-1324 -29 c10 -12
9 -15 -5 -15 -13 0 -15 -4 -9 -17 13 -27 10 -129 -5 -147 -18 -21 -25 -76 -10
-76 7 0 9 10 7 25 -4 19 -1 25 12 25 11 0 20 13 26 38 l9 37 19 -59 c18 -56
19 -83 13 -380 -4 -177 -7 -347 -7 -378 l0 -58 -36 0 c-20 0 -33 4 -29 10 3 5
-7 12 -22 15 -64 14 -75 23 -71 60 2 18 0 31 -4 29 -13 -9 -9 17 6 31 10 10
16 11 24 3 8 -8 14 -4 21 14 5 14 21 34 35 45 14 11 22 23 19 27 -12 11 -23 6
-23 -11 -1 -16 -2 -16 -15 1 -9 12 -13 34 -10 63 4 40 3 43 -20 43 -17 0 -25
-6 -25 -17 0 -9 -3 -13 -6 -10 -4 4 -8 38 -9 76 -2 55 1 68 12 64 9 -4 13 4
13 27 0 23 5 33 20 37 18 5 19 12 14 96 -6 103 -8 109 -31 100 -11 -4 -14 -3
-9 6 6 9 27 10 78 5 58 -6 70 -4 66 7 -3 8 -16 14 -29 15 -92 3 -90 2 -77 29
10 21 9 29 -5 43 -16 15 -17 15 -17 -2 0 -10 -6 -16 -12 -14 -9 3 -14 33 -16
93 l-3 88 29 -6 c32 -6 58 5 48 22 -8 12 0 31 13 31 5 0 14 -7 21 -15z m-960
-151 c0 -21 4 -33 10 -29 6 4 9 -37 8 -117 -1 -68 -3 -103 -5 -80 -4 42 -5 44
-31 37 -15 -4 -29 -10 -32 -14 -11 -16 -170 -101 -189 -101 -29 0 -35 18 -9
23 17 3 14 5 -9 6 -32 1 -33 3 -33 41 l0 40 93 2 92 2 -92 3 -93 4 0 38 c0 53
19 57 85 21 62 -35 75 -37 73 -12 -1 9 0 40 0 69 l2 52 55 16 c30 9 55 21 55
26 0 5 5 9 10 9 6 0 10 -16 10 -36z m-1717 -106 c15 -7 30 -22 33 -33 4 -11
12 -27 19 -35 32 -36 -44 -115 -109 -114 -33 1 -70 15 -83 33 -29 38 -4 121
37 121 11 0 24 9 30 20 12 23 35 25 73 8z m4341 -660 c-9 -20 -9 -28 -2 -28 6
0 8 -3 5 -6 -4 -4 -13 -1 -22 6 -10 8 -15 9 -15 1 0 -6 -7 -11 -16 -11 -22 0
-13 32 9 36 24 3 23 1 16 54 -4 27 -7 34 -7 18 -2 -24 -6 -27 -41 -26 -57 1
-63 -7 -46 -48 l15 -35 -128 3 -127 3 -7 60 c-6 48 -5 62 8 75 8 8 14 11 13 5
-1 -5 -1 -22 0 -37 1 -27 2 -28 61 -28 60 0 60 0 60 30 0 25 -4 30 -32 35 -18
3 -42 4 -53 2 -12 -1 -19 3 -17 11 1 7 -8 12 -22 12 -24 0 -24 0 -25 125 l-2
125 76 0 75 0 0 -39 c0 -33 -4 -40 -22 -44 -13 -2 7 -5 44 -6 l67 -1 4 -57 3
-58 2 63 2 62 -45 0 -45 0 0 40 0 40 90 0 90 0 0 -40 c0 -37 -2 -40 -27 -41
-28 -2 -28 -2 -3 -6 14 -3 28 -10 32 -17 4 -6 9 16 10 49 1 44 4 32 8 -45 l6
-105 4 125 c4 121 4 118 10 -75 5 -148 3 -207 -6 -227z m-2632 372 c0 -16 4
-30 9 -30 5 0 9 -29 9 -65 0 -37 -4 -65 -10 -65 -5 0 -10 12 -11 28 l-1 27 -8
-25 c-7 -21 -8 -22 -9 -5 -1 19 -3 18 -21 -5 -22 -28 -26 -51 -8 -47 6 1 14
-6 16 -15 3 -15 -4 -18 -47 -18 -41 0 -51 3 -52 18 -1 15 -2 15 -6 0 -3 -13
-19 -17 -79 -20 l-74 -3 0 55 c0 49 3 56 26 67 21 10 31 8 62 -9 20 -12 45
-28 55 -36 16 -14 17 -11 17 56 l0 70 52 25 c38 18 55 22 60 14 5 -8 8 -5 8 7
0 11 3 16 7 13 3 -4 6 -20 5 -37z m218 -100 c0 -77 -2 -90 -17 -90 -9 0 -28
-13 -42 -28 -37 -41 -80 -67 -92 -55 -12 12 0 209 15 227 6 8 30 17 54 21 38
6 42 5 42 -14 0 -11 5 -23 10 -26 6 -4 10 7 10 24 0 17 5 31 10 31 6 0 10 -37
10 -90z m4280 -178 c0 -4 -9 -13 -20 -20 -29 -18 -16 -32 31 -32 32 0 39 3 39
20 0 11 4 20 9 20 4 0 6 -11 3 -25 -4 -21 -1 -25 21 -25 14 0 32 -3 41 -6 20
-8 22 26 4 45 -11 10 -10 11 4 6 9 -4 18 -15 21 -26 5 -18 13 -19 111 -17 74
2 109 -1 117 -9 10 -11 0 -13 -53 -13 -65 0 -95 -13 -67 -31 11 -6 10 -9 -3
-14 -10 -4 -25 2 -37 14 -12 12 -27 21 -34 21 -18 0 -37 -21 -37 -40 0 -13
-11 -15 -67 -12 -63 4 -70 7 -100 40 -37 40 -41 66 -16 94 17 19 33 24 33 10z
m-6190 -434 l-35 -11 35 -13 35 -12 -32 -1 c-28 -1 -33 -5 -33 -26 0 -20 5
-25 28 -25 25 -1 24 -2 -11 -15 -54 -19 -56 -25 -11 -25 29 0 35 -3 24 -10 -8
-5 -23 -7 -32 -4 -12 3 -18 0 -18 -10 0 -9 9 -16 20 -16 27 0 25 -18 -2 -23
-23 -4 -23 -4 2 -15 l25 -11 -27 0 c-22 -1 -26 -5 -21 -18 4 -10 11 -21 17
-25 6 -4 1 -8 -11 -8 -16 0 -23 -6 -23 -20 0 -26 11 -25 46 2 15 13 25 17 20
10 -4 -7 -1 -12 8 -12 28 0 17 -17 -14 -23 -34 -7 -41 -27 -10 -27 23 0 27
-28 5 -36 -8 -3 -21 1 -30 10 -9 8 -22 13 -30 10 -8 -4 -15 -1 -15 4 0 6 8 13
18 15 12 3 10 5 -7 6 -21 1 -23 -2 -17 -29 4 -22 2 -30 -8 -30 -8 0 -13 -6
-12 -12 0 -7 -3 -13 -9 -13 -5 0 -9 7 -8 15 6 34 11 76 12 93 0 10 11 22 24
27 17 7 18 9 5 9 -13 1 -18 9 -18 30 0 17 5 33 10 36 17 11 11 25 -12 26 l-23
2 23 4 c12 2 22 8 22 13 0 5 3 15 6 24 5 13 -2 16 -45 16 -28 0 -51 4 -51 9 0
22 85 30 93 9 2 -7 8 5 12 27 14 78 17 81 85 83 20 0 18 -2 -10 -10z"/>
<path d="M2715 4034 c-16 -15 -42 -37 -57 -50 -15 -13 -30 -24 -33 -24 -3 0
-34 -22 -69 -50 -35 -27 -67 -50 -71 -50 -3 0 -3 10 0 21 5 15 4 19 -5 14 -6
-4 -9 -17 -6 -30 3 -13 1 -25 -5 -27 -14 -5 -25 -338 -10 -338 6 0 30 14 53
30 65 46 148 100 153 100 12 0 90 63 95 75 8 21 0 355 -8 355 -4 0 -20 -12
-37 -26z"/>
<path d="M2399 3792 c-14 -15 -34 -34 -45 -42 -10 -8 -39 -31 -64 -50 -96 -74
-89 -58 -91 -220 0 -80 1 -145 5 -145 3 0 15 8 26 18 11 9 24 17 28 17 5 0 41
23 81 50 40 28 77 50 82 50 5 0 9 75 9 175 0 96 -1 175 -2 174 -2 0 -15 -12
-29 -27z"/>
<path d="M4471 2768 c0 -27 -6 -48 -11 -48 -6 0 -8 10 -4 24 5 22 3 23 -40 23
l-46 0 0 -56 c0 -40 -3 -52 -10 -41 -7 10 -10 -7 -10 -57 0 -45 4 -73 11 -73
5 0 7 -4 4 -10 -3 -5 -1 -10 4 -10 7 0 11 35 11 95 0 52 2 95 5 95 12 0 43
-34 39 -42 -3 -5 -10 -6 -15 -3 -5 4 -9 1 -9 -4 0 -6 5 -11 10 -11 14 0 12
-28 -2 -33 -7 -2 1 -2 17 0 17 3 37 5 46 5 12 0 15 9 13 44 -2 42 8 59 19 32
3 -7 6 -4 6 7 1 11 4 30 7 43 5 17 2 22 -14 22 -13 0 -22 8 -25 23 -2 12 -5 1
-6 -25z"/>
</g>
</svg>
