<?xml version="1.0" standalone="no"?>
<!DOCTYPE svg PUBLIC "-//W3C//DTD SVG 20010904//EN"
 "http://www.w3.org/TR/2001/REC-SVG-20010904/DTD/svg10.dtd">
<svg version="1.0" xmlns="http://www.w3.org/2000/svg"
 width="720.000000pt" height="649.000000pt" viewBox="0 0 720.000000 649.000000"
 preserveAspectRatio="xMidYMid meet">
<metadata>
Created by potrace 1.16, written by Peter Selinger 2001-2019
</metadata>
<g transform="translate(0.000000,649.000000) scale(0.100000,-0.100000)"
fill="#000000" stroke="none">
<path d="M2474 6192 c-16 -10 -28 -52 -15 -52 6 0 11 5 11 11 0 5 5 7 10 4 15
-9 12 -45 -4 -45 -9 0 -12 -11 -10 -35 2 -34 -16 -49 -31 -25 -3 6 -17 10 -30
10 -13 0 -27 5 -31 12 -5 8 -10 7 -18 -3 -26 -32 -50 -37 -77 -17 l-26 20 -26
-25 c-26 -27 -67 -27 -67 -1 0 16 -28 18 -65 4 -23 -9 -28 -7 -32 11 -4 13
-12 19 -23 16 -9 -2 -26 1 -36 7 -10 6 -29 11 -42 11 -17 1 -21 -3 -16 -17 7
-23 -12 -23 -26 0 -9 15 -10 14 -9 -8 2 -39 -12 -70 -30 -70 -9 0 -23 -6 -30
-12 -10 -11 -11 -4 -7 32 3 25 3 36 0 25 -4 -11 -14 -28 -23 -37 -9 -9 -22
-24 -30 -33 -8 -10 -23 -15 -37 -12 -26 5 -32 -11 -12 -31 9 -9 9 -12 -3 -12
-8 0 -25 -9 -36 -19 -12 -11 -24 -17 -27 -14 -3 4 -6 -2 -6 -12 0 -15 -6 -17
-36 -12 -29 5 -35 3 -30 -8 6 -18 5 -18 -30 -5 -24 9 -25 9 -14 -5 10 -12 10
-18 0 -30 -7 -8 -19 -15 -26 -15 -8 0 -15 -9 -15 -20 -1 -11 -2 -25 -3 -32 -1
-6 5 -13 13 -16 9 -3 11 1 6 17 -5 16 -3 20 9 15 18 -7 22 -34 6 -34 -5 0 -10
-6 -10 -13 0 -8 -9 -22 -20 -32 -15 -14 -17 -20 -8 -26 7 -4 9 -11 5 -15 -3
-4 -13 -1 -22 6 -8 7 -15 8 -15 2 0 -13 26 -23 43 -17 8 4 12 -8 14 -35 1 -35
-2 -41 -23 -46 -13 -3 -24 -11 -24 -16 0 -6 11 -7 25 -4 21 5 25 3 25 -16 1
-21 2 -22 14 -5 7 9 23 17 36 17 16 0 20 4 16 15 -3 8 -1 15 3 15 5 0 11 -7
15 -15 6 -17 46 -21 46 -4 0 6 7 17 16 26 11 12 18 13 27 4 8 -8 6 -11 -7 -11
-25 0 -14 -24 12 -28 16 -3 20 1 16 12 -3 9 -1 16 5 16 6 0 16 -11 21 -25 5
-14 16 -25 23 -25 8 0 25 -9 39 -19 13 -11 37 -23 52 -27 15 -3 30 -13 33 -20
3 -8 13 -14 22 -14 13 0 18 -8 18 -30 0 -16 -4 -30 -9 -30 -4 0 -8 -7 -8 -16
0 -10 6 -14 15 -11 8 4 17 2 20 -3 11 -17 37 -11 42 10 3 11 12 20 19 20 11 0
14 -14 13 -56 -2 -52 0 -58 38 -97 47 -49 73 -86 73 -104 0 -20 -17 -15 -23 7
-6 23 -27 27 -27 5 0 -19 -9 -19 -30 0 -20 18 -54 9 -46 -11 8 -21 -66 -18
-95 4 -15 11 -39 17 -64 16 -22 -1 -52 -2 -67 -3 -22 -1 -28 -6 -29 -23 0 -22
-1 -22 -9 -3 -5 11 -9 16 -10 10 0 -5 -5 -2 -11 8 -5 9 -14 17 -19 17 -5 0 -6
-8 -3 -17 6 -15 4 -16 -9 -5 -13 11 -22 10 -51 -2 -35 -14 -94 -16 -115 -2 -6
3 -13 2 -16 -3 -7 -11 -48 -2 -57 12 -4 5 -15 4 -29 -3 -18 -10 -21 -9 -17 2
2 7 9 12 15 11 6 -2 9 4 6 12 -7 17 21 21 31 5 9 -15 35 -12 35 5 0 7 8 18 18
24 15 8 14 11 -10 20 -32 12 -36 26 -11 40 13 7 20 5 29 -7 10 -14 15 -15 26
-4 17 17 15 92 -3 103 -11 7 -11 9 2 9 9 0 22 -7 30 -16 7 -8 21 -13 30 -11
10 3 26 -1 36 -8 10 -6 28 -14 40 -17 26 -7 22 7 -15 64 -13 20 -21 42 -17 48
4 6 -3 21 -15 33 l-23 21 7 -27 c5 -20 3 -27 -9 -27 -8 0 -15 8 -15 18 0 9 -9
23 -20 30 -18 11 -20 10 -20 -8 0 -13 -7 -20 -20 -20 -11 0 -20 -6 -20 -14 0
-17 -35 -27 -48 -14 -6 6 -8 17 -5 24 3 8 0 14 -6 14 -6 0 -11 -4 -11 -10 0
-5 -8 -7 -17 -4 -11 4 -14 2 -8 -3 6 -4 15 -17 21 -28 6 -11 21 -21 33 -21 27
-2 46 -18 37 -33 -12 -19 -47 -12 -53 9 -3 11 -9 20 -14 20 -11 0 -11 -3 1
-35 9 -23 8 -26 -6 -21 -20 8 -64 -3 -64 -16 0 -6 9 -8 20 -5 17 4 18 2 9 -14
-5 -10 -14 -19 -19 -19 -6 0 -10 -7 -10 -15 0 -8 -7 -16 -15 -16 -8 -1 -20 -2
-27 -3 -15 -1 -23 -26 -8 -26 8 0 10 -9 5 -27 -4 -16 -7 -36 -7 -46 1 -12 -4
-16 -16 -13 -9 3 -24 1 -32 -4 -10 -6 -11 -10 -2 -10 6 0 12 -6 12 -14 0 -8 7
-16 15 -20 8 -3 15 -11 15 -17 0 -8 -4 -8 -15 1 -9 7 -15 8 -15 2 0 -24 -33
-20 -60 8 -33 34 -50 38 -50 13 0 -12 -8 -18 -24 -18 -13 0 -22 3 -19 8 2 4
-2 7 -10 7 -26 0 -29 30 -4 41 18 8 15 9 -15 5 -21 -3 -40 0 -44 5 -3 5 -10 6
-16 3 -10 -6 -109 -8 -150 -3 -21 3 -24 15 -5 22 6 3 -7 5 -30 5 -42 -1 -80
22 -68 41 3 5 1 12 -5 16 -5 3 -10 15 -10 26 0 10 -7 19 -15 19 -9 0 -15 -9
-15 -25 0 -14 -3 -25 -8 -25 -4 0 -14 -12 -23 -26 l-16 -26 -1 32 c-1 42 -9
49 -18 16 -3 -14 -10 -26 -15 -26 -5 0 -6 7 -3 15 4 8 -1 17 -10 21 -14 5 -14
8 -1 21 23 23 18 52 -10 59 -14 3 -25 10 -25 14 0 4 -16 15 -36 25 -20 9 -38
25 -41 35 -4 15 -17 18 -55 11 -5 0 -8 -8 -8 -17 0 -8 -4 -12 -10 -9 -5 3 -10
-2 -10 -11 0 -14 -3 -15 -12 -6 -8 8 -8 15 2 27 15 19 -1 21 -32 4 -21 -11
-21 -12 -3 -25 18 -13 17 -14 -8 -14 -17 0 -27 5 -27 15 0 8 -4 15 -10 15 -5
0 -10 5 -10 10 0 6 6 10 14 10 8 0 16 6 19 13 2 7 22 12 51 12 39 0 44 2 29
12 -9 7 -14 16 -10 19 4 4 13 1 22 -6 20 -17 32 -5 15 15 -10 12 -9 16 3 21
12 4 13 12 6 36 -4 17 -6 35 -2 41 4 6 0 8 -10 4 -9 -3 -19 -2 -22 3 -9 14
-44 -11 -38 -27 3 -7 0 -13 -6 -13 -6 0 -11 7 -11 15 0 18 -17 20 -23 3 -2 -7
3 -18 12 -24 13 -10 9 -12 -21 -12 -43 0 -61 -9 -52 -24 5 -8 1 -9 -10 -5 -10
4 -20 7 -22 7 -2 0 -4 8 -5 18 0 9 -6 2 -13 -17 -13 -38 -43 -59 -32 -23 4 12
2 23 -5 28 -8 4 -9 3 -5 -5 6 -9 0 -10 -21 -5 -26 7 -27 6 -13 -12 8 -10 23
-27 32 -37 13 -15 14 -24 6 -43 l-11 -24 -24 28 c-13 15 -21 32 -18 39 2 7 -1
15 -6 19 -6 3 -9 14 -6 24 3 13 0 17 -9 13 -25 -9 -15 27 11 39 25 11 24 34 0
24 -8 -3 -27 -1 -43 4 -19 5 -34 4 -41 -3 -8 -8 -18 -7 -38 3 -43 21 -43 22
-43 16 0 -8 62 -36 81 -36 23 0 41 -32 36 -67 -3 -23 -9 -29 -35 -31 -22 -2
-30 -7 -25 -15 10 -17 12 -67 3 -67 -5 0 -11 18 -15 40 -4 22 -12 40 -18 40
-7 0 -6 5 3 10 13 9 12 12 -4 25 -25 19 -36 19 -36 0 0 -8 -4 -15 -10 -15 -6
0 -9 -282 -10 -755 l0 -755 26 0 c14 0 23 4 20 9 -3 5 3 11 13 14 11 2 21 15
24 28 2 13 4 3 3 -23 -1 -35 -5 -47 -16 -46 -66 4 -70 1 -70 -56 0 -40 4 -55
16 -60 9 -3 60 -6 114 -6 100 0 122 -8 100 -35 -9 -11 -9 -15 -1 -15 6 0 11 5
11 11 0 7 34 10 97 9 258 -5 1278 14 1285 23 4 7 11 7 21 -1 9 -8 42 -10 103
-6 49 3 98 5 109 4 39 -3 194 -2 518 4 307 6 327 5 327 -11 0 -15 2 -16 10 -3
8 13 58 15 337 17 418 3 483 5 489 15 3 4 1 8 -4 8 -5 0 -9 16 -10 35 -2 40
-3 39 50 23 31 -9 38 -16 36 -32 -2 -16 -9 -20 -30 -18 -16 2 -28 -1 -28 -7 0
-6 8 -11 18 -11 9 -1 53 -1 97 -2 l80 -1 5 129 6 129 2 -126 c1 -91 6 -128 15
-132 6 -2 65 -4 130 -4 109 0 142 6 117 22 -5 3 -10 11 -10 17 0 6 9 0 19 -14
16 -20 27 -24 68 -23 26 1 137 2 246 3 l197 2 2 98 2 97 5 -95 6 -95 540 -1
c297 -1 653 -4 790 -8 291 -7 763 -16 1087 -20 l226 -3 1 153 1 154 -76 0 -77
0 42 45 c22 24 41 49 41 55 0 5 16 10 35 10 l35 0 0 106 c0 78 -3 103 -12 98
-8 -5 -9 -2 -2 12 10 21 18 1030 8 1054 -4 10 -11 2 -20 -25 -13 -40 -13 -40
-8 -5 3 19 12 40 20 46 11 9 14 52 13 225 -1 137 -4 205 -10 189 -8 -22 -8
-21 -3 5 14 67 11 136 -5 145 -14 8 -14 9 2 10 19 0 24 26 6 32 -9 3 -9 9 0
25 6 12 10 32 10 45 -1 17 -3 18 -6 6 -6 -22 -12 -22 -35 -1 -10 9 -21 13 -25
9 -4 -4 -1 -11 7 -16 8 -5 11 -12 7 -17 -4 -4 -17 -2 -27 5 -25 16 -30 15 -30
-3 0 -8 -5 -15 -11 -15 -6 0 -9 7 -5 15 3 9 -3 19 -17 26 -18 9 -20 9 -9 -2
22 -23 13 -29 -38 -28 -34 2 -50 6 -50 16 0 19 -5 17 -42 -17 -19 -18 -34 -26
-37 -19 -2 6 1 14 7 18 13 8 4 51 -10 51 -5 0 -8 -10 -6 -22 3 -21 -1 -23 -33
-20 -26 2 -38 -1 -42 -12 -4 -9 -13 -16 -22 -16 -21 0 -19 -46 3 -55 15 -6 14
-8 -8 -20 -34 -19 -43 -18 -31 3 14 27 -5 55 -29 42 -27 -15 -32 -12 -21 9 12
21 -7 35 -34 25 -9 -4 -15 0 -15 10 0 23 -11 20 -35 -10 -16 -20 -26 -24 -47
-19 -20 5 -25 12 -23 31 3 32 -13 31 -21 -2 -4 -15 -12 -23 -20 -20 -7 3 -18
-2 -24 -9 -14 -17 -31 -10 -24 9 3 8 -4 15 -20 18 -28 6 -44 -17 -21 -30 13
-6 13 -12 3 -35 -13 -27 -38 -45 -38 -27 0 6 5 10 10 10 6 0 10 9 10 20 0 24
-9 26 -25 3 -11 -14 -16 -15 -44 -3 -28 11 -33 11 -44 -4 -12 -16 -14 -16 -32
4 -27 30 -29 57 -3 71 l22 12 -21 8 c-34 12 -105 -1 -110 -22 -3 -10 -19 -23
-37 -29 l-31 -11 30 -13 c17 -8 34 -10 40 -5 16 16 27 10 11 -6 -9 -9 -21 -15
-28 -14 -26 5 -58 -13 -58 -32 0 -22 4 -23 29 -7 10 6 27 8 37 4 18 -7 18 -8
2 -20 -10 -7 -18 -19 -18 -25 0 -8 -11 -10 -35 -5 -22 4 -35 2 -35 -4 0 -6 5
-12 11 -14 7 -2 5 -9 -5 -17 -14 -12 -16 -11 -16 7 0 30 -18 37 -41 16 -16
-14 -22 -15 -28 -5 -6 10 -12 9 -25 -4 -18 -19 -20 -31 -6 -40 19 -12 10 -25
-12 -20 -17 4 -33 -3 -61 -30 -40 -37 -56 -42 -75 -23 -9 9 -15 9 -20 3 -4 -6
-30 -11 -59 -11 -69 -2 -112 -12 -93 -24 8 -5 11 -13 6 -17 -4 -4 -15 2 -23
15 -16 23 -47 30 -58 12 -3 -5 -15 -10 -27 -10 -14 0 -18 -5 -15 -15 4 -8 2
-17 -3 -20 -5 -3 -7 -12 -3 -20 3 -9 -1 -15 -11 -15 -9 0 -16 -5 -16 -11 0 -6
8 -8 18 -5 9 3 23 2 30 -3 10 -6 4 -10 -21 -15 -40 -8 -67 0 -67 20 0 28 -76
3 -86 -28 -3 -9 -25 -27 -50 -39 -54 -28 -76 -51 -80 -86 -2 -14 -8 -29 -14
-33 -6 -4 -14 -26 -17 -48 -5 -35 -9 -41 -31 -44 -32 -4 -41 -28 -13 -35 24
-6 28 -23 6 -23 -19 0 -19 -7 1 -27 12 -13 18 -13 24 -4 6 10 9 10 15 1 4 -6
0 -19 -9 -29 -9 -10 -16 -27 -16 -39 0 -17 -10 -24 -47 -35 -27 -8 -50 -10
-51 -6 -9 23 -22 -7 -16 -37 6 -32 4 -34 -20 -34 -14 0 -26 -4 -26 -10 0 -5 5
-10 11 -10 6 0 9 -7 5 -15 -3 -9 0 -15 10 -15 8 0 13 -4 9 -9 -3 -6 -13 -10
-23 -10 -28 1 -117 -12 -122 -17 -2 -3 1 -9 8 -13 20 -12 -3 -59 -31 -66 -13
-4 -46 -5 -73 -3 l-49 3 42 21 c44 21 49 40 7 24 -13 -5 -30 -7 -38 -4 -8 3
-16 -3 -19 -15 -4 -16 -13 -21 -36 -21 -28 0 -31 2 -21 19 16 30 13 46 -5 31
-8 -7 -15 -18 -15 -26 0 -7 -4 -15 -9 -18 -5 -4 -7 4 -4 16 l6 23 -25 -22
c-30 -28 -41 -29 -33 -3 4 11 2 20 -4 20 -6 0 -11 -9 -11 -19 0 -22 -17 -37
-28 -26 -4 4 -1 10 6 12 20 7 14 25 -7 18 -15 -4 -20 0 -23 25 -4 24 -1 30 14
30 10 0 18 -8 19 -17 0 -11 3 -13 6 -5 2 6 11 12 19 12 21 0 17 8 -18 42 -21
19 -29 32 -20 35 6 3 12 9 12 14 0 16 -38 -14 -44 -34 -2 -10 -9 -16 -14 -13
-6 3 -8 16 -5 29 4 13 2 19 -3 14 -5 -5 -9 -14 -9 -20 0 -19 -67 -21 -77 -3
-5 9 -16 16 -24 16 -8 0 -12 5 -9 11 4 6 13 8 20 5 8 -3 16 -2 18 2 2 4 2 1 1
-5 -2 -7 1 -13 6 -13 6 0 10 5 10 10 0 6 13 10 29 10 17 0 31 6 35 15 4 13 2
14 -14 5 -19 -10 -24 -6 -21 13 1 5 -8 6 -19 2 -18 -6 -19 -3 -14 24 8 36 -7
41 -38 11 -25 -23 -38 -18 -38 15 0 21 3 23 39 18 36 -5 41 -3 56 27 15 30 15
31 -2 28 -10 -1 -24 1 -31 6 -7 4 -16 5 -20 1 -4 -4 -1 -10 6 -12 6 -3 10 -9
6 -14 -10 -16 -24 -10 -24 11 0 27 -18 26 -22 -2 -4 -25 -28 -37 -28 -14 0 13
-5 14 -26 6 -35 -14 -37 -13 -30 15 7 27 -8 35 -18 10 -3 -8 -12 -12 -20 -9
-20 8 -46 61 -39 80 3 7 1 14 -5 14 -5 0 -13 -11 -16 -25 -4 -17 -13 -25 -28
-25 -17 0 -19 3 -10 12 15 15 16 32 2 23 -18 -11 -11 17 8 31 16 13 16 13 0
14 -10 0 -18 5 -18 11 0 7 -8 17 -17 24 -15 11 -15 17 -5 39 17 37 15 45 -7
39 -13 -3 -17 -11 -14 -24 3 -10 0 -19 -6 -19 -6 0 -11 11 -11 25 0 20 -5 25
-24 25 -31 0 -54 26 -38 42 7 7 12 21 12 32 -1 21 -1 21 -16 1 -15 -20 -15
-20 -35 5 -14 18 -19 35 -15 63 3 28 1 37 -11 37 -8 0 -17 -9 -20 -20 -8 -32
-39 -21 -35 12 2 14 -2 29 -7 33 -6 3 -11 2 -11 -3 0 -6 -14 -7 -37 -1 -21 4
-46 6 -57 3 -12 -4 -16 -2 -12 5 4 6 0 14 -8 17 -9 3 -13 10 -10 16 3 5 12 7
20 4 7 -3 16 -1 19 5 4 6 -14 9 -45 8 -44 -2 -54 -6 -63 -26 -7 -16 -16 -22
-26 -17 -9 3 -22 7 -28 8 -7 1 -20 11 -28 22 -13 16 -14 16 -9 2 4 -12 1 -18
-7 -18 -20 0 -41 15 -37 26 3 10 -4 14 -28 14 -10 0 -14 -7 -12 -22 4 -30 -16
-33 -31 -4 -10 18 -21 23 -44 22 -25 -1 -31 4 -38 27 -12 43 -28 58 -55 51
-17 -4 -26 -1 -30 10 -3 9 -16 16 -29 16 -15 0 -22 6 -21 16 1 11 -13 20 -46
29 -26 6 -50 9 -54 6 -3 -3 -12 2 -19 13 -8 11 -21 16 -30 13 -8 -4 -15 -1
-15 5 0 6 -11 8 -29 5 -25 -5 -34 -1 -55 24 -25 30 -50 32 -39 4 3 -9 -1 -15
-11 -15 -9 0 -16 4 -16 9 0 5 -12 12 -26 15 -30 8 -54 -8 -54 -35 0 -29 -19
-23 -58 17 -28 29 -31 35 -14 30 18 -6 22 -3 22 13 0 12 5 21 11 21 5 0 7 5 4
10 -4 7 -11 7 -18 2 -26 -20 -69 -23 -88 -7 -10 10 -23 14 -28 10 -6 -3 -11 2
-11 13 0 18 -5 19 -42 14 -24 -4 -59 -7 -78 -7 -30 0 -35 3 -40 29 -5 31 -18
41 -36 28z m4685 -140 c-11 -24 -16 -48 -13 -54 3 -5 -3 -18 -15 -29 -24 -23
-31 -24 -31 -4 0 8 7 15 16 15 32 0 6 25 -29 28 -27 2 -39 -1 -43 -12 -7 -17
-54 -22 -54 -6 0 13 -27 13 -35 0 -3 -6 -3 -19 0 -31 6 -17 12 -19 38 -14 18
4 37 14 44 22 15 19 36 7 28 -17 -3 -10 -1 -21 5 -25 5 -3 10 -16 10 -28 0
-18 2 -19 10 -7 8 12 10 9 10 -12 0 -43 -31 -33 -49 15 -10 26 -31 38 -31 17
0 -5 -7 -7 -15 -4 -8 4 -15 1 -15 -6 0 -7 -6 -10 -14 -7 -8 3 -16 1 -18 -5 -3
-7 -14 -5 -31 7 -27 17 -36 35 -17 35 6 0 10 9 10 19 0 11 5 23 10 26 6 3 10
14 10 23 0 14 -2 14 -9 3 -11 -17 -58 -24 -67 -10 -8 14 15 39 37 39 11 0 19
5 19 12 0 7 6 4 13 -5 14 -20 57 -13 57 9 0 8 7 17 16 21 13 5 13 7 2 14 -8 6
0 9 25 9 20 0 37 -5 37 -11 0 -14 26 -39 40 -39 8 0 11 11 8 28 -3 24 -1 27
28 28 l32 0 -19 -44z m-4489 -114 c0 -6 -7 -19 -15 -28 -14 -15 -14 -18 1 -30
12 -11 20 -11 35 -2 11 7 19 8 19 2 0 -5 6 -7 13 -4 7 2 26 -9 42 -26 22 -23
26 -33 17 -42 -8 -8 -15 -8 -26 2 -13 10 -17 9 -22 -4 -9 -25 1 -30 35 -18 23
8 31 8 31 -1 0 -8 3 -8 8 -2 12 17 52 17 52 0 0 -8 7 -15 15 -15 12 0 13 5 4
27 -7 18 -6 30 1 37 13 13 30 -4 33 -33 1 -16 6 -20 20 -15 10 3 25 0 33 -7
12 -10 17 -8 29 7 9 12 14 14 15 6 0 -29 -63 -62 -76 -40 -4 6 -10 5 -15 -3
-5 -8 -16 -14 -26 -14 -10 0 -19 -9 -21 -20 -5 -29 -32 -48 -49 -34 -10 9 -13
8 -13 -1 0 -9 -3 -10 -13 -1 -13 10 -27 6 -27 -10 0 -4 8 -15 17 -25 16 -15
16 -17 -2 -30 -34 -25 -44 -18 -39 31 2 25 9 55 15 66 6 12 8 23 5 26 -10 10
-45 -28 -39 -43 3 -8 0 -14 -7 -14 -8 0 -9 10 -5 31 4 18 3 34 -3 38 -14 9
-25 51 -13 51 6 0 11 5 11 11 0 6 -8 8 -18 5 -17 -6 -43 15 -65 50 -10 17 12
84 28 84 8 0 15 -5 15 -12z m-383 -177 l-6 -28 80 -6 c44 -3 86 -10 94 -17 17
-14 9 -40 -12 -40 -9 0 -13 6 -9 15 3 8 0 15 -6 15 -6 0 -8 -11 -4 -30 3 -17
1 -30 -4 -30 -6 0 -10 5 -10 10 0 6 -4 10 -10 10 -5 0 -10 -6 -10 -13 0 -7 -7
-22 -16 -33 -15 -18 -15 -17 -10 14 4 24 2 32 -9 32 -8 0 -15 7 -15 16 0 8 -4
13 -9 10 -5 -3 -7 -15 -4 -26 3 -11 9 -17 14 -14 5 3 9 -3 9 -12 0 -15 -4 -14
-25 6 -21 19 -25 21 -25 7 0 -20 -26 -23 -33 -4 -3 7 -6 5 -6 -5 -1 -14 7 -18
30 -18 26 0 29 -3 24 -20 -5 -16 -3 -19 11 -13 11 4 22 -1 30 -12 13 -17 14
-17 14 -2 0 11 8 17 23 18 12 0 16 3 10 6 -26 10 -12 18 32 19 32 1 45 -2 45
-12 0 -8 0 -17 0 -21 0 -5 -4 -8 -8 -8 -14 0 -42 -33 -42 -50 0 -14 -3 -13
-27 2 l-28 18 22 -35 c25 -42 29 -113 6 -136 -12 -11 -13 -18 -4 -27 13 -13
15 -47 2 -47 -15 0 -23 19 -23 56 0 36 -15 55 -28 34 -6 -9 -15 -7 -39 11 -34
25 -40 39 -16 39 8 0 15 4 15 10 0 6 -9 6 -26 0 -25 -10 -26 -9 -20 15 10 38
-11 30 -25 -10 -7 -19 -16 -35 -19 -35 -10 0 -31 91 -23 103 3 6 6 35 5 64 -1
45 2 53 17 53 13 0 20 10 25 31 5 25 9 29 26 24 24 -7 26 7 5 29 -11 11 -13
21 -5 40 13 35 24 33 17 -3z m-413 -28 c6 -15 8 -15 20 2 12 16 13 16 19 1 4
-9 2 -16 -4 -16 -6 0 -8 -7 -5 -16 4 -12 1 -14 -13 -9 -25 8 -35 -9 -16 -25 8
-7 15 -19 15 -26 0 -8 9 -14 20 -14 15 0 20 7 20 28 1 24 2 25 14 10 19 -25
26 -11 11 19 -8 15 -11 31 -8 36 8 13 21 -12 28 -55 4 -25 12 -38 22 -38 10 0
13 6 9 16 -4 12 -2 15 9 10 22 -8 18 14 -7 41 -30 32 -15 29 20 -4 47 -45 52
-93 10 -93 -10 0 -17 -4 -13 -10 3 -5 12 -7 20 -3 9 3 15 -1 15 -10 0 -9 -10
-17 -22 -19 l-23 -3 24 -14 c21 -12 26 -11 37 3 16 22 28 4 20 -30 -4 -14 -2
-24 4 -24 5 0 10 -8 10 -18 0 -26 -29 -23 -47 5 -8 13 -25 23 -36 23 -19 0
-16 -4 15 -30 20 -17 40 -39 43 -50 4 -11 15 -20 25 -20 18 0 50 -45 50 -70 0
-18 -39 14 -66 54 -14 20 -33 36 -44 36 -10 0 -33 12 -50 26 -17 15 -34 23
-38 20 -4 -4 4 -16 18 -26 14 -10 22 -21 19 -24 -3 -3 -23 7 -45 24 -21 16
-45 30 -52 30 -24 0 -92 54 -92 73 0 24 15 21 38 -8 27 -34 35 -31 14 5 -9 16
-20 30 -24 30 -5 0 -8 6 -8 14 0 9 -16 17 -41 21 -48 8 -44 16 11 21 33 3 40
1 40 -14 1 -26 40 -67 88 -91 61 -31 50 -2 -14 35 -10 6 -19 22 -19 35 0 27
-51 62 -77 53 -10 -3 -18 0 -18 6 0 7 9 14 20 17 11 3 20 14 20 24 0 11 5 19
11 19 6 0 9 9 6 20 -6 24 8 27 17 3z m1062 -94 c20 6 41 8 46 5 5 -3 15 -1 23
6 24 20 29 -9 4 -31 -26 -23 -30 -24 -23 -6 3 8 -2 14 -10 14 -8 0 -13 -4 -10
-9 3 -4 -2 -11 -10 -14 -9 -3 -16 -14 -16 -24 0 -10 -7 -23 -15 -30 -8 -7 -15
-18 -15 -25 0 -6 -16 -20 -35 -31 -24 -13 -42 -34 -56 -64 -53 -116 -63 -143
-48 -138 6 2 23 32 37 66 39 90 102 164 102 118 0 -8 -6 -17 -12 -19 -7 -3 -3
-6 10 -6 24 -1 25 3 13 34 -9 22 15 69 30 59 5 -3 7 -10 4 -15 -4 -5 -1 -9 5
-9 7 0 14 9 17 20 3 11 11 20 18 20 7 0 15 5 17 12 3 7 12 9 22 5 13 -5 15
-11 6 -26 -14 -28 -13 -36 5 -21 8 7 15 20 15 28 0 15 2 15 15 1 14 -13 14
-19 1 -50 -8 -19 -24 -46 -36 -62 -12 -15 -20 -32 -18 -38 2 -6 21 15 42 46
22 32 45 54 52 51 7 -3 15 2 18 9 3 8 12 12 21 9 10 -4 15 0 15 11 0 9 -5 13
-11 9 -8 -4 -9 0 -4 15 5 16 3 20 -9 15 -12 -5 -15 -2 -10 10 3 9 11 13 16 9
24 -14 68 -13 68 2 0 8 5 15 10 15 6 0 10 -11 10 -25 0 -21 5 -25 31 -25 16 0
28 -4 25 -8 -2 -4 4 -14 16 -21 18 -11 19 -10 13 11 -11 36 -11 40 4 46 10 3
12 0 8 -12 -4 -9 -2 -16 3 -16 5 0 15 18 21 40 7 22 18 40 26 40 10 0 11 -5 3
-19 -15 -28 -14 -49 2 -33 16 16 28 15 28 -1 0 -7 9 -19 20 -27 11 -8 20 -19
20 -24 0 -6 -5 -5 -12 2 -7 7 -16 8 -22 3 -19 -15 -59 -24 -52 -12 4 6 3 11
-1 11 -14 0 -41 -67 -33 -80 4 -7 16 -9 28 -6 14 5 24 1 31 -11 9 -16 10 -15
11 9 0 27 19 38 52 30 13 -3 17 -13 15 -36 -2 -27 1 -31 21 -28 26 4 30 -13 6
-26 -14 -8 -13 -10 9 -16 32 -8 41 -33 22 -62 -18 -28 -41 -31 -49 -6 -2 9 -2
0 1 -20 5 -34 3 -38 -16 -38 -25 0 -28 -15 -5 -24 12 -4 13 -10 6 -19 -14 -17
-19 -46 -8 -45 5 0 12 -6 17 -13 15 -25 -61 -60 -86 -39 -6 5 -15 7 -19 3 -3
-4 -55 -8 -114 -9 -153 -3 -150 -3 -132 -14 8 -5 33 -7 55 -4 l40 6 -30 -21
c-34 -23 -71 -27 -78 -8 -4 13 -37 -56 -37 -79 0 -16 -16 -19 -25 -4 -3 6 -1
10 4 10 6 0 11 10 11 23 0 12 8 36 18 52 24 38 36 85 22 85 -5 0 -10 -6 -10
-14 0 -11 -55 -123 -67 -136 -3 -3 -2 7 2 23 6 21 4 27 -9 27 -19 0 -20 5 -6
30 7 13 7 21 -1 25 -6 4 -13 -2 -16 -14 -3 -12 -9 -21 -13 -21 -5 0 -6 9 -3
20 3 11 3 20 0 20 -8 0 -47 -70 -47 -85 0 -7 -6 -20 -13 -27 -8 -7 -16 -20
-20 -28 -6 -16 -3 37 7 115 l6 50 -22 -45 c-12 -25 -22 -58 -22 -74 -1 -34
-20 -45 -31 -19 -16 38 -14 68 6 86 11 10 17 22 14 27 -10 17 -49 -17 -90 -79
-22 -33 -46 -61 -52 -61 -16 0 -17 -20 -2 -20 5 0 7 -4 4 -10 -16 -27 -25 -3
-25 70 l0 79 30 -2 c16 -1 30 -5 30 -9 0 -5 7 -8 15 -8 8 0 15 4 15 9 0 14
-28 33 -39 27 -18 -12 -41 6 -41 32 0 14 9 35 19 46 10 12 22 37 26 56 l7 35
-21 -23 c-12 -12 -19 -26 -16 -31 3 -5 1 -12 -5 -16 -15 -9 -30 40 -23 76 4
20 15 34 32 42 25 10 26 11 4 14 -21 4 -34 33 -14 33 5 0 16 12 26 26 14 21
14 28 3 42 -11 13 -11 15 3 10 10 -4 26 2 37 13 12 10 26 19 33 19 8 0 8 4 -1
15 -7 8 -19 15 -26 15 -23 0 -16 27 9 35 17 5 18 8 6 12 -27 7 -10 52 30 78
31 20 38 21 48 8 9 -12 19 -12 49 -4z m-321 -198 c-2 -20 -7 -48 -11 -63 -4
-18 -2 -28 5 -28 6 0 11 11 11 24 0 24 24 41 42 30 6 -4 8 -31 4 -68 -3 -33
-5 -76 -5 -93 -1 -26 -5 -33 -21 -33 -11 0 -20 5 -20 12 0 9 -3 9 -12 0 -14
-14 -9 -20 18 -25 10 -1 24 -6 30 -10 17 -10 23 -56 12 -91 -5 -17 -9 -57 -8
-89 1 -71 -4 -79 -35 -65 -24 11 -40 36 -30 47 6 5 21 -13 28 -33 2 -5 9 -6
16 -2 11 7 11 10 0 16 -16 10 -16 73 -1 78 15 5 16 52 2 52 -5 0 -10 -5 -10
-11 0 -7 -11 -8 -32 -3 -18 4 -50 6 -70 5 -27 -1 -43 5 -60 22 l-24 24 28 12
c15 7 28 20 28 29 0 15 -2 15 -10 2 -6 -10 -10 -11 -10 -2 0 6 -6 11 -12 10
-17 -4 -15 71 2 82 9 5 9 9 1 14 -30 19 16 70 54 60 36 -9 31 1 -10 20 -34 17
-39 36 -9 36 8 0 12 5 9 10 -19 30 20 64 75 66 28 1 29 -1 25 -35z m1283 -92
c9 -1 20 -1 25 0 16 2 6 -56 -14 -72 -11 -10 -18 -21 -15 -24 3 -3 19 8 35 24
22 23 37 29 55 26 15 -3 26 -12 26 -19 0 -8 9 -19 20 -26 21 -14 28 -48 9 -48
-6 0 -9 -7 -6 -14 4 -10 1 -13 -7 -10 -15 6 -46 -21 -46 -41 0 -7 -9 -15 -21
-18 -15 -4 -19 -2 -15 9 6 17 -10 19 -20 2 -5 -7 -11 -5 -21 7 -7 11 -13 15
-13 11 0 -4 -13 2 -30 14 -16 12 -30 17 -30 11 0 -6 -4 -11 -10 -11 -21 0 -4
36 20 42 24 5 44 38 31 51 -8 8 -11 8 -11 0 0 -6 -13 -16 -29 -23 -30 -12 -41
-42 -58 -162 -4 -32 -13 -42 -54 -68 -50 -31 -108 -42 -92 -17 4 6 8 15 8 19
0 15 15 20 15 5 0 -27 19 -20 26 10 6 23 8 24 19 9 7 -9 19 -14 29 -10 22 8
20 21 -4 27 -26 7 -26 27 -1 27 26 0 38 20 14 22 -57 4 -76 2 -80 -10 -4 -10
-11 -8 -25 8 -18 20 -19 23 -4 39 9 10 16 24 16 32 0 8 16 31 35 53 19 21 35
42 35 47 0 5 11 14 25 19 14 5 25 17 25 26 0 12 7 15 26 11 23 -4 25 -2 21 19
-4 20 -1 22 23 17 17 -3 31 0 36 8 7 11 9 10 12 -3 2 -10 11 -19 20 -19z
m-1524 -44 c4 -14 11 -25 16 -25 11 0 12 -62 2 -98 -8 -28 -27 -25 -28 3 -2
37 -5 40 -15 17 -5 -13 -13 -20 -19 -17 -6 3 -10 -4 -10 -17 0 -17 -3 -19 -9
-9 -5 7 -13 11 -19 7 -5 -3 -19 21 -31 53 -26 72 -27 94 -3 89 9 -2 22 3 29
12 10 12 15 13 32 3 29 -18 33 -16 25 9 -6 20 -5 21 9 10 8 -7 18 -24 21 -37z
m1226 -15 c-7 -4 -6 -16 5 -36 19 -36 19 -53 1 -96 -21 -50 -41 -64 -61 -44
-9 9 -21 16 -27 16 -6 0 -8 3 -5 6 4 4 -6 18 -21 30 -15 13 -22 24 -16 24 6 0
21 23 32 50 12 28 26 50 32 50 6 0 15 12 21 28 l11 27 19 -24 c13 -16 16 -27
9 -31z m-116 -226 c21 -56 -11 -108 -42 -68 -9 12 -16 15 -19 8 -2 -7 -13 -10
-23 -7 -11 3 -20 1 -20 -5 0 -7 -44 -11 -126 -11 -69 0 -128 -2 -132 -5 -3 -3
0 -6 6 -6 8 0 11 -29 11 -91 0 -50 1 -92 3 -94 2 -2 77 -5 168 -6 91 -1 168
-4 172 -6 4 -2 -5 -26 -20 -54 l-27 -50 -135 2 c-174 4 -183 5 -177 35 2 13 0
21 -4 18 -5 -3 -9 2 -9 10 0 9 -3 16 -7 16 -5 0 -8 14 -9 30 -1 20 4 30 13 30
9 0 11 5 6 13 -4 6 -8 21 -9 32 -1 11 -5 28 -9 38 -5 12 -3 17 9 17 9 0 16 5
16 10 0 6 -4 10 -10 10 -15 0 -12 76 3 88 7 6 25 9 40 8 15 -2 27 0 27 4 0 4
14 13 31 21 27 10 33 10 43 -2 33 -42 99 -62 110 -34 8 21 84 17 96 -4 14 -27
22 -5 12 33 -10 35 0 52 12 20z m353 -280 c18 -5 22 -12 18 -33 -3 -14 -2 -20
1 -13 9 18 27 14 20 -5 -4 -9 -1 -21 6 -26 9 -6 8 -7 -4 -3 -11 3 -18 0 -18
-9 0 -7 -8 -15 -17 -17 -15 -3 -17 -15 -14 -103 1 -55 4 -101 6 -103 1 -2 93
-3 203 -2 l201 0 25 -49 c13 -27 22 -52 18 -55 -3 -4 -107 -6 -230 -6 l-225 1
2 -93 c1 -51 6 -97 10 -101 4 -4 119 -6 254 -5 l247 3 -6 -35 c-9 -49 -10 -50
-54 -50 -22 0 -40 -5 -43 -12 -3 -10 -82 -13 -357 -11 -194 1 -355 4 -357 7
-2 2 -5 16 -7 32 -5 42 -26 42 -26 0 0 -33 -2 -36 -30 -36 -28 0 -30 2 -30 38
0 46 8 59 40 63 18 3 26 11 29 29 l4 25 6 -25 c7 -25 8 -25 129 -28 l122 -3 2
78 c1 85 0 115 -7 121 -2 2 -65 3 -139 3 -131 -2 -136 -1 -136 19 0 11 4 28 9
38 5 9 12 25 15 35 5 15 20 17 131 17 123 0 125 0 126 23 1 12 2 57 2 99 l2
78 -40 1 c-22 0 -73 0 -114 -1 -40 -1 -71 2 -69 7 3 4 11 23 18 41 14 32 15
32 85 32 52 0 78 5 100 19 32 21 56 24 92 15z m1083 -14 c23 -14 21 -79 -3
-92 -19 -10 -265 -3 -276 8 -2 2 2 4 11 4 8 0 23 9 33 20 10 11 34 22 54 26
20 3 45 12 57 19 19 12 48 19 94 23 8 1 22 -2 30 -8z m-1982 -102 c0 -57 1
-124 1 -150 l1 -48 65 0 64 0 3 58 c3 50 5 57 22 54 10 -2 23 2 27 10 5 8 9
-14 9 -54 l0 -68 45 0 c49 0 51 -1 33 -30 -10 -16 -10 -24 0 -41 18 -28 9 -34
-39 -30 l-40 3 3 -104 3 -103 53 0 c51 0 52 0 52 -30 -1 -77 3 -75 -151 -75
-115 0 -139 3 -139 15 0 8 -12 31 -26 52 -24 36 -25 44 -22 138 l3 100 -29 2
c-37 3 -37 3 -39 54 -2 44 -2 44 36 47 l37 3 0 134 c0 73 3 140 6 149 14 38
22 9 22 -86z m2422 53 c22 -41 14 -47 -52 -40 -35 3 -66 4 -70 2 -5 -2 -8 -48
-8 -103 0 -80 3 -99 16 -104 9 -3 114 -6 234 -6 l218 0 -3 -46 c-2 -25 -5 -47
-7 -50 -2 -2 -107 -5 -233 -6 l-228 -3 2 -94 c1 -52 5 -99 7 -103 3 -5 112 -8
243 -7 131 2 243 -1 250 -5 13 -8 61 -81 61 -93 0 -5 -232 -8 -515 -8 -339 0
-515 3 -515 10 0 6 -12 16 -27 22 -34 15 -141 3 -153 -17 -11 -18 -129 -17
-169 1 -33 15 -36 24 -21 63 7 20 16 26 40 26 33 0 31 -9 35 135 1 33 4 67 8
75 7 16 24 85 33 134 12 64 23 73 23 18 l1 -52 318 2 317 3 3 94 c3 86 4 93
22 88 13 -3 20 2 24 19 4 15 14 24 26 24 10 0 22 5 25 11 5 7 13 5 25 -6 18
-16 38 -5 26 14 -6 8 7 18 26 20 4 1 12 -8 18 -18z m950 -251 c3 -1 12 -2 21
-1 10 1 19 -9 22 -26 4 -15 9 -38 13 -50 6 -23 5 -23 -100 -23 l-106 0 0 49
c0 47 2 50 28 53 26 4 112 2 122 -2z m-3535 -41 c6 -19 13 -39 18 -46 5 -8
-16 -12 -80 -15 -105 -4 -113 -2 -113 26 0 53 41 75 130 70 30 -1 36 -6 45
-35z m669 -6 c-3 -27 -9 -52 -11 -56 -3 -5 -38 -7 -79 -5 -62 2 -74 6 -75 21
-2 31 -1 42 6 65 7 20 13 22 87 22 l79 0 -7 -47z m2641 -30 c-5 -20 -12 -22
-77 -25 l-73 -3 3 -42 c4 -52 -11 -56 -33 -10 -12 27 -13 40 -5 63 15 39 61
86 74 75 16 -11 96 -1 97 13 0 6 5 -2 10 -19 5 -16 7 -40 4 -52z m-4385 -69
c0 -6 9 -22 19 -36 21 -26 46 -174 35 -202 -7 -17 -45 -22 -132 -18 -62 4 -62
4 -60 33 2 25 6 29 31 29 16 0 26 -4 22 -10 -9 -14 7 -12 28 4 15 12 15 14 3
19 -9 4 -31 4 -50 2 -19 -3 -38 0 -41 5 -4 6 19 10 59 10 l65 0 -5 36 c-2 20
-1 41 3 47 10 16 10 89 0 112 -8 20 -8 20 7 1 9 -11 16 -25 16 -32z m334 -149
c4 -12 24 -15 94 -15 93 0 108 -4 89 -25 -8 -8 -19 -10 -34 -4 -14 5 -23 5
-23 -1 0 -6 7 -10 16 -10 10 0 14 -6 11 -14 -3 -8 -1 -16 5 -18 6 -2 8 -10 4
-16 -8 -13 -104 -16 -144 -6 -13 4 -21 13 -20 22 5 24 -23 27 -29 3 -5 -19
-13 -21 -69 -21 -35 0 -64 3 -64 8 1 22 28 40 55 36 17 -2 23 -1 14 2 -10 3
-16 15 -15 30 1 25 16 35 16 10 0 -14 21 -26 46 -26 8 0 14 5 14 11 0 5 -4 8
-9 5 -15 -10 -41 5 -40 23 0 10 2 11 6 4 7 -19 53 -16 53 2 0 8 4 15 9 15 5 0
11 -7 15 -15z m4033 -9 c1 -1 5 -25 9 -54 l7 -52 -97 0 c-107 0 -106 -1 -81
71 l15 45 73 -4 c39 -2 73 -5 74 -6z m274 -16 c1 -11 3 -10 6 3 10 37 23 15
23 -38 l0 -56 -112 3 -113 3 -3 52 -3 53 100 -3 c81 -2 101 -5 102 -17z m454
-17 c4 -21 9 -46 12 -55 4 -16 -5 -18 -96 -18 -59 0 -101 4 -101 10 0 5 9 29
21 52 l21 43 68 3 69 2 6 -37z m-3918 -23 l22 -50 -145 0 c-134 0 -144 1 -144
19 0 10 -3 33 -6 50 l-6 31 128 0 129 0 22 -50z"/>
<path d="M2939 4361 c-2 -6 -3 -54 -1 -106 l3 -96 60 3 60 3 5 98 c4 90 3 97
-14 97 -11 0 -40 3 -64 6 -29 4 -47 2 -49 -5z"/>
<path d="M4534 4361 c-2 -2 -4 -49 -4 -103 l0 -98 318 2 317 3 0 99 0 99 -313
1 c-173 1 -316 -1 -318 -3z"/>
<path d="M3406 3666 c18 -14 18 -16 1 -33 -17 -17 -18 -17 -23 5 -7 24 -12 26
-34 12 -13 -8 -12 -11 5 -16 22 -5 26 -33 11 -66 -13 -28 -29 -21 -22 10 3 15
3 22 0 15 -3 -7 -12 -9 -20 -6 -10 4 -12 0 -7 -13 5 -13 3 -16 -10 -11 -9 3
-19 2 -22 -2 -3 -5 9 -14 25 -20 17 -5 30 -15 30 -22 0 -8 -5 -7 -17 2 -15 13
-16 11 -10 -10 4 -18 1 -24 -14 -28 -17 -5 -23 -15 -20 -35 2 -16 -16 -7 -39
17 -13 14 -29 25 -36 25 -11 0 -41 40 -36 48 7 10 -1 10 -12 0 -10 -10 -11
-19 -3 -35 6 -13 7 -26 3 -31 -10 -10 -36 27 -30 43 7 17 -64 31 -79 16 -8 -8
-3 -11 18 -11 15 0 26 -3 22 -6 -3 -3 -22 -6 -42 -6 -28 0 -35 -4 -33 -16 3
-17 96 -43 153 -42 71 0 113 -22 60 -32 -17 -4 -25 -1 -25 9 0 11 -9 12 -37 7
-21 -4 -40 -8 -42 -10 -10 -8 48 -53 73 -57 31 -4 50 -27 22 -27 -18 0 -156
49 -172 62 -12 8 -37 -35 -27 -46 12 -11 23 -6 23 11 0 9 3 14 6 10 3 -3 3
-15 -1 -26 -6 -19 -8 -20 -30 -5 -21 13 -22 19 -13 45 7 22 7 38 -2 60 -11 26
-17 29 -38 24 -19 -5 -23 -3 -19 9 4 9 3 16 -2 16 -16 0 -33 -30 -28 -49 2
-10 0 -26 -5 -35 -7 -13 -5 -23 10 -39 11 -12 22 -31 24 -42 2 -17 -3 -20 -39
-23 -51 -4 -58 -22 -9 -22 44 0 66 -9 66 -26 0 -8 9 -14 20 -14 12 0 17 -5 14
-14 -7 -18 -46 -28 -58 -16 -7 7 -6 10 2 10 7 0 12 5 12 10 0 6 -7 10 -15 10
-8 0 -15 -4 -15 -10 0 -5 -7 -7 -15 -4 -9 4 -15 0 -15 -10 0 -9 8 -16 20 -16
37 0 146 -73 135 -90 -2 -4 -18 -6 -35 -5 -25 2 -29 -1 -24 -17 3 -10 1 -18
-4 -18 -12 0 -52 44 -52 58 0 11 -5 14 -32 16 -7 1 -16 6 -20 11 -5 6 -12 4
-18 -5 -14 -22 -7 -35 21 -37 42 -2 44 -3 26 -14 -9 -6 -14 -16 -11 -22 8 -14
-44 30 -63 53 -18 22 -16 27 17 42 18 8 30 20 30 32 0 19 -43 66 -61 66 -6 0
-7 5 -3 12 5 8 -5 9 -36 5 -24 -3 -46 -10 -49 -15 -3 -5 -15 -12 -26 -15 -16
-4 -14 -5 7 -6 21 -1 25 -5 21 -21 -4 -13 -18 -22 -46 -27 l-41 -9 54 -33 c30
-19 67 -34 82 -34 24 0 26 -3 21 -27 -3 -15 0 -31 6 -34 6 -4 11 -12 11 -17 0
-6 -4 -8 -9 -4 -5 3 -11 -1 -13 -10 -2 -10 -7 -12 -18 -5 -12 8 -12 12 -2 18
10 7 10 11 -3 22 -8 7 -15 19 -15 26 0 8 -9 14 -20 14 -11 0 -19 5 -17 10 1 7
-102 59 -119 60 -1 0 -1 -12 -1 -27 2 -36 12 -42 54 -36 24 4 33 2 33 -8 0
-11 2 -11 10 1 6 10 10 11 10 3 0 -7 7 -13 16 -13 11 0 14 -5 10 -16 -3 -9 -6
-18 -6 -20 0 -2 -9 -4 -21 -4 -30 0 -61 -20 -56 -35 4 -10 -7 -12 -46 -11 -54
2 -81 11 -72 26 6 10 -31 18 -70 15 -16 -2 -30 -4 -30 -5 0 -1 -8 -3 -18 -5
-13 -2 -17 1 -13 12 6 14 4 14 -11 2 -10 -8 -23 -20 -29 -28 -8 -10 -22 -12
-52 -8 -27 5 -42 3 -44 -5 -3 -7 -11 -9 -24 -4 -17 7 -16 9 11 20 17 7 35 11
41 9 6 -2 17 3 24 12 7 8 18 15 26 15 7 0 16 9 19 20 8 26 70 29 79 3 8 -20
25 -6 31 25 2 12 7 27 10 32 3 6 -4 14 -17 19 -24 10 -21 12 27 14 34 2 50 36
18 38 -11 0 -13 3 -5 6 7 3 18 1 25 -5 23 -18 47 -22 47 -8 0 8 -10 17 -22 21
-62 21 -64 23 -33 24 17 1 41 -6 53 -15 21 -14 25 -14 50 3 15 10 43 26 62 35
37 17 38 20 18 42 -16 17 -40 2 -31 -20 8 -20 -15 -17 -44 6 -14 11 -38 20
-54 20 -15 0 -30 4 -33 8 -3 5 14 8 37 8 39 -1 42 1 53 34 10 30 16 35 39 32
23 -3 27 0 23 16 -7 24 26 45 54 36 14 -4 18 -3 13 6 -10 17 -74 3 -94 -20 -9
-10 -32 -21 -51 -24 -26 -4 -30 -4 -15 3 17 8 15 10 -12 10 -18 1 -33 -3 -33
-9 0 -5 -5 -10 -12 -10 -9 0 -9 3 0 12 18 18 15 51 -4 44 -9 -3 -18 -6 -20 -6
-3 0 -2 -4 1 -10 3 -5 -1 -10 -10 -10 -11 0 -14 6 -9 25 5 20 2 25 -12 25 -16
1 -15 3 6 16 l25 15 -32 -4 c-23 -2 -33 1 -33 10 0 8 -7 16 -16 20 -12 4 -13
7 -3 14 8 4 11 11 7 14 -3 3 -13 -1 -22 -10 -9 -9 -19 -14 -24 -11 -4 2 -14 1
-22 -5 -13 -7 -13 -9 0 -10 8 -1 24 -1 35 0 26 2 74 -62 50 -67 -13 -3 -13 -5
-1 -18 9 -8 13 -25 10 -41 -7 -35 -9 -37 -31 -28 -16 7 -16 9 -2 12 18 4 23
53 6 53 -25 0 -77 -25 -77 -37 0 -10 -9 -12 -32 -8 -116 19 -211 25 -224 14
-8 -7 -18 -9 -21 -5 -4 4 -1 11 6 16 11 6 10 9 -5 12 -10 2 29 3 87 2 99 -1
106 0 102 17 -6 23 -7 23 -43 4 -19 -10 -31 -11 -35 -4 -5 7 -11 6 -21 -2 -8
-6 -14 -7 -14 -2 0 11 -31 13 -88 7 -37 -5 -43 -8 -39 -25 3 -10 0 -19 -5 -19
-7 0 -6 -5 1 -14 9 -11 7 -15 -11 -21 -13 -4 -27 -6 -32 -6 -5 1 -6 -7 -3 -19
6 -23 -7 -26 -46 -7 -15 6 -25 17 -23 23 2 6 -7 9 -25 6 -16 -2 -36 1 -44 8
-9 7 -19 10 -22 6 -4 -4 -1 -12 7 -17 12 -8 10 -9 -6 -4 -14 4 -24 0 -28 -10
-7 -19 -36 -20 -36 -1 0 8 -7 16 -15 20 -8 3 -15 15 -15 26 0 11 -4 20 -9 20
-5 0 -7 -9 -4 -20 3 -11 0 -20 -6 -20 -23 0 -10 39 20 58 19 12 27 22 20 26
-6 4 -11 2 -11 -5 0 -7 -10 -9 -26 -6 -18 3 -24 1 -20 -9 3 -7 0 -16 -6 -20
-19 -12 -87 -14 -94 -2 -4 6 -3 8 4 4 6 -3 13 -2 17 4 8 13 -3 13 -56 -3 -24
-8 -49 -12 -56 -10 -18 6 -25 -14 -12 -35 8 -13 20 -17 41 -14 24 4 28 8 22
26 -6 17 -4 19 7 9 8 -6 29 -9 47 -7 21 2 32 -1 32 -9 0 -6 16 -25 35 -42 19
-16 46 -39 59 -50 36 -31 85 -57 96 -50 6 3 7 -1 4 -9 -7 -18 -49 -12 -75 10
-9 8 -19 11 -24 7 -4 -5 -5 -3 -1 4 4 8 -1 11 -14 10 -25 -2 -45 -53 -29 -73
6 -8 8 -14 3 -15 -34 -3 -62 -8 -81 -14 -15 -5 -23 -3 -23 4 0 6 12 12 28 12
16 1 20 3 10 6 -20 5 -22 12 -9 32 5 8 16 11 25 8 8 -3 18 -2 21 2 2 5 -6 12
-20 15 -26 7 -32 20 -15 31 16 10 12 38 -4 32 -8 -3 -16 -1 -18 5 -3 7 -15 7
-42 0 -30 -9 -46 -8 -81 6 -24 9 -44 20 -44 25 -1 4 -3 7 -6 7 -3 0 -9 0 -14
0 -5 0 -7 -13 -5 -29 4 -22 0 -32 -15 -40 -28 -16 -39 -13 -17 4 19 14 18 15
-5 23 -13 5 -30 7 -36 5 -7 -3 -13 2 -13 10 0 19 38 47 63 47 13 0 17 5 13 15
-7 18 15 20 32 3 9 -9 12 -8 12 5 0 9 -9 21 -21 27 -16 9 -24 8 -38 -4 -16
-15 -19 -15 -31 -1 -15 18 -86 20 -94 3 -3 -7 -3 -1 0 13 5 24 3 26 -20 22
-23 -5 -25 -9 -24 -54 1 -46 4 -51 33 -65 18 -8 38 -14 46 -12 8 2 13 -3 11
-11 -4 -18 18 -71 29 -71 5 0 9 5 9 10 0 16 27 12 34 -5 3 -8 1 -15 -4 -15 -6
0 -10 -4 -10 -10 0 -14 38 -12 43 3 2 6 8 9 12 5 14 -13 -6 -27 -49 -33 -37
-6 -48 -3 -65 14 -12 12 -25 21 -31 21 -6 0 -6 9 0 26 13 33 13 47 -1 42 -13
-4 -69 48 -69 63 0 6 -10 7 -22 4 -20 -6 -21 -5 -7 6 11 10 14 21 9 39 -5 16
-8 19 -9 8 -1 -12 -9 -18 -27 -18 -14 0 -23 -4 -19 -10 3 -6 -1 -17 -9 -26
-21 -21 -20 -38 1 -29 21 9 75 14 68 7 -3 -3 0 -11 6 -19 6 -7 8 -13 3 -14
-34 -3 -51 -11 -63 -28 -7 -12 -19 -21 -26 -21 -8 0 -11 -8 -8 -20 4 -16 0
-20 -20 -20 -14 0 -29 5 -32 10 -3 6 2 10 12 10 14 0 12 3 -7 13 -17 9 -27 10
-32 3 -12 -18 -9 -26 18 -51 19 -18 38 -25 65 -25 32 0 39 -3 39 -20 0 -24 -2
-24 -103 -6 -81 14 -167 52 -167 73 0 7 -7 10 -15 7 -18 -7 -20 -41 -2 -47 9
-3 8 -9 -4 -21 -20 -21 -47 -11 -60 20 -4 13 -14 24 -21 24 -10 0 -10 -3 1 -9
11 -7 9 -10 -8 -16 -30 -9 -26 -22 8 -30 32 -7 91 -60 91 -82 0 -16 47 -36 67
-29 7 3 10 13 7 23 -5 17 -5 17 9 1 11 -14 30 -18 90 -18 51 0 77 4 80 13 4
10 6 10 6 0 1 -19 48 -15 61 5 11 16 11 16 6 -1 -5 -17 2 -18 112 -16 64 1
123 7 129 12 7 5 18 7 25 4 7 -2 47 -1 88 2 54 5 78 4 85 -5 6 -8 17 -9 30 -4
19 8 19 9 -2 9 -30 1 -29 25 0 48 13 10 24 23 25 28 1 6 22 11 48 13 l46 3 -7
-40 c-8 -48 9 -57 26 -13 6 15 15 34 20 43 6 13 3 18 -12 22 -27 7 -25 37 4
36 12 -1 36 1 54 5 18 3 35 2 38 -4 3 -5 12 -10 18 -10 7 0 6 4 -3 10 -13 8
-12 10 2 10 12 0 17 -7 15 -22 -1 -17 4 -24 21 -26 12 -2 20 -8 17 -13 -4 -5
-1 -9 6 -9 11 0 9 -26 -6 -65 -5 -11 -5 -17 0 -13 4 4 16 3 26 -3 25 -13 26 9
2 27 -17 13 -17 13 -1 14 10 0 25 -11 34 -25 9 -14 25 -25 35 -25 10 0 20 -4
24 -9 6 -10 8 -10 93 -11 28 -1 52 -3 52 -5 0 -15 -68 -35 -120 -35 -51 0 -60
-3 -60 -18 0 -10 -5 -23 -12 -30 -9 -9 -9 -15 -1 -23 15 -15 -1 -77 -24 -94
-10 -8 -29 -14 -43 -14 -17 1 -19 3 -7 6 21 5 23 23 2 23 -21 0 -19 10 7 37
21 23 21 23 2 44 l-19 22 30 -7 c29 -7 29 -7 11 13 -10 11 -15 25 -11 30 3 6
1 11 -4 11 -6 0 -11 -4 -11 -10 0 -5 -14 -10 -31 -10 -28 0 -56 -17 -62 -37
-1 -4 -8 -7 -14 -7 -7 1 -13 -4 -13 -12 0 -8 5 -14 10 -14 6 0 10 -4 10 -10 0
-10 -62 -9 -70 1 -3 4 -19 10 -36 13 -39 9 -52 -15 -29 -50 19 -29 20 -45 1
-19 -12 16 -16 17 -29 6 -14 -11 -15 -8 -10 26 5 35 4 37 -10 19 -13 -17 -16
-18 -30 -5 -34 31 -47 39 -57 39 -5 0 -10 5 -10 10 0 6 7 10 15 10 8 0 15 5
15 10 0 13 -7 12 -55 -4 -21 -8 -41 -19 -43 -25 -2 -6 -10 -11 -18 -11 -26 0
-14 17 26 36 22 10 40 22 40 26 0 10 -60 7 -66 -4 -3 -4 -13 -4 -23 1 -10 6
-143 8 -311 6 -239 -2 -296 0 -308 11 -7 8 -28 14 -45 14 -22 0 -28 3 -18 9
22 14 -34 81 -68 80 -17 0 -21 -3 -11 -7 27 -13 60 -37 60 -44 0 -14 -23 -9
-42 9 -19 17 -26 5 -7 -14 15 -15 1 -36 -18 -29 -8 3 -11 1 -8 -4 12 -19 -12
-10 -32 13 -29 30 -32 66 -8 93 18 20 20 21 33 5 12 -14 12 -14 7 6 -3 12 -1
24 5 28 31 19 -18 44 -81 40 -24 -1 -29 0 -11 2 20 3 32 9 29 16 -2 7 -12 11
-22 9 -10 -2 -14 1 -10 7 10 17 43 13 53 -6 6 -10 16 -14 26 -10 10 4 15 3 11
-3 -3 -6 3 -10 14 -10 12 0 21 7 21 15 0 9 9 15 24 15 28 0 42 15 25 26 -8 4
-7 9 2 15 7 4 10 11 6 15 -3 4 -14 -2 -24 -14 -10 -11 -30 -23 -46 -26 -21 -5
-27 -3 -27 11 0 15 -2 15 -9 4 -8 -12 -18 -12 -67 2 -33 9 -62 13 -67 8 -5 -5
-26 -4 -47 1 -32 8 -39 15 -42 37 -2 17 -9 26 -19 25 -24 -2 -12 33 13 39 13
4 29 -3 43 -18 25 -24 38 -23 28 2 -4 11 -1 14 8 11 8 -2 15 -13 17 -24 5 -32
48 -57 79 -47 38 13 38 26 1 42 -40 17 -50 31 -37 47 7 9 4 16 -10 24 -16 8
-21 8 -21 -2 0 -9 -3 -9 -12 0 -9 9 -15 7 -25 -6 -13 -15 -14 -14 -9 14 4 28
2 32 -19 32 -16 0 -25 -8 -29 -24 -4 -13 -13 -24 -21 -24 -8 0 -15 -4 -15 -10
0 -19 -32 -10 -37 10 -3 10 -14 22 -24 25 -23 8 -59 -11 -59 -30 0 -20 -20
-29 -33 -16 -8 8 -8 11 0 11 6 0 14 7 17 16 4 12 -1 10 -23 -5 -34 -25 -54
-26 -71 -7 -6 8 -19 12 -27 9 -11 -5 -14 -3 -9 6 5 7 17 11 27 8 10 -3 22 -1
25 4 3 6 14 7 24 4 11 -3 30 -1 42 6 l23 13 -25 7 c-18 5 -8 7 33 8 44 1 57 5
57 16 0 11 -11 15 -36 15 -21 0 -33 4 -29 10 3 6 0 13 -9 16 -9 3 -12 12 -9
22 5 14 3 15 -8 5 -7 -7 -30 -13 -51 -13 -21 0 -38 -4 -38 -10 0 -14 -22 -12
-56 4 -33 16 -100 15 -97 -1 1 -6 -4 -17 -12 -23 -12 -10 -16 -9 -21 4 -9 23
-34 20 -34 -4 0 -14 9 -21 33 -25 21 -4 36 -15 44 -31 12 -25 12 -25 -12 -10
-35 23 -65 21 -65 -4 0 -18 3 -19 21 -10 23 13 41 4 20 -9 -7 -5 -10 -14 -7
-20 9 -14 43 -14 52 0 4 8 9 7 15 -2 14 -22 10 -31 -9 -25 -10 4 -36 0 -56 -7
l-38 -13 32 -27 c23 -20 43 -27 72 -27 35 0 39 -2 28 -15 -7 -9 -20 -13 -29
-11 -9 3 -35 7 -58 11 l-43 7 1 -60 c1 -47 4 -59 15 -55 8 3 14 -1 14 -9 0
-11 10 -14 40 -11 24 2 40 0 40 -7 0 -5 -8 -10 -17 -10 -10 0 -27 -3 -39 -6
-13 -3 -28 1 -38 11 -15 15 -16 9 -16 -89 0 -86 3 -106 14 -106 8 0 17 -4 20
-9 4 -5 -3 -7 -14 -4 -15 4 -20 0 -20 -15 0 -15 10 -22 45 -31 25 -6 45 -16
45 -22 0 -8 -4 -8 -12 -1 -7 5 -28 12 -45 14 l-33 5 0 -59 c0 -51 2 -58 20
-58 11 0 20 -4 20 -10 0 -5 -9 -10 -19 -10 -16 0 -19 -7 -19 -45 0 -28 4 -44
11 -42 7 1 11 -8 9 -23 -4 -21 -2 -22 12 -11 9 7 16 23 16 34 0 19 4 19 67 14
71 -7 141 -44 151 -79 2 -10 8 -18 13 -18 5 0 16 -17 24 -37 15 -35 15 -39 -2
-51 -9 -7 -18 -22 -18 -34 0 -15 -8 -24 -25 -28 -15 -4 -20 -9 -13 -13 14 -9
47 4 97 38 39 26 39 26 25 3 -21 -31 -108 -73 -128 -61 -14 9 -22 73 -8 73 4
0 7 5 7 10 0 19 -27 10 -55 -20 -29 -30 -68 -39 -80 -20 -5 8 -11 7 -20 0 -17
-14 -38 -3 -31 16 3 8 1 14 -3 14 -5 0 -11 -7 -15 -15 -3 -8 -12 -12 -21 -9
-11 5 -15 0 -15 -19 0 -14 6 -28 13 -30 10 -4 10 -6 0 -6 -10 -1 -13 -38 -13
-151 l0 -150 25 16 c37 24 42 10 6 -16 -30 -21 -31 -24 -31 -96 0 -41 4 -73 9
-71 5 1 16 -6 23 -15 7 -10 32 -20 55 -24 35 -5 44 -3 49 10 11 29 -21 53 -71
52 -30 -1 -45 3 -45 12 0 6 4 12 9 12 5 0 13 10 16 23 4 12 18 34 31 48 14 14
28 45 32 70 7 38 12 46 42 57 23 8 61 10 110 7 82 -7 116 -24 178 -90 40 -42
80 -46 113 -12 13 13 20 16 17 7 -3 -8 3 -26 13 -39 26 -33 24 -57 -6 -77 -22
-14 -41 -16 -118 -10 -109 8 -102 9 -151 -1 -44 -9 -68 -35 -49 -54 9 -9 23
-8 56 4 44 15 63 14 133 -8 11 -4 49 4 88 19 63 24 116 33 116 21 0 -3 -12
-31 -26 -63 -31 -70 -88 -112 -151 -112 -21 0 -44 -5 -51 -12 -9 -9 -15 -9
-24 0 -9 9 -7 13 5 18 29 11 9 22 -34 18 -23 -2 -60 1 -83 7 -22 6 -57 13 -76
15 -19 1 -60 12 -90 23 -30 12 -69 21 -87 21 l-33 0 0 -935 0 -935 252 2 252
3 11 39 c7 22 16 41 22 43 17 6 68 -50 65 -69 -3 -17 59 -18 1180 -18 l1184 0
9 33 c7 23 21 37 51 52 71 35 104 47 116 43 7 -3 17 -31 23 -64 l10 -59 552
-3 c550 -2 551 -2 546 18 -5 19 -11 20 -88 14 l-82 -6 -5 31 c-3 21 0 31 9 31
7 0 13 7 13 15 0 8 6 15 13 16 79 4 140 0 145 -8 11 -16 49 -33 74 -32 19 0
20 2 6 7 -15 6 -13 9 12 20 17 8 30 19 30 26 0 13 69 50 78 41 3 -3 14 3 25
12 11 10 27 18 36 18 9 1 53 4 99 9 79 8 85 7 108 -15 31 -29 31 -69 -1 -99
-29 -27 -52 -31 -174 -30 -81 1 -93 -1 -88 -14 11 -27 -3 -46 -32 -45 -23 2
-24 2 -3 6 14 3 22 12 22 24 0 23 -15 25 -24 4 -3 -8 -11 -14 -18 -13 -7 2
-13 -4 -13 -12 0 -13 98 -15 813 -18 718 -2 812 0 812 13 0 8 9 15 19 15 11 0
21 5 23 12 6 18 59 0 65 -22 5 -19 21 -19 529 -20 l524 0 0 1315 c0 1015 -3
1321 -13 1342 -9 21 -9 27 1 31 19 6 16 112 -3 112 -8 0 -15 4 -15 10 0 5 7 7
15 4 12 -5 15 5 15 59 0 63 -1 64 -25 60 -31 -7 -105 62 -102 95 1 12 5 22 9
22 4 0 14 14 23 30 9 17 22 30 30 30 17 0 20 -16 5 -25 -14 -9 -12 -25 3 -25
6 0 18 4 26 9 12 8 12 12 2 25 -8 9 -10 16 -5 16 5 0 15 4 23 9 12 8 12 12 2
24 -8 10 -9 17 -1 22 5 3 10 19 10 34 0 29 -12 38 -79 56 -16 5 -20 10 -12 18
8 8 6 16 -6 29 -15 17 -15 18 9 18 20 0 29 -7 37 -30 10 -30 35 -40 43 -17 3
6 6 65 7 130 1 112 0 118 -18 112 -19 -6 -51 17 -51 36 0 6 -7 3 -16 -5 -8 -9
-21 -14 -27 -10 -7 3 -3 -2 7 -10 11 -9 28 -16 38 -16 10 0 18 -4 18 -10 0 -5
9 -10 21 -10 32 0 20 -34 -14 -38 -27 -3 -38 12 -14 21 6 3 3 6 -8 7 -38 3
-80 35 -77 58 2 16 -1 20 -12 16 -9 -3 -16 -1 -16 5 0 6 -6 8 -14 5 -7 -3 -23
7 -35 22 -11 15 -21 22 -21 17 0 -6 9 -20 20 -33 24 -27 25 -40 5 -40 -8 0
-15 -4 -15 -10 0 -5 8 -10 18 -10 10 0 23 -5 30 -12 9 -9 12 -9 12 -1 0 7 -4
15 -10 18 -13 8 -13 35 1 35 5 0 8 -4 4 -10 -3 -5 3 -18 15 -30 25 -25 25 -36
0 -43 -14 -4 -20 -14 -20 -32 0 -23 -3 -26 -22 -21 -13 3 -29 6 -37 6 -8 0
-11 6 -7 16 5 12 1 14 -15 9 -15 -5 -19 -4 -15 4 9 14 -12 36 -42 45 -23 8
-32 -8 -9 -17 6 -3 1 -6 -13 -6 -20 -1 -22 -3 -10 -11 13 -8 12 -10 -3 -10
-10 0 -17 -6 -16 -12 3 -25 -1 -38 -12 -38 -5 0 -9 10 -7 22 3 25 -26 38 -45
19 -8 -8 -5 -11 11 -11 12 0 22 -5 22 -11 0 -7 -9 -9 -22 -5 -13 3 -33 6 -44
6 -29 0 -38 27 -18 57 l16 25 -31 -23 c-17 -12 -28 -25 -26 -28 2 -4 -8 -8
-21 -9 -15 -1 -23 2 -19 8 4 7 -24 10 -82 9 -48 0 -98 3 -110 6 -14 5 -23 3
-23 -3 0 -6 8 -13 18 -15 13 -4 12 -5 -5 -6 -13 -1 -24 6 -28 18 -7 22 -32 18
-52 -8 -8 -11 -12 -12 -13 -3 0 7 -13 12 -32 12 -31 -1 -32 -1 -14 -15 11 -8
29 -38 41 -66 26 -60 58 -81 95 -62 30 15 60 17 60 3 0 -5 -8 -10 -17 -10 -10
0 -25 -5 -33 -11 -13 -9 -12 -10 3 -5 29 9 18 -45 -11 -60 -13 -6 -24 -15 -25
-19 -3 -13 146 -49 186 -45 12 1 63 -28 76 -44 18 -21 8 -20 -39 4 -44 23
-104 27 -98 8 3 -7 16 -13 30 -14 34 -1 48 -11 48 -34 0 -10 5 -22 10 -25 14
-9 3 -24 -18 -24 -9 0 -30 -2 -47 -5 -16 -3 -55 -8 -85 -12 -30 -3 -59 -10
-64 -15 -6 -5 -19 6 -33 26 -13 19 -31 35 -39 35 -8 0 -12 5 -9 10 3 6 2 10
-4 10 -5 0 -11 -4 -13 -9 -5 -15 -83 -18 -80 -3 1 6 -2 12 -8 12 -5 0 -10 -4
-10 -10 0 -5 -12 -10 -26 -10 -18 0 -25 4 -21 14 3 7 0 19 -6 25 -6 6 -8 13
-5 17 4 3 16 -4 27 -15 17 -17 26 -19 41 -11 13 7 27 6 46 -2 22 -10 28 -10
32 0 2 6 12 12 21 12 10 0 26 10 37 21 10 12 32 30 47 39 l28 17 -48 13 c-59
16 -123 48 -141 69 -8 9 -10 10 -6 2 5 -11 2 -13 -14 -9 -31 8 -27 1 11 -22
41 -25 31 -25 -27 0 -25 10 -46 15 -46 10 0 -15 -27 -12 -33 3 -11 29 8 93 31
102 12 4 25 -4 43 -25 22 -25 28 -28 38 -17 8 11 8 22 -4 48 -8 19 -14 29 -15
22 0 -20 -30 -2 -30 18 0 11 -7 19 -16 19 -8 0 -12 5 -8 11 4 7 10 7 16 1 11
-11 48 -4 48 9 0 5 8 10 18 10 55 4 -77 18 -148 16 -84 -2 -85 -2 -98 -32 -12
-30 -12 -30 -7 -2 5 27 5 27 -45 27 -27 0 -50 -4 -50 -10 0 -5 9 -10 20 -10
16 0 20 -7 20 -36 0 -20 4 -33 10 -29 6 3 7 -1 4 -9 -8 -21 -24 -10 -24 16 0
17 -2 18 -15 8 -12 -10 -25 -10 -63 1 -42 12 -44 14 -22 19 l25 6 -23 13 c-23
12 -47 7 -37 -10 4 -5 -1 -9 -9 -9 -11 0 -16 9 -16 26 0 19 -4 25 -15 20 -13
-4 -14 -2 -5 14 12 22 1 27 -18 8 -6 -6 -15 -9 -19 -5 -3 4 2 13 12 21 20 14
5 33 -17 20 -7 -4 2 7 20 24 35 34 41 47 15 33 -49 -25 -102 -40 -136 -39
l-37 2 31 19 c21 14 27 22 18 27 -13 9 -79 -46 -79 -66 0 -7 -6 -14 -12 -17
-28 -10 0 -15 40 -7 44 8 55 -1 25 -20 -17 -11 -17 -11 -1 -6 23 7 31 -9 13
-24 -8 -7 -15 -8 -15 -4 0 5 -16 14 -36 20 -29 9 -34 9 -30 -2 7 -17 -6 -18
-22 -2 -9 9 -12 9 -12 0 0 -7 7 -15 15 -18 8 -4 15 -15 15 -26 0 -14 -4 -17
-16 -10 -23 13 -66 3 -60 -14 3 -8 0 -11 -10 -7 -11 4 -12 9 -3 19 9 11 8 18
-1 29 -10 12 -10 15 4 15 21 0 20 9 -1 27 -16 13 -16 14 -1 9 14 -4 28 11 28
30 0 13 -31 1 -44 -17 -9 -13 -21 -19 -30 -16 -21 8 -51 -33 -33 -45 7 -5 0
-8 -18 -8 -21 0 -26 3 -16 9 7 5 10 14 7 20 -4 6 0 11 8 11 9 0 16 5 16 10 0
6 -16 10 -35 10 -19 0 -35 5 -35 10 0 6 0 13 -1 18 -1 13 -43 31 -73 32 -23 0
-26 -3 -17 -14 7 -8 21 -12 34 -9 18 5 20 3 10 -7 -10 -11 -18 -11 -38 -2 -14
6 -25 16 -25 22 0 5 -7 10 -15 10 -20 0 -19 -6 5 -30 14 -14 33 -20 64 -20 39
0 45 -3 56 -29 7 -17 10 -36 7 -43 -3 -7 -6 -2 -6 11 -1 16 -5 21 -16 17 -8
-3 -14 -1 -12 5 1 7 -25 12 -65 14 -73 4 -92 -8 -32 -20 42 -7 35 -20 -16 -29
-29 -6 -32 -5 -17 5 18 10 17 12 -12 30 -44 26 -55 24 -47 -8 4 -16 8 -32 9
-38 1 -5 -2 -11 -7 -12 -5 -1 -12 -7 -17 -14 -4 -8 -11 -10 -16 -6 -4 4 -2 17
5 28 9 14 10 24 2 37 -10 15 -10 15 -6 -3 5 -18 0 -20 -54 -23 -35 -1 -60 2
-60 8 0 5 -19 9 -42 9 -24 -1 -33 -4 -20 -6 13 -3 22 -12 22 -23 0 -11 5 -17
13 -15 17 7 41 -11 33 -24 -4 -6 -14 -11 -22 -11 -8 0 -14 -4 -14 -10 0 -5 6
-10 14 -10 8 0 16 -7 20 -15 3 -8 13 -15 21 -15 9 0 13 -4 10 -10 -3 -5 5 -21
19 -35 15 -14 26 -31 26 -38 0 -7 6 -5 14 5 7 10 16 15 20 11 18 -18 106 -3
106 19 0 4 7 8 15 8 8 0 15 7 15 15 0 8 3 15 8 16 4 0 18 2 30 3 13 2 30 -4
38 -12 19 -19 31 -7 14 13 -7 9 -10 18 -8 21 9 8 54 -38 62 -62 4 -13 18 -24
35 -27 16 -3 36 -13 44 -22 12 -12 22 -13 42 -5 34 13 95 13 95 0 0 -5 5 -10
10 -10 6 0 10 7 10 16 0 11 5 14 16 10 12 -4 15 -2 11 9 -4 8 -2 17 4 21 5 3
7 15 4 27 -2 12 -2 16 1 9 5 -10 9 -10 20 -1 22 18 16 32 -11 27 -19 -4 -25
-1 -25 13 0 9 -6 20 -12 23 -7 3 1 3 17 -1 17 -3 34 -9 38 -13 10 -9 47 -1 47
10 0 5 -8 11 -17 14 -10 3 -4 4 13 3 23 -2 31 1 29 12 -1 9 0 10 2 4 3 -7 10
-13 16 -13 7 0 3 -7 -7 -15 -20 -15 -20 -15 0 -15 23 0 51 -16 43 -25 -4 -3
-18 -1 -33 4 -21 9 -26 8 -26 -5 0 -10 6 -14 14 -11 10 4 13 -2 12 -24 -2 -34
8 -38 26 -9 7 11 16 20 19 20 11 0 17 -37 8 -51 -7 -11 -9 -10 -9 4 0 37 -26
10 -44 -45 -3 -10 -13 -18 -21 -18 -19 0 -45 23 -45 39 0 14 -17 14 -25 1 -3
-5 -16 -10 -28 -10 -21 0 -21 0 2 -17 13 -9 43 -26 65 -37 37 -19 45 -19 70
-8 15 8 31 11 34 7 4 -4 1 -10 -6 -12 -7 -3 -25 -15 -40 -28 -29 -24 -57 -20
-57 7 0 17 -27 15 -93 -5 l-53 -16 3 26 c2 17 -4 29 -17 37 -11 6 -24 17 -28
24 -4 6 -13 12 -18 12 -6 0 -9 -6 -6 -12 2 -7 0 -21 -5 -31 -6 -12 -5 -23 3
-33 9 -11 9 -17 0 -28 -13 -16 0 -19 144 -31 68 -6 83 -10 73 -20 -10 -10 -88
-13 -88 -3 0 5 -5 6 -10 3 -17 -10 -150 -12 -150 -2 0 4 -13 7 -29 5 -37 -3
-79 32 -76 65 3 28 -13 59 -26 52 -5 -4 -9 1 -9 9 0 9 -5 16 -11 16 -8 0 -8 4
0 14 16 19 -4 32 -24 16 -8 -6 -22 -10 -32 -7 -13 3 -11 5 6 6 15 1 21 5 15
10 -5 5 -24 7 -41 4 -31 -5 -37 -13 -36 -50 1 -7 -3 -13 -9 -13 -5 0 -7 -4 -4
-8 2 -4 1 -14 -4 -22 -7 -11 -15 -7 -40 20 -20 23 -33 31 -37 23 -7 -18 -38
-16 -53 2 -7 8 -19 15 -26 15 -17 0 -18 17 -1 23 7 3 -7 22 -35 48 -27 25 -48
49 -48 54 0 6 -10 19 -21 29 -16 13 -27 16 -42 9 -13 -6 -41 -6 -70 -1 -27 5
-51 7 -54 4 -9 -9 46 -26 62 -20 18 7 75 -14 75 -28 0 -5 23 -23 50 -40 28
-17 50 -35 50 -39 0 -13 -39 -31 -58 -26 -12 3 -9 6 11 11 32 10 36 29 5 24
-16 -2 -23 2 -22 12 1 10 -8 16 -20 17 -12 1 -15 -1 -8 -4 10 -4 10 -8 1 -19
-18 -22 -30 -16 -23 11 4 18 1 27 -10 31 -9 3 -14 10 -11 14 6 10 -26 23 -34
14 -3 -4 0 -9 7 -11 25 -9 11 -19 -30 -20 -24 -1 -44 -7 -46 -13 -2 -5 -9 -10
-15 -10 -8 0 -7 4 1 12 15 15 16 32 2 23 -5 -3 -10 -1 -10 4 0 6 -4 11 -9 11
-5 0 -7 -10 -4 -22 5 -19 0 -17 -30 15 -20 20 -41 37 -47 37 -6 0 -8 5 -4 11
4 7 1 10 -7 7 -8 -3 -24 -1 -36 3 -20 7 -23 5 -23 -14 l0 -22 -18 23 c-20 25
-32 20 -32 -13 0 -12 -9 -30 -20 -40 -18 -16 -21 -17 -44 -1 -14 9 -32 16 -41
16 -8 0 -15 7 -15 15 0 17 -16 20 -25 5 -9 -14 12 -48 40 -62 21 -12 22 -15 9
-32 -11 -15 -14 -16 -14 -5 0 16 -39 39 -65 39 -18 0 -19 14 -3 39 9 15 8 22
-5 36 -14 13 -30 16 -77 12 -71 -5 -92 5 -45 22 42 15 44 24 10 39 -24 11 -25
10 -19 -13 4 -16 2 -25 -6 -25 -6 0 -9 4 -6 8 10 16 -14 37 -44 38 -37 1 -41
-23 -10 -66 l20 -28 -26 -21 c-17 -14 -34 -19 -47 -15 -11 4 -23 1 -29 -7 -5
-9 -6 -4 -2 15 6 26 5 27 -15 17 -17 -10 -21 -9 -21 4 0 9 -7 18 -15 21 -8 4
-15 17 -15 30 0 20 -4 23 -35 21 -19 -2 -44 -10 -55 -20 -18 -15 -21 -15 -26
-2 -3 8 -10 12 -15 9 -5 -3 -7 -9 -4 -14 3 -4 -9 -10 -25 -12 -20 -3 -30 0
-30 9 0 7 5 12 11 11 6 -2 14 3 17 11 2 8 0 11 -6 7 -6 -3 -13 -2 -17 4 -4 6
7 13 25 16 48 10 29 29 -26 27 -55 -3 -44 11 19 22 29 6 37 4 37 -8 0 -8 9
-25 20 -38 19 -23 21 -23 34 -6 7 9 25 17 40 17 32 0 34 13 2 28 -17 7 -27 7
-35 -1 -7 -7 -11 -7 -11 0 0 12 -96 64 -104 56 -3 -4 -2 -11 4 -18 6 -8 -1
-10 -25 -7 -42 5 -44 15 -9 31 15 6 24 14 21 17 -3 3 -12 2 -19 -2 -7 -5 -21
-7 -32 -5 -11 1 -16 -2 -12 -8 11 -17 -5 -13 -26 6 -16 14 -18 15 -18 0 0 -9
5 -19 10 -22 6 -3 10 -13 10 -21 0 -8 -3 -13 -7 -11 -5 3 -9 -18 -10 -46 -2
-46 0 -53 32 -80 28 -24 33 -33 25 -48 -7 -13 -6 -20 4 -26 8 -4 15 -11 15
-15 1 -5 9 -24 18 -43 16 -33 18 -34 25 -16 6 17 16 21 48 21 22 0 40 5 40 11
0 5 -8 9 -17 8 -10 -1 -28 -1 -41 0 -20 1 -21 4 -12 21 13 25 5 40 -21 40 -28
0 -23 13 9 28 29 12 96 6 87 -8 -2 -4 -16 -5 -30 -2 -31 5 -31 -2 -2 -37 l22
-26 234 -1 c178 -1 235 -5 241 -14 5 -8 11 -32 15 -56 6 -40 8 -43 45 -49 22
-4 44 -3 51 0 16 10 149 14 149 5 0 -17 59 -47 98 -49 6 -1 12 -6 12 -12 0 -8
-12 -10 -34 -6 l-34 5 9 -31 c5 -18 9 -33 9 -34 0 -2 15 -10 33 -18 29 -13 29
-14 5 -9 -16 4 -28 2 -28 -4 0 -5 17 -13 38 -18 26 -5 31 -9 17 -12 -31 -7
-83 27 -90 59 -8 35 -21 38 -27 6 -3 -14 3 -33 14 -47 10 -12 18 -30 18 -40 0
-10 7 -21 16 -24 15 -6 15 -8 1 -24 -10 -11 -14 -26 -10 -41 7 -26 -9 -41 -47
-41 -18 0 -21 -3 -11 -9 21 -14 5 -27 -29 -25 -38 3 -48 10 -32 26 7 7 12 27
12 44 0 18 8 41 18 50 16 17 16 18 -1 11 -10 -4 -21 -7 -23 -7 -2 0 -4 -7 -4
-15 0 -9 -7 -18 -15 -21 -8 -4 -15 -14 -15 -24 0 -10 -6 -20 -12 -22 -17 -6
-68 24 -68 40 0 6 -9 12 -19 12 -20 0 -38 30 -18 30 7 1 -1 12 -18 25 l-29 24
22 21 c12 11 22 17 22 13 0 -4 6 1 13 12 10 12 22 16 40 13 19 -4 27 -1 27 9
0 10 -6 12 -19 8 -11 -3 -26 1 -36 12 -21 21 -45 25 -61 12 -17 -14 -103 -28
-110 -18 -3 5 7 9 22 9 22 0 25 2 14 15 -14 17 -37 20 -42 5 -2 -6 -14 -6 -33
-1 -28 9 -28 9 -5 10 29 1 55 42 37 60 -14 14 -40 14 -32 1 3 -5 2 -10 -4 -10
-5 0 -12 8 -14 18 -4 14 -6 14 -12 -5 -5 -17 -15 -23 -36 -23 -31 0 -36 -9
-17 -28 19 -19 0 -27 -70 -28 -54 -1 -68 -4 -70 -17 -4 -21 -9 -21 -28 -3 -19
20 -18 25 6 19 14 -4 21 1 26 21 3 14 2 34 -2 43 -6 14 -9 9 -12 -19 -4 -43
-8 -45 -32 -21 -15 16 -14 20 14 46 28 28 30 29 56 13 25 -14 29 -14 40 -1 11
13 8 15 -14 15 -14 0 -26 5 -26 10 0 6 -11 10 -25 10 -14 0 -25 5 -25 10 0 6
-9 10 -20 10 -24 0 -26 -17 -5 -40 14 -16 14 -17 -8 -13 -20 4 -27 -2 -41 -32
-13 -27 -21 -34 -30 -26 -15 12 -27 5 -20 -13 8 -21 -86 -55 -161 -58 -61 -3
-70 -1 -73 16 -3 16 1 17 37 11 34 -6 41 -4 41 9 0 9 -7 16 -16 16 -14 0 -14
3 -4 15 10 12 10 15 -2 15 -8 0 -23 18 -34 40 -10 21 -29 45 -41 51 -32 17
-29 30 6 23 45 -9 47 14 2 26 -21 5 -44 17 -51 24 -6 8 -18 12 -26 9 -10 -4
-14 3 -14 25 0 43 20 82 41 82 24 0 33 18 18 36 -8 10 -22 13 -45 8 -24 -4
-34 -2 -34 6 0 8 -9 10 -25 6 -14 -4 -25 -2 -25 4 0 5 7 10 16 10 8 0 13 4 10
8 -7 11 40 29 97 37 26 3 47 11 47 17 0 6 -18 7 -50 3 -33 -5 -55 -3 -65 5
-15 12 -85 4 -85 -11 0 -5 -10 -8 -22 -8 -19 1 -19 2 -5 6 10 3 16 11 13 18
-3 8 2 11 14 8 10 -3 20 0 24 5 4 6 27 5 63 -2 32 -6 73 -9 92 -6 39 6 55 30
21 30 -17 0 -21 4 -17 20 7 26 -3 25 -31 -1 -29 -27 -57 -21 -56 11 1 23 -11
39 -29 40 -5 0 -5 -5 -1 -12 13 -20 10 -66 -3 -61 -7 3 -13 13 -13 22 -1 14
-2 14 -15 -3 -13 -17 -14 -16 -13 12 1 21 8 34 24 43 13 7 22 14 19 17 -2 3 0
13 5 22 10 19 -4 30 -38 30 -13 0 -12 -3 4 -14z m3036 -240 c61 13 83 14 106
2 18 -9 25 -9 31 0 5 8 19 10 41 6 24 -5 36 -15 44 -35 7 -19 20 -30 38 -34
16 -4 28 -14 29 -23 1 -14 2 -14 5 -2 3 10 16 14 42 13 49 -2 49 -2 33 -12
-16 -10 -6 -31 15 -31 26 0 94 -34 94 -48 0 -26 -30 -23 -69 8 -22 18 -44 29
-49 26 -6 -3 -26 1 -46 9 -43 18 -113 20 -119 3 -2 -7 4 -23 14 -36 10 -13 15
-30 12 -38 -3 -8 0 -21 7 -29 8 -10 9 -15 2 -15 -6 0 -17 10 -23 22 -8 14 -14
18 -17 10 -5 -17 -19 -15 -27 6 -13 32 -15 62 -5 62 5 0 10 6 10 13 0 8 12 19
27 26 20 9 23 15 14 24 -9 9 -14 9 -20 -2 -5 -7 -13 -11 -17 -9 -5 3 -17 -3
-26 -13 -12 -12 -13 -19 -5 -23 9 -3 8 -7 -2 -15 -11 -7 -19 -5 -30 8 -9 10
-23 20 -31 24 -10 3 -7 6 8 6 14 1 22 6 19 14 -2 7 -16 11 -34 9 -17 -2 -34 1
-37 6 -3 6 2 8 13 5 15 -4 18 0 13 22 -6 33 -14 36 -81 27 -56 -7 -84 -32 -37
-32 29 0 76 -19 76 -32 0 -12 -34 -10 -47 3 -6 6 -19 9 -29 7 -22 -4 -54 54
-34 60 6 2 16 10 23 17 10 12 14 11 24 -2 9 -11 20 -13 45 -7z m-3279 -120 c5
-8 9 -8 15 1 4 6 16 13 27 15 14 2 21 -3 23 -19 2 -13 10 -23 17 -23 8 0 18
-8 24 -17 5 -10 13 -14 18 -10 4 5 -3 17 -15 28 -13 10 -22 24 -20 30 2 6 15
2 31 -11 15 -12 25 -26 21 -31 -3 -5 5 -14 18 -19 13 -5 30 -14 38 -19 8 -5
27 -13 41 -19 28 -11 47 -62 24 -62 -10 0 -35 -47 -35 -65 0 -1 21 -1 48 0 26
2 57 1 69 -2 24 -5 38 -32 25 -45 -14 -14 -324 -11 -333 3 -5 8 -8 8 -13 0 -4
-6 -20 -11 -37 -11 -16 0 -29 -4 -29 -10 0 -5 9 -10 20 -10 13 0 24 -10 30
-26 16 -42 39 -58 78 -56 30 3 33 1 22 -12 -10 -13 -8 -17 14 -26 32 -12 35
-25 4 -17 -13 4 -29 0 -40 -10 -17 -15 -17 -17 0 -29 15 -12 14 -13 -15 -14
-35 0 -41 8 -21 28 9 9 5 12 -21 12 -27 0 -34 5 -42 30 -6 16 -15 28 -21 27
-6 -1 -11 7 -13 18 -3 31 -16 67 -22 61 -4 -3 -12 2 -20 12 -13 15 -14 13 -9
-17 4 -19 14 -43 23 -53 24 -26 2 -48 -23 -23 -16 16 -18 16 -23 1 -5 -12 -12
-9 -36 18 -17 19 -29 39 -27 45 4 11 -25 20 -75 24 -18 1 -33 5 -33 9 0 10
123 -2 138 -14 18 -15 15 2 -5 24 -15 17 -14 18 46 18 67 0 66 -2 44 58 -3 6
2 12 10 12 21 0 38 25 31 44 -5 12 -10 14 -19 6 -10 -8 -15 -8 -20 0 -5 8 -11
8 -20 0 -9 -7 -16 -6 -26 7 -11 12 -11 17 -2 20 8 3 4 13 -12 31 -24 26 -25
42 -2 42 7 0 28 15 47 33 35 34 65 38 83 13z m-1039 -51 c8 -8 20 -15 26 -15
6 0 8 -4 5 -10 -3 -5 -2 -10 4 -10 6 0 15 9 21 19 8 16 19 19 71 17 47 -2 65
-7 76 -22 19 -27 11 -39 -29 -42 l-36 -3 15 -30 c8 -17 20 -28 27 -26 6 2 12
-6 12 -19 2 -20 -1 -21 -17 -11 -10 6 -19 16 -19 21 0 4 -9 6 -19 3 -18 -4
-42 14 -79 58 -8 9 -27 18 -43 22 -16 3 -26 9 -23 14 3 5 -3 9 -13 9 -10 0
-24 9 -31 20 -11 18 -10 20 12 20 14 0 31 -7 40 -15z m-1663 -102 c26 -18 52
-33 58 -33 7 0 11 -6 9 -14 -2 -8 6 -22 17 -31 19 -16 19 -16 -10 -10 -72 15
-208 35 -212 31 -2 -2 9 -10 25 -17 33 -14 33 -37 -1 -59 -25 -15 -94 -15
-113 1 -7 6 -19 9 -26 6 -8 -4 -5 -8 10 -12 12 -4 22 -12 22 -17 0 -6 -10 -7
-22 -3 -13 3 -30 8 -38 9 -8 2 -23 6 -32 11 -10 4 -26 0 -40 -9 -12 -9 -36
-16 -53 -16 -16 0 -25 4 -19 8 6 4 13 15 17 25 4 11 17 17 39 17 19 0 44 7 56
16 12 8 22 10 22 5 0 -26 21 -12 65 42 18 21 24 23 53 15 37 -10 57 -4 23 7
-24 7 -28 25 -7 25 7 0 20 7 27 16 12 15 11 16 -11 9 -14 -4 -22 -4 -18 0 10
11 79 22 98 17 8 -3 36 -20 61 -39z m5462 3 c44 -1 61 -5 68 -18 8 -14 6 -18
-6 -18 -8 0 -15 4 -15 9 0 17 -45 6 -48 -12 -3 -15 0 -18 17 -12 12 3 21 2 21
-3 0 -5 11 -12 24 -14 19 -4 25 0 29 18 2 13 -1 28 -6 33 -11 11 -2 16 46 24
15 2 27 0 27 -5 0 -5 7 -16 15 -24 8 -9 15 -24 15 -35 0 -12 7 -19 19 -19 11
0 23 -9 26 -20 4 -13 16 -21 33 -22 15 0 32 -2 37 -3 6 -2 39 -4 75 -5 62 -2
63 -3 25 -11 -22 -4 -52 -6 -67 -3 -21 4 -28 2 -28 -10 0 -9 -4 -16 -10 -16
-5 0 -10 7 -10 15 0 11 -11 15 -42 14 l-43 -1 35 -13 c19 -7 27 -14 18 -14 -9
-1 -20 -11 -23 -22 -4 -12 -10 -18 -14 -13 -3 5 -35 10 -71 11 -67 3 -140 29
-140 50 0 7 -7 10 -15 7 -9 -4 -15 0 -15 10 0 9 -6 16 -14 16 -13 0 -26 20
-26 41 0 5 7 9 16 9 10 0 5 9 -16 26 -19 17 -39 25 -53 22 -13 -3 -28 1 -34 8
-9 9 0 11 40 7 29 -3 78 -6 110 -7z m-1070 -82 c29 4 57 7 62 8 6 1 23 -2 38
-6 21 -5 27 -3 27 10 0 16 1 16 18 1 22 -20 58 -22 65 -4 4 9 8 9 14 1 4 -6
30 -12 57 -12 47 -1 82 -12 37 -12 -12 0 -19 -4 -16 -10 6 -10 -13 -15 -47
-12 -10 1 -18 -2 -18 -6 0 -4 -11 -8 -25 -8 -14 -1 -25 3 -25 8 0 7 -12 8 -32
3 -18 -4 -42 -8 -53 -9 -11 -1 -25 -4 -30 -8 -6 -4 -17 -3 -24 1 -7 5 -22 6
-32 4 -11 -3 -36 5 -57 20 -42 29 -88 45 -78 28 5 -7 1 -9 -8 -5 -9 3 -16 10
-16 14 0 15 34 16 63 2 20 -10 45 -12 80 -8z m-658 -45 c5 -5 0 -9 -13 -9 -31
0 -27 -18 6 -26 15 -4 33 -11 40 -17 8 -6 17 -5 27 3 8 7 15 11 16 9 10 -66 7
-80 -16 -91 -20 -9 -28 -8 -43 5 -22 20 -109 38 -143 31 -20 -5 -21 -4 -9 6
12 9 10 11 -12 7 -42 -6 -34 10 10 21 29 7 33 11 19 17 -22 9 -80 -14 -74 -29
5 -14 -30 -19 -38 -6 -8 13 55 47 103 55 23 4 40 11 36 16 -11 18 7 28 44 22
20 -3 41 -10 47 -14z m-1624 -29 c45 -13 97 -61 105 -97 10 -48 13 -53 36 -62
86 -33 113 -50 163 -99 30 -30 55 -59 55 -63 0 -5 9 -9 19 -9 14 0 18 -5 14
-19 -6 -24 42 -42 90 -34 44 7 77 -11 77 -41 0 -22 -4 -23 -67 -25 -51 -1 -91
6 -160 28 -50 16 -100 27 -111 24 -14 -3 -22 1 -27 16 -3 11 -19 30 -35 41
-17 12 -30 31 -32 48 -3 23 -8 28 -38 30 -19 2 -40 8 -46 13 -26 21 -33 -25
-7 -53 20 -23 9 -36 -17 -20 -30 19 -52 5 -45 -29 8 -33 -10 -40 -31 -11 -13
16 -14 16 -20 -5 -4 -15 -14 -23 -29 -23 -21 0 -23 4 -22 47 1 30 9 54 20 65
9 10 17 27 17 37 0 16 5 18 26 12 14 -3 43 -5 65 -3 33 3 44 11 62 38 12 19
28 34 35 34 7 0 11 4 7 10 -3 5 -12 7 -20 3 -11 -3 -13 -1 -9 10 9 23 -17 33
-32 12 -8 -10 -17 -15 -21 -11 -5 4 0 13 10 20 27 21 21 37 -10 30 -16 -4 -32
-11 -37 -15 -14 -13 -25 -11 -21 4 10 41 19 56 36 60 10 3 19 11 19 17 0 7 -8
10 -20 7 -11 -3 -20 -1 -20 3 0 5 -8 11 -17 13 -10 3 -13 5 -8 6 6 0 26 -4 46
-9z m-1801 -42 c9 1 35 -4 59 -13 53 -18 44 -19 71 5 30 26 44 25 35 -2 -3
-13 -7 -29 -7 -35 -1 -7 -5 -13 -10 -13 -4 0 -8 -10 -8 -23 0 -17 -6 -23 -26
-25 -22 -2 -25 0 -14 13 9 10 9 15 1 15 -6 0 -16 -9 -23 -20 -7 -11 -21 -20
-31 -20 -11 0 -17 -5 -14 -12 2 -9 24 -13 60 -13 32 0 57 -2 57 -6 0 -16 -32
-31 -57 -26 -69 14 -89 21 -96 33 -4 8 -17 14 -27 14 -13 0 -18 5 -14 15 4 10
-5 26 -22 42 -23 22 -26 28 -13 31 9 1 22 14 29 27 7 14 18 21 24 17 6 -3 18
-5 26 -4z m5944 -37 c15 -16 28 -19 78 -15 33 2 63 6 67 8 4 3 41 0 82 -6 71
-11 76 -14 127 -65 29 -29 62 -54 72 -54 11 -1 25 -2 32 -3 6 0 11 -18 11 -40
0 -34 -3 -41 -27 -49 -19 -6 -33 -5 -51 7 -13 9 -33 16 -45 16 -11 0 -20 5
-20 10 0 6 11 8 28 4 24 -6 25 -5 14 8 -12 16 -108 35 -118 25 -3 -3 8 -13 24
-23 18 -10 30 -25 30 -38 0 -38 9 -114 16 -124 6 -10 87 -8 125 4 17 5 22 4
17 -5 -4 -6 -11 -9 -16 -6 -4 3 -10 -1 -13 -9 -10 -24 -108 -31 -151 -11 -20
10 -36 24 -36 31 0 24 -30 28 -45 8 -14 -18 -15 -18 -21 4 -5 18 -13 22 -50
22 -38 0 -44 -3 -44 -21 0 -28 -23 -49 -54 -49 -14 0 -26 -3 -26 -7 0 -11 -30
-14 -152 -16 -140 -3 -144 16 -6 24 57 3 118 11 136 17 18 6 36 11 39 11 4 0
9 5 11 11 3 7 -5 9 -20 6 -98 -20 -222 -29 -401 -29 l-159 1 7 -37 c9 -49 30
-79 60 -87 31 -8 33 -24 3 -24 -35 0 -74 30 -181 135 -95 94 -136 125 -161
125 -18 0 -17 -3 9 -18 29 -18 71 -60 50 -51 -5 3 -41 20 -80 38 -137 65 -177
70 -286 34 -49 -15 -187 -15 -222 1 -13 6 -16 5 -11 -8 3 -9 1 -16 -6 -16 -6
0 -11 -10 -10 -22 7 -85 -9 -140 -27 -90 -8 21 -52 62 -68 62 -7 0 -16 16 -19
35 -6 30 -45 75 -66 75 -4 0 -34 -26 -68 -57 -49 -48 -61 -66 -67 -101 -9 -55
-31 -51 -27 6 3 33 0 41 -17 47 -33 10 -71 45 -71 66 0 23 -23 25 -40 4 -7 -9
-18 -14 -24 -12 -6 3 -21 1 -32 -4 -16 -6 -20 -14 -17 -33 7 -36 -36 -47 -69
-17 -49 45 -87 71 -102 71 -20 0 -21 14 -1 30 8 7 15 9 15 5 0 -5 8 -1 18 7
20 18 132 23 132 7 0 -7 -10 -9 -25 -5 -14 4 -25 2 -25 -3 0 -17 50 -22 78 -7
15 8 44 22 65 31 20 9 37 22 37 30 0 17 16 20 25 5 4 -7 13 -7 26 0 11 6 17
15 14 19 -6 11 15 27 35 25 28 -2 95 -17 110 -24 9 -5 53 -4 98 1 54 6 89 6
100 -1 19 -11 0 -13 -100 -10 -32 1 -58 -2 -58 -6 0 -5 11 -17 25 -29 14 -11
26 -31 28 -45 4 -24 37 -43 37 -20 0 7 8 9 20 5 14 -4 20 -2 20 9 0 10 6 13
15 10 8 -4 15 -1 15 5 0 6 8 11 18 11 10 0 22 4 28 10 13 13 73 -4 89 -26 8
-11 14 -13 19 -6 4 7 17 7 41 1 23 -7 48 -6 73 0 20 6 49 11 65 11 15 0 27 5
27 10 0 13 27 13 32 1 2 -6 21 -6 48 -1 25 5 77 9 116 10 56 0 73 3 78 16 11
27 7 54 -9 60 -8 4 -15 17 -15 29 0 18 -9 27 -34 36 -42 15 -37 31 7 25 67 -8
100 -20 104 -35 2 -9 20 -27 38 -40 19 -13 33 -27 30 -31 -11 -18 31 -49 70
-52 45 -3 58 17 30 46 -15 15 -15 16 7 16 22 0 22 0 3 13 -11 7 -48 22 -82 32
-34 10 -60 21 -58 25 8 13 95 1 141 -19 26 -12 51 -21 57 -21 10 0 24 -14 88
-88 20 -23 42 -42 48 -42 6 0 11 -4 11 -10 0 -5 5 -10 11 -10 6 0 17 -7 25
-15 9 -8 24 -15 35 -15 19 0 27 -26 9 -32 -5 -2 -6 -9 -1 -17 14 -21 220 1
238 25 7 10 13 14 13 10 0 -5 7 -3 15 4 9 7 34 13 56 12 35 -2 39 0 30 16 -9
16 -6 18 21 14 l31 -5 -22 22 c-28 28 -27 41 5 41 22 0 25 2 14 15 -7 8 -26
15 -42 15 -23 0 -29 -4 -24 -15 3 -9 0 -15 -8 -15 -8 0 -16 5 -18 12 -7 20
-58 0 -58 -23 0 -16 -4 -19 -17 -15 -9 4 -19 3 -22 -2 -4 -6 -16 -6 -28 -1
-19 7 -23 16 -23 53 0 36 -5 48 -25 63 l-25 18 42 1 c24 0 56 6 72 13 34 14
26 28 -27 48 -31 11 -31 12 -6 12 14 1 34 -8 43 -18z m-2937 -201 c5 -20 30
-22 26 -2 -1 5 7 12 17 15 13 3 20 0 20 -9 0 -8 -5 -14 -11 -14 -19 0 18 -29
46 -36 35 -9 41 -26 18 -64 -15 -26 -24 -31 -53 -30 -54 3 -58 1 -65 -21 -4
-12 -12 -18 -21 -15 -20 8 -29 -20 -14 -39 7 -8 10 -15 7 -15 -12 0 -61 30
-78 49 -17 18 -17 21 -4 21 11 0 15 7 13 23 -3 19 1 22 26 19 24 -3 28 -1 22
13 -3 9 -6 23 -6 31 0 8 -7 14 -15 14 -8 0 -15 5 -15 10 0 14 23 13 37 -1 9
-9 15 -3 26 22 10 24 11 36 3 41 -7 5 -7 8 2 8 8 0 16 -9 19 -20z m241 -66
c21 -4 29 -11 25 -20 -6 -17 1 -18 28 -4 14 8 19 7 19 -3 0 -8 11 -26 25 -41
25 -27 31 -47 18 -59 -11 -11 -33 14 -33 38 0 13 -7 25 -15 28 -11 5 -13 0 -8
-23 6 -34 0 -36 -41 -15 -31 16 -56 7 -56 -21 0 -8 -3 -14 -7 -14 -5 0 -19 -3
-33 -7 -24 -6 -24 -6 -7 11 15 16 23 56 18 95 -6 38 10 46 67 35z m-3226 -29
c30 -11 54 -28 74 -54 16 -21 34 -37 40 -34 7 2 15 0 19 -6 3 -6 -1 -11 -9
-11 -9 0 -16 -7 -16 -15 0 -8 9 -15 20 -15 11 0 23 7 26 15 4 10 20 15 44 15
48 0 76 -35 59 -73 -12 -25 -10 -25 -144 -26 -39 0 -85 21 -85 39 0 5 16 6 35
3 45 -7 40 12 -10 45 -19 12 -34 25 -34 30 4 23 -4 32 -28 32 -21 0 -33 -8
-45 -31 -21 -36 -23 -75 -5 -82 6 -2 -7 -7 -31 -11 -33 -6 -43 -13 -48 -32 -4
-14 -9 -22 -12 -19 -9 9 -52 -37 -52 -56 0 -10 -5 -21 -10 -24 -13 -8 -100 42
-100 57 0 6 -16 30 -35 54 -68 82 -34 136 105 170 30 7 80 20 110 28 72 19 78
19 132 1z m2928 -175 c5 0 7 -6 4 -14 -3 -8 -1 -17 5 -21 6 -3 11 -15 11 -26
0 -10 5 -19 11 -19 6 0 1 -9 -12 -20 -13 -10 -18 -19 -11 -20 6 0 12 -7 12
-16 0 -8 4 -13 9 -10 10 7 34 -19 37 -40 3 -21 -11 -17 -30 9 -16 22 -16 22
-14 -13 3 -29 -1 -36 -19 -38 -21 -3 -63 28 -63 47 0 5 7 12 16 15 11 4 15 2
11 -8 -4 -10 -1 -13 9 -9 7 3 14 12 14 20 0 11 -8 12 -35 7 -31 -5 -35 -4 -35
15 0 11 5 21 10 21 6 0 10 9 10 20 0 11 -4 20 -10 20 -5 0 -10 -4 -10 -10 0
-16 -20 -12 -26 5 -9 22 4 48 18 39 7 -4 23 -9 36 -10 22 -3 23 -2 8 15 -21
23 -20 26 7 51 18 18 23 19 25 6 2 -9 7 -16 12 -16z m-2598 -223 c20 -12 64
-38 97 -57 64 -36 75 -54 41 -65 -16 -5 -18 -10 -10 -25 14 -26 12 -70 -2 -70
-18 1 -48 25 -48 38 0 13 -36 26 -50 17 -5 -3 -10 -15 -10 -26 0 -19 -15 -26
-24 -10 -3 5 -17 9 -31 9 -36 0 -44 11 -20 28 12 9 21 11 23 4 2 -5 8 -10 14
-10 6 0 5 6 -2 15 -8 10 -10 29 -6 54 4 28 2 42 -9 51 -15 13 -21 71 -7 69 4
0 24 -10 44 -22z m5438 -4 c26 -8 -18 -26 -46 -19 -31 8 -32 -13 -3 -40 23
-21 186 -55 274 -58 43 -1 50 -4 53 -23 2 -13 14 -25 33 -32 38 -13 37 -31 -1
-31 -22 0 -28 -4 -24 -15 8 -21 1 -19 -52 14 -25 17 -60 33 -78 37 -17 3 -47
14 -66 24 -41 21 -160 41 -160 28 0 -5 -10 -6 -22 -2 -13 4 -34 9 -48 10 -14
1 -43 8 -66 16 -22 8 -49 11 -60 8 -10 -4 -28 -1 -39 6 -13 9 -25 10 -35 4
-10 -6 -23 -4 -37 6 -13 8 -23 12 -23 10 0 -3 -14 -1 -31 4 -17 5 -62 10 -100
11 -47 1 -69 6 -69 14 0 17 17 22 60 18 19 -1 45 -2 58 -2 167 5 187 2 272
-29 90 -34 137 -36 122 -4 -9 21 -9 43 1 59 5 9 16 9 40 2 17 -6 39 -13 47
-16z m-5630 -4 c0 -28 -64 -124 -96 -145 -25 -17 -33 -44 -11 -44 6 0 30 -9
52 -20 22 -10 56 -22 75 -25 19 -3 50 -14 69 -26 30 -18 33 -24 27 -52 -5 -23
1 -44 21 -84 31 -59 64 -79 115 -69 81 17 100 17 131 5 41 -16 47 -25 47 -70
0 -51 -18 -62 -98 -59 -37 1 -100 3 -139 5 -76 2 -99 13 -114 51 -9 26 -58 36
-149 32 -66 -3 -208 18 -227 33 -7 6 -13 17 -13 25 0 19 20 28 33 15 14 -14
54 -14 62 -1 8 13 -13 118 -31 151 -13 25 -9 99 5 97 67 -8 44 52 -26 66 -31
7 -49 29 -37 47 3 5 12 5 22 0 58 -29 167 -22 178 13 9 30 60 76 84 76 14 0
20 -7 20 -21z m3027 -4 c3 -9 13 -15 22 -14 25 4 63 -11 58 -24 -2 -6 -16 -15
-33 -20 -16 -5 -42 -15 -59 -22 -16 -7 -79 -21 -139 -30 -60 -9 -119 -21 -131
-27 -18 -8 -29 -6 -54 13 -35 26 -41 49 -12 49 10 0 24 7 31 15 7 8 19 15 27
15 8 0 30 7 49 16 31 15 38 15 83 0 61 -20 101 -20 126 -2 16 12 17 16 6 30
-11 14 -11 16 3 16 9 0 19 -7 23 -15z m-1248 -419 c5 5 11 18 13 29 4 27 26
29 73 9 32 -14 36 -18 20 -22 -11 -2 -28 -11 -37 -19 -16 -14 -16 -16 3 -36
10 -11 19 -27 19 -34 0 -15 16 -17 25 -3 3 6 17 10 31 10 27 0 32 -23 10 -46
-20 -19 -9 -53 30 -94 18 -19 38 -50 45 -67 6 -18 20 -35 31 -39 11 -3 26 -22
34 -41 8 -19 30 -48 49 -64 28 -25 33 -35 29 -59 -8 -38 20 -65 77 -74 47 -7
89 -30 89 -47 0 -15 -75 -5 -104 14 -14 10 -31 17 -39 17 -13 0 -39 18 -84 58
-27 23 -63 30 -63 12 0 -5 -7 -10 -15 -10 -8 0 -15 5 -15 10 0 6 4 10 9 10 5
0 12 14 16 31 9 39 -18 64 -50 46 -11 -6 -24 -11 -30 -12 -10 0 -10 -27 0
-134 6 -60 -3 -76 -43 -84 -15 -3 -38 -15 -51 -26 -12 -11 -44 -23 -69 -26
-26 -3 -58 -11 -72 -19 -23 -11 -30 -10 -63 11 -55 35 -63 63 -32 121 14 26
25 53 25 59 0 7 4 13 9 13 13 0 34 57 38 104 15 206 10 277 -19 248 -9 -9 -13
-47 -13 -123 -1 -132 -1 -133 -117 -134 -55 0 -82 -5 -95 -17 -10 -8 -25 -13
-34 -9 -18 7 -18 31 1 101 8 29 10 81 6 148 -5 89 -4 104 10 109 18 7 53 -31
54 -58 0 -9 6 -22 14 -28 8 -7 12 -20 9 -31 -3 -10 0 -27 6 -37 8 -14 10 -8
11 32 0 57 -24 145 -44 160 -9 7 -11 17 -6 31 9 24 88 44 171 44 26 0 51 5 55
11 4 7 19 -2 40 -22 21 -20 37 -29 43 -23z m839 17 c3 -20 7 -21 55 -17 108
11 192 10 202 -2 14 -17 150 -64 185 -64 15 0 57 -13 92 -30 34 -16 69 -30 76
-30 6 0 12 -11 12 -23 0 -13 9 -32 20 -42 11 -10 20 -28 20 -41 0 -54 26 -71
51 -34 10 14 29 22 65 27 61 7 107 -15 126 -59 11 -25 16 -26 58 -21 34 4 49
1 59 -10 17 -22 6 -37 -27 -37 -15 0 -44 -11 -64 -25 -46 -31 -48 -31 -48 4 0
20 -6 30 -20 34 -14 3 -20 14 -20 31 0 32 -12 33 -42 4 -14 -14 -22 -32 -20
-45 3 -18 0 -22 -15 -17 -10 4 -24 14 -31 23 -9 11 -31 16 -80 16 -58 0 -74 4
-117 31 -28 18 -67 37 -87 43 -34 11 -86 46 -133 88 -11 10 -24 18 -28 18 -5
0 -14 7 -20 15 -16 20 -63 50 -79 50 -7 0 -24 9 -38 20 -33 25 -45 25 -58 -2
-8 -18 -11 -19 -11 -5 -1 9 -6 17 -12 17 -6 0 -8 -9 -4 -20 6 -18 2 -20 -32
-20 -49 0 -73 14 -48 28 24 13 14 36 -26 56 -26 13 -34 14 -41 4 -13 -22 -9
-37 17 -54 14 -9 25 -20 25 -26 0 -10 -61 -38 -71 -32 -4 2 -20 -11 -37 -30
-16 -19 -39 -39 -50 -45 -29 -16 -69 -14 -76 4 -8 21 -42 19 -67 -6 -25 -25
-51 -21 -64 9 -12 27 -41 29 -50 3 -3 -11 -16 -21 -27 -23 -34 -5 -35 -29 -1
-27 15 1 43 -1 60 -5 18 -4 38 -4 45 0 22 14 38 13 38 -2 0 -8 -8 -14 -17 -14
-9 0 -27 -10 -39 -21 -34 -32 -98 -30 -125 5 -11 14 -28 26 -38 26 -18 0 -51
48 -51 73 0 20 31 30 65 21 17 -4 32 -1 43 9 19 16 67 29 97 26 11 -1 42 -2
69 -1 54 1 76 13 59 34 -6 7 -13 21 -15 32 -4 25 29 30 42 6 5 -10 21 -20 34
-24 13 -3 26 -14 29 -24 3 -13 7 -10 16 13 11 25 10 31 -6 43 -10 7 -28 10
-40 7 -25 -6 -26 -5 -17 19 3 9 15 16 25 16 11 0 27 4 37 9 34 19 108 39 137
37 23 -1 31 -6 33 -23z m-1856 -503 c33 -16 64 -28 68 -25 5 3 23 -10 42 -29
26 -28 51 -40 118 -59 65 -19 88 -30 97 -48 6 -12 35 -46 63 -75 38 -38 51
-59 48 -76 -3 -20 -9 -23 -48 -24 -25 -1 -62 -2 -83 -3 -53 -1 -60 -26 -17
-62 33 -28 36 -59 7 -59 -8 0 -22 -15 -32 -34 -18 -33 -59 -53 -71 -35 -3 5
-14 9 -24 9 -13 0 -22 9 -26 25 -8 32 -5 36 39 40 34 3 87 39 75 50 -8 8 -53
-11 -51 -21 2 -13 -29 -5 -48 12 -10 9 -34 13 -66 12 -45 -2 -55 1 -84 30 -18
18 -45 38 -61 44 -15 7 -28 16 -28 20 0 4 -21 21 -46 39 -38 26 -50 30 -65 21
-31 -20 -34 22 -5 78 14 27 26 64 26 81 0 28 -2 31 -22 23 -13 -4 -68 -9 -123
-11 -55 -2 -110 -8 -122 -15 -12 -6 -29 -8 -37 -5 -9 4 -16 3 -16 -1 0 -4 -27
-8 -60 -9 -48 -2 -64 1 -79 16 -16 16 -17 20 -5 25 16 6 84 14 164 20 30 2 73
11 95 19 94 34 118 39 161 32 32 -4 50 -2 66 9 34 24 83 19 150 -14z m4044
-75 c15 -14 34 -25 43 -25 9 0 33 -14 54 -31 32 -26 43 -30 75 -24 31 5 41 2
57 -15 10 -11 16 -22 13 -25 -10 -11 -104 -23 -113 -15 -6 5 -35 12 -65 16
-30 5 -47 10 -36 12 29 6 -37 42 -78 42 -34 0 -96 28 -96 43 0 4 11 7 25 7 14
0 33 9 43 19 24 27 46 25 78 -4z m356 -96 c11 -6 39 -13 62 -15 51 -5 79 -14
88 -28 5 -8 11 -7 20 2 13 13 68 17 68 5 -1 -25 -14 -53 -25 -53 -7 0 -15 -6
-18 -14 -16 -41 -57 -36 -132 14 -16 11 -37 22 -45 26 -8 3 -22 9 -30 13 -9 5
-30 12 -48 15 -17 4 -35 12 -38 18 -16 25 59 38 98 17z m-1432 -99 c4 0 18
-10 32 -23 21 -20 23 -26 13 -41 -12 -15 -14 -15 -28 -1 -9 8 -20 15 -26 15
-6 0 -11 4 -11 10 0 16 -65 22 -108 10 -45 -11 -51 -22 -27 -46 8 -8 17 -31
20 -52 4 -20 9 -44 12 -52 3 -8 7 -23 8 -33 1 -16 0 -16 -16 -1 -9 8 -25 14
-35 12 -12 -2 -21 6 -28 27 -6 17 -15 33 -20 36 -5 4 -5 12 -1 18 4 7 2 18 -4
25 -7 8 -10 20 -9 27 2 7 -10 15 -27 19 l-30 5 35 26 c53 40 78 51 85 39 5 -8
11 -8 19 -1 7 6 16 8 19 4 4 -3 7 -1 7 6 0 7 7 10 18 7 9 -3 31 3 47 14 l30
20 8 -35 c5 -19 12 -35 17 -35z m442 47 c9 -7 21 -32 28 -55 l11 -43 57 5 c66
5 107 -12 116 -49 4 -14 11 -25 18 -25 6 0 4 -8 -6 -19 -15 -17 -21 -17 -77
-4 -77 18 -152 56 -168 87 -7 13 -29 28 -48 34 -34 10 -36 9 -88 -42 -29 -30
-55 -62 -58 -72 -4 -16 -5 -15 -6 4 0 12 -7 22 -14 22 -8 0 -22 9 -32 20 -10
11 -15 20 -10 20 4 0 2 6 -4 13 -16 21 -3 27 44 21 51 -8 124 25 121 53 -1 13
11 21 44 30 57 15 52 15 72 0z m-2811 -18 c7 -14 7 -24 0 -33 -16 -19 8 -63
42 -77 15 -7 34 -24 42 -38 13 -27 10 -81 -6 -81 -5 0 -9 -14 -9 -31 0 -19 -4
-28 -11 -24 -6 4 -7 19 -4 35 4 19 -1 41 -14 66 -12 21 -21 47 -21 56 0 12 -5
15 -16 11 -10 -4 -17 1 -21 16 -3 11 -10 21 -15 21 -5 0 -16 7 -24 15 -9 8
-29 15 -45 15 -19 0 -29 5 -29 15 0 8 -5 15 -11 15 -16 0 1 20 25 30 11 4 40
8 64 8 32 0 45 -4 53 -19z m686 -40 c14 -23 23 -29 41 -26 24 5 62 -25 62 -49
0 -7 8 -19 18 -26 27 -19 43 -53 31 -65 -5 -5 -28 -7 -54 -3 -43 7 -43 6 -50
-27 -7 -38 1 -73 16 -73 6 0 15 -13 20 -30 6 -16 15 -30 20 -30 5 0 9 -10 9
-22 1 -17 13 -29 43 -44 49 -24 57 -48 26 -75 -26 -22 -52 -24 -71 -5 -25 24
-55 27 -94 9 -31 -15 -38 -16 -42 -4 -6 17 -38 49 -70 70 -11 8 -19 18 -17 22
3 4 -1 9 -9 12 -14 6 -28 77 -15 77 4 0 11 10 15 22 3 12 13 29 21 37 11 10
13 26 9 55 -9 53 -21 66 -62 66 -21 0 -42 8 -55 21 -19 19 -27 20 -73 12 -28
-6 -71 -8 -96 -6 -40 4 -48 1 -74 -26 -33 -35 -41 -37 -50 -16 -3 8 0 14 7 12
7 -1 12 5 12 13 0 8 -6 14 -13 12 -14 -2 -16 24 -2 33 6 3 10 14 10 23 0 9 11
24 23 33 20 15 27 15 62 3 22 -8 48 -14 58 -14 10 0 31 -7 46 -15 27 -13 29
-13 58 20 25 28 38 34 89 40 32 3 68 7 79 9 30 3 52 -10 72 -45z m1151 -60 c2
-5 11 -5 20 -1 9 5 35 7 57 5 22 -2 50 -4 63 -5 16 0 22 -6 22 -24 0 -12 -6
-27 -13 -31 -7 -4 -18 -33 -24 -63 -9 -47 -9 -58 5 -73 14 -16 14 -19 -4 -32
-26 -20 -67 -31 -71 -18 -2 6 -17 25 -33 43 -17 19 -30 38 -30 44 0 5 -16 25
-36 43 -27 24 -47 33 -73 34 -50 1 -75 10 -105 36 -34 30 -34 53 0 53 14 0 23
-4 19 -10 -4 -7 2 -7 19 0 19 7 24 6 20 -3 -3 -9 9 -14 38 -16 24 -1 47 -6 53
-12 12 -12 25 -12 25 1 0 6 -6 10 -14 10 -8 0 -16 7 -19 14 -4 10 -1 13 7 10
8 -3 17 0 21 6 7 12 48 3 53 -11z m1890 -34 c14 -5 22 -15 22 -31 0 -27 -19
-33 -21 -6 -1 16 -2 16 -6 0 -2 -10 -12 -19 -21 -20 -9 0 -28 -3 -42 -4 -105
-13 -132 -12 -151 7 -22 22 -24 33 -6 51 15 14 184 17 225 3z m-4936 -492 c6
-7 16 -13 23 -13 7 0 16 -7 19 -16 9 -25 7 -64 -4 -64 -6 0 -9 -6 -8 -12 5
-21 -34 -9 -54 17 -22 28 -55 37 -96 26 -31 -9 -53 1 -32 14 6 4 8 11 5 16 -4
5 -1 9 4 9 6 0 11 6 11 14 0 8 8 17 18 19 34 9 103 2 114 -10z m2069 -23 c14
-14 29 -35 33 -47 4 -13 11 -23 15 -23 5 0 11 -14 15 -32 5 -24 2 -34 -14 -45
-16 -12 -18 -18 -9 -34 8 -15 7 -29 -1 -50 -13 -31 -33 -37 -55 -16 -53 47
-79 57 -146 57 -27 0 -49 5 -49 10 0 6 -12 10 -27 10 -15 0 -37 10 -50 22 -26
24 -29 36 -10 35 50 -2 69 4 63 19 -4 12 -1 14 14 9 33 -10 54 9 56 51 1 48
20 61 86 59 42 -1 59 -6 79 -25z"/>
<path d="M3291 3218 c3 -25 -1 -38 -12 -38 -11 0 -21 -7 -101 -82 l-46 -43 78
0 c44 0 76 4 72 9 -3 5 5 7 17 3 17 -4 24 0 32 20 11 29 3 45 -11 23 -5 -8
-12 -11 -17 -6 -4 4 0 12 10 17 9 6 17 17 17 25 0 8 6 14 13 13 28 -3 37 2 37
22 0 14 -5 19 -14 16 -7 -3 -20 3 -29 14 -19 21 -49 26 -46 7z"/>
<path d="M6860 2882 c35 -13 40 -17 23 -20 -12 -2 -31 2 -42 7 -24 13 -121 15
-121 2 0 -4 18 -11 39 -14 21 -2 48 -14 60 -26 12 -12 34 -21 49 -21 15 0 32
-4 38 -9 5 -5 46 -12 92 -16 82 -7 83 -6 65 12 -22 22 -81 51 -111 56 -27 4
-41 17 -19 17 10 0 17 5 17 10 0 10 -6 11 -90 15 l-45 3 45 -16z"/>
<path d="M6049 2776 c9 -11 9 -20 2 -35 -16 -30 -14 -38 18 -57 15 -9 36 -31
46 -48 10 -17 22 -33 26 -36 8 -5 291 9 298 15 7 7 -34 79 -49 86 -35 16 -120
31 -182 32 -38 1 -68 5 -68 9 0 4 -13 8 -30 8 -23 0 -30 4 -30 20 0 14 -7 20
-21 20 -18 0 -19 -3 -10 -14z"/>
<path d="M880 3654 c0 -3 12 -16 28 -29 l27 -25 -37 2 c-21 1 -38 6 -38 11 0
5 -8 6 -17 3 -9 -4 -19 -2 -23 4 -10 15 -40 1 -33 -16 3 -8 1 -14 -5 -14 -6 0
-13 6 -15 13 -4 7 -6 6 -6 -4 -2 -29 -41 -30 -66 -3 -25 27 -78 34 -69 9 4 -8
1 -15 -6 -15 -9 0 -11 -10 -6 -32 3 -18 3 -28 -2 -23 -4 6 -13 10 -19 11 -30
2 -34 5 -28 14 3 6 -1 7 -10 4 -14 -6 -14 -9 -2 -23 8 -9 17 -23 20 -31 3 -8
6 -10 6 -5 1 6 67 9 184 7 146 -3 190 -1 218 11 25 11 29 16 14 16 -11 1 -31
11 -45 22 -14 11 -18 19 -10 17 17 -5 62 31 54 44 -3 4 -17 8 -32 8 -15 0 -39
7 -54 14 -16 8 -28 13 -28 10z"/>
<path d="M4768 3579 c-16 -11 -28 -16 -28 -10 0 7 -10 9 -25 5 -17 -4 -25 -2
-25 7 0 10 -3 10 -11 2 -19 -19 -3 -45 23 -37 23 6 23 6 -1 -15 -20 -17 -34
-21 -70 -17 -25 2 -55 7 -66 11 -17 6 -17 4 4 -14 20 -18 35 -21 90 -20 105 3
171 0 171 -8 0 -5 -5 -15 -10 -23 -7 -12 -12 -12 -22 -2 -14 14 -38 16 -38 3
0 -5 10 -11 22 -14 12 -4 19 -9 15 -13 -4 -4 -21 3 -38 15 -16 12 -40 21 -51
19 -21 -3 -21 -4 -4 -21 24 -24 14 -32 -39 -29 -25 1 -45 -3 -45 -8 0 -6 6
-10 14 -10 8 0 16 -5 18 -10 2 -7 19 -7 50 -2 25 5 52 5 60 1 21 -14 41 -10
34 6 -3 9 0 15 9 15 9 0 12 6 9 15 -6 16 1 20 55 29 19 4 31 3 28 -1 -15 -14
47 -30 75 -19 35 13 35 20 1 35 -19 9 -29 9 -31 2 -2 -6 -10 -11 -19 -11 -8 0
-13 6 -10 13 3 9 33 11 117 8 84 -3 111 -1 106 8 -4 7 -16 9 -27 6 -14 -5 -17
-2 -13 9 4 10 -2 16 -18 18 -13 2 -22 9 -20 17 2 11 -7 12 -37 8 -21 -2 -44 0
-49 5 -7 7 -16 5 -28 -7 -15 -14 -15 -18 -3 -26 11 -7 11 -9 -3 -9 -10 0 -18
-5 -18 -11 0 -6 -7 -8 -16 -5 -9 4 -23 1 -31 -6 -11 -9 -16 -9 -24 3 -12 20
-11 29 5 29 7 0 19 7 26 15 10 12 8 15 -12 20 -29 7 -76 -15 -70 -34 3 -8 -1
-12 -9 -8 -8 2 -12 11 -10 18 2 8 3 22 3 32 0 9 3 15 9 12 5 -4 9 1 9 9 0 20
1 20 -32 -5z"/>
<path d="M929 3495 c-3 -2 -76 -7 -164 -10 -87 -3 -161 -8 -163 -10 -10 -10
21 -33 51 -38 18 -3 44 -8 60 -11 18 -4 27 -2 27 6 0 10 2 10 9 0 7 -11 9 -11
14 2 8 21 20 20 34 -3 10 -16 9 -18 -8 -14 -20 6 -20 5 1 -35 25 -47 47 -59
65 -35 14 18 73 21 159 7 34 -5 38 -4 32 11 -4 12 -2 16 7 12 7 -3 21 1 32 9
15 11 16 17 7 26 -9 9 -12 9 -12 0 0 -7 -4 -12 -10 -12 -5 0 -10 7 -10 15 0 8
-6 12 -14 9 -9 -3 -12 -12 -8 -22 5 -15 4 -15 -12 0 -9 10 -14 22 -11 28 3 5
2 10 -3 10 -12 0 -22 -24 -22 -51 0 -14 -7 -19 -29 -19 -23 0 -30 5 -34 28 -3
15 -1 29 4 30 5 2 9 8 9 14 0 18 28 38 46 31 16 -6 15 -7 -2 -21 -18 -14 -18
-14 -1 -8 10 3 23 6 28 6 6 0 7 5 4 10 -3 6 2 10 12 10 15 1 15 2 3 9 -18 10
-95 23 -101 16z"/>
</g>
</svg>
