<?xml version="1.0" standalone="no"?>
<!DOCTYPE svg PUBLIC "-//W3C//DTD SVG 20010904//EN"
 "http://www.w3.org/TR/2001/REC-SVG-20010904/DTD/svg10.dtd">
<svg version="1.0" xmlns="http://www.w3.org/2000/svg"
 width="720.000000pt" height="499.000000pt" viewBox="0 0 720.000000 499.000000"
 preserveAspectRatio="xMidYMid meet">
<metadata>
Created by potrace 1.16, written by Peter Selinger 2001-2019
</metadata>
<g transform="translate(0.000000,499.000000) scale(0.100000,-0.100000)"
fill="#000000" stroke="none">
<path d="M3460 3358 c0 -3 9 -10 20 -13 11 -3 20 -11 20 -17 0 -6 -3 -8 -7 -5
-3 4 -11 3 -17 -2 -33 -26 -135 -16 -136 13 0 6 -7 2 -15 -8 -12 -16 -18 -17
-27 -8 -16 16 -38 15 -38 -1 0 -23 57 -94 79 -100 12 -3 21 -1 21 4 0 5 7 9
16 9 13 0 14 -3 5 -14 -9 -11 -8 -15 4 -20 9 -3 13 -11 10 -16 -5 -8 -11 -7
-21 1 -11 9 -15 8 -20 -5 -3 -9 -12 -16 -20 -16 -17 0 -18 17 -1 23 21 8 3 15
-24 10 -21 -4 -25 -9 -21 -29 2 -14 0 -24 -7 -24 -7 0 -9 5 -6 10 3 6 1 10 -4
10 -6 0 -10 6 -8 13 1 6 -7 12 -18 13 -46 2 -55 4 -55 12 0 4 15 6 33 4 23 -3
39 2 51 13 16 17 18 37 3 36 -4 -1 -16 -1 -28 -1 -15 0 -19 -4 -15 -16 5 -12
2 -15 -10 -10 -8 3 -23 6 -32 6 -10 0 -3 9 18 21 l35 22 -45 13 c-44 13 -55
12 -55 -9 0 -5 -6 -12 -12 -14 -7 -3 -13 0 -13 5 0 5 -18 9 -40 9 -22 0 -40
-4 -40 -8 0 -5 5 -9 10 -9 6 0 10 -10 10 -21 0 -17 5 -20 20 -16 18 4 20 2 14
-16 -6 -19 -5 -20 9 -9 17 15 38 8 36 -11 -5 -40 1 -46 38 -44 30 2 38 -2 41
-18 4 -17 2 -18 -12 -6 -13 11 -20 11 -28 3 -9 -9 -8 -12 5 -12 9 0 17 -5 17
-11 0 -6 9 -8 20 -4 12 4 20 2 20 -6 0 -6 14 -27 30 -46 26 -29 29 -37 18 -51
-10 -12 -10 -16 0 -19 7 -3 17 -14 23 -25 8 -15 6 -23 -10 -37 -19 -17 -23
-43 -8 -57 4 -4 7 5 7 19 0 15 5 27 11 27 6 0 9 -7 6 -15 -4 -8 -2 -17 3 -20
6 -4 10 -13 10 -21 0 -8 -5 -12 -10 -9 -6 3 -13 -1 -16 -10 -6 -14 -12 -11
-40 17 -33 33 -43 58 -24 58 6 0 10 7 10 15 0 18 -12 19 -28 3 -8 -8 -15 -8
-26 1 -21 18 -32 -6 -12 -28 20 -22 20 -31 1 -31 -8 0 -15 4 -15 10 0 6 -9 5
-24 -1 -55 -25 -126 15 -89 50 9 8 11 17 4 24 -13 17 -16 47 -7 79 9 30 35 45
48 26 4 -7 8 -8 8 -3 0 6 5 3 11 -5 8 -12 9 -7 6 18 -2 17 0 32 5 32 4 0 8 5
8 10 0 6 -9 10 -21 10 -15 0 -19 5 -14 19 7 23 -30 36 -47 17 -13 -13 -58 -9
-58 5 0 12 -43 55 -52 51 -12 -3 -9 13 4 26 10 10 9 16 -4 28 -11 11 -18 12
-22 5 -4 -6 -2 -11 3 -11 15 0 14 -25 -1 -38 -7 -5 -24 -13 -37 -17 l-24 -7
21 30 c20 27 20 31 6 36 -9 4 -19 4 -22 1 -3 -3 -2 -5 2 -5 4 0 0 -7 -9 -17
-14 -14 -18 -14 -25 -2 -7 10 -12 11 -21 2 -13 -13 -4 -33 17 -33 17 0 19 -20
2 -21 -7 0 -3 -4 10 -10 15 -6 30 -5 43 1 15 8 19 7 19 -5 0 -8 -9 -15 -19
-15 -11 0 -23 -4 -26 -10 -10 -16 33 -12 60 6 14 9 25 12 25 8 0 -5 5 -2 10 6
7 10 10 11 11 3 1 -7 2 -19 3 -25 1 -7 -23 -25 -54 -40 -64 -31 -77 -34 -60
-13 10 12 10 15 -3 15 -8 0 -18 -6 -20 -12 -3 -8 -6 -6 -6 5 -1 19 -16 23 -26
7 -3 -5 -12 -10 -18 -10 -8 0 -8 3 2 9 9 6 10 11 2 15 -6 4 -9 12 -6 17 4 5
-1 9 -9 9 -9 0 -16 -4 -16 -9 0 -5 -14 -11 -31 -15 -37 -7 -34 -32 4 -28 14 1
28 -2 32 -8 6 -10 -27 -15 -72 -11 -12 1 -24 -3 -28 -9 -3 -5 -15 -10 -26 -10
-11 0 -18 -4 -14 -10 3 -5 12 -7 20 -4 10 4 18 -3 25 -20 5 -14 14 -26 20 -26
18 0 10 -18 -11 -23 -36 -10 -11 -76 30 -77 8 0 11 6 7 15 -5 14 -4 14 16 0
29 -19 36 -19 34 3 -1 12 5 16 19 14 11 -1 37 -3 58 -3 36 0 55 -19 20 -19
-22 -1 -53 -23 -53 -39 0 -15 15 -14 29 3 6 7 23 14 38 14 15 0 32 7 38 16 7
9 20 16 29 16 10 0 16 6 14 12 -3 8 -20 11 -46 9 -27 -1 -42 2 -42 9 0 7 8 9
20 5 13 -4 22 -1 26 9 9 24 -14 45 -57 52 -37 6 -55 24 -24 24 8 0 14 6 13 12
-2 7 4 13 12 13 8 0 19 5 23 10 4 6 5 -2 1 -17 -5 -21 -2 -28 9 -28 9 0 25
-14 37 -30 12 -17 26 -28 31 -25 16 11 31 -5 19 -20 -19 -23 -2 -55 28 -56 15
0 21 -3 15 -6 -14 -5 -18 -43 -5 -43 5 0 20 -15 33 -34 25 -35 25 -35 57 -19
37 18 50 11 58 -30 5 -32 -13 -36 -51 -11 -14 9 -32 14 -40 10 -9 -3 -13 -2
-10 4 3 6 -1 10 -9 10 -9 0 -16 -7 -16 -15 0 -8 5 -15 12 -15 6 0 9 -3 6 -6
-4 -3 -16 -1 -27 6 -29 15 -27 -2 2 -20 20 -13 22 -18 12 -36 -10 -20 -13 -21
-43 -8 -21 8 -32 20 -32 34 0 24 -8 25 -34 5 -27 -20 -43 -19 -49 5 -3 13 0
20 9 20 18 0 18 16 0 23 -9 4 -17 -2 -21 -14 -4 -11 -15 -19 -27 -19 -18 0
-19 2 -7 18 8 9 19 20 26 25 7 4 10 14 6 22 -4 11 -1 13 11 9 9 -4 16 -3 15 2
-4 23 2 26 17 8 15 -19 15 -19 11 2 -3 15 0 21 11 20 8 0 17 5 20 13 3 10 0
12 -13 7 -10 -3 -24 -1 -32 5 -10 9 -17 9 -25 1 -7 -7 -20 -12 -31 -12 -16 0
-18 -5 -12 -40 6 -33 4 -40 -10 -40 -9 0 -13 -4 -10 -10 3 -5 -3 -15 -15 -22
-31 -20 -24 -27 26 -23 l45 3 -22 -24 c-28 -30 -69 -32 -76 -4 -4 14 -11 19
-23 15 -26 -8 -49 4 -47 25 1 15 4 17 16 7 11 -9 15 -9 18 1 3 6 9 12 15 12 6
0 23 11 39 25 l30 24 -25 7 c-13 3 -33 4 -43 1 -12 -3 -9 -5 10 -6 15 0 27 -6
27 -12 0 -7 -17 -10 -45 -7 -32 2 -44 0 -41 -9 3 -6 -2 -14 -10 -17 -8 -3 -14
-12 -14 -21 0 -17 -16 -20 -25 -5 -4 6 -11 7 -17 4 -7 -4 -2 -14 13 -26 l24
-19 -31 6 c-22 4 -36 1 -48 -11 -21 -21 -14 -29 13 -15 14 8 22 8 26 0 4 -6
13 -8 20 -5 23 9 26 -7 5 -29 -12 -13 -18 -29 -14 -38 5 -13 10 -12 29 11 23
26 23 27 44 8 29 -26 26 -38 -6 -30 -23 5 -26 4 -15 -7 14 -15 16 -33 3 -25
-5 3 -14 -1 -21 -9 -17 -20 7 -20 34 0 26 20 47 19 39 -1 -4 -12 -1 -15 13
-12 10 2 18 10 17 16 -2 7 2 12 8 12 6 0 9 9 6 20 -6 24 20 28 29 5 10 -25 22
-17 16 10 -3 20 -9 24 -24 19 -15 -4 -19 -2 -16 11 3 20 11 25 88 55 37 14 56
17 58 10 3 -7 24 -20 48 -30 24 -11 44 -23 44 -28 0 -9 -89 10 -110 23 -13 8
-61 -6 -54 -16 3 -5 16 -6 29 -3 13 3 46 -1 73 -10 27 -9 56 -14 64 -11 9 4
19 2 23 -4 9 -15 23 -14 27 3 3 13 7 13 28 0 24 -14 24 -15 3 -11 -13 3 -23 2
-23 -2 0 -13 24 -31 40 -31 9 0 23 -19 35 -49 15 -39 27 -53 59 -69 33 -17 36
-21 19 -21 -18 -1 -23 -7 -23 -26 0 -15 6 -25 14 -25 11 0 26 -20 26 -34 0 -2
-82 -6 -182 -10 -101 -4 -187 -11 -191 -16 -5 -4 -6 -32 -2 -61 l7 -54 121 3
c67 1 150 5 185 8 59 5 62 7 63 32 1 15 1 33 0 40 -1 7 9 3 23 -9 15 -13 26
-31 26 -42 0 -14 5 -18 20 -14 11 3 20 1 20 -4 0 -5 9 -9 20 -9 29 0 25 -15
-5 -16 -14 -1 -25 2 -25 8 0 5 -5 6 -11 2 -8 -4 -7 -9 2 -15 7 -4 11 -9 9 -11
-3 -2 -14 -8 -25 -14 -17 -10 -19 -20 -16 -69 2 -40 0 -55 -8 -51 -6 4 -12 22
-12 39 -2 30 -2 30 -9 -8 -7 -38 -7 -38 -9 18 l-1 57 -182 -6 c-189 -6 -213
-8 -204 -22 2 -4 6 -34 7 -67 3 -58 2 -60 -23 -62 -25 -2 -25 0 -25 63 0 36
-5 70 -12 77 -17 17 -13 25 12 29 14 2 21 9 21 20 -1 10 2 15 7 12 16 -10 9 9
-8 21 -15 11 -15 15 -4 29 11 14 11 16 -3 16 -16 0 -20 16 -16 54 1 13 -3 17
-14 13 -9 -4 -16 -2 -16 3 0 6 6 10 13 10 8 0 7 4 -3 10 -20 13 -33 13 -25 0
9 -14 -8 -12 -24 3 -11 10 -12 8 -6 -10 10 -35 -3 -47 -28 -26 -19 17 -20 17
-14 1 4 -12 -1 -21 -14 -29 -24 -12 -41 -2 -19 11 12 7 11 10 -5 15 -40 13
-95 38 -91 42 2 2 30 0 62 -5 58 -10 84 -7 84 8 0 12 -39 19 -46 9 -6 -11 -24
-12 -24 -1 0 4 16 16 35 26 39 21 47 40 13 32 -13 -3 -18 -3 -11 0 7 3 9 12 6
20 -3 9 4 24 17 36 18 17 26 19 41 10 24 -15 30 -15 23 1 -3 8 4 13 17 14 12
1 27 7 33 13 8 8 4 10 -14 6 -50 -12 -164 -25 -172 -20 -4 3 -8 10 -8 15 0 20
-29 39 -59 39 -21 0 -31 5 -31 16 0 8 5 12 10 9 6 -3 10 -1 10 4 0 17 -14 13
-34 -10 -18 -21 -17 -22 10 -45 32 -26 45 -29 60 -15 5 6 13 1 21 -15 10 -21
9 -24 -8 -24 -10 0 -19 -6 -19 -12 0 -8 -16 -14 -40 -16 -25 -1 -40 2 -40 9 0
9 -3 9 -14 0 -19 -16 -61 1 -61 25 0 10 -8 20 -19 22 -10 2 -16 0 -12 -6 3 -5
-1 -15 -8 -21 -11 -9 -17 -7 -29 9 l-14 21 -6 -21 c-3 -11 -13 -20 -24 -20
-10 0 -44 -20 -75 -45 -32 -25 -60 -45 -63 -45 -11 0 0 61 12 72 7 6 13 19 13
28 0 10 10 27 23 37 13 10 26 26 30 36 5 13 13 16 32 11 15 -4 25 -2 25 5 0 6
-7 11 -15 11 -8 0 -15 7 -15 15 0 11 5 12 23 6 28 -11 67 17 67 48 0 12 4 21
10 21 5 0 7 -7 4 -15 -5 -11 1 -15 25 -15 17 0 33 0 36 0 3 0 5 3 6 8 0 4 5
13 11 20 10 12 1 17 -29 13 -16 -2 -28 20 -15 28 7 4 9 17 4 36 -8 28 -9 29
-20 10 -8 -15 -14 -17 -22 -9 -8 8 -9 14 -1 18 6 4 11 16 11 28 0 17 -2 18
-15 8 -8 -7 -15 -20 -15 -28 0 -14 -1 -14 -12 0 -18 22 -84 33 -95 15 -12 -20
-53 -29 -53 -11 0 8 -7 14 -15 14 -8 0 -15 7 -15 15 0 19 -17 19 -36 1 -18
-19 -18 -26 2 -26 13 0 13 -5 -5 -33 -20 -33 -20 -33 -1 -50 11 -9 24 -17 29
-17 10 0 21 -24 21 -45 0 -8 -7 -11 -20 -8 -17 5 -18 1 -13 -32 5 -31 3 -37
-16 -42 -11 -3 -21 -12 -21 -19 0 -17 -27 -19 -32 -2 -3 7 -5 -6 -6 -29 l-2
-43 33 19 33 18 12 -25 c26 -55 16 -77 -38 -85 -14 -2 -36 -9 -50 -15 l-25
-11 28 0 c15 -1 27 -6 27 -12 0 -6 7 -9 15 -5 8 3 15 1 15 -3 0 -16 -28 -20
-40 -5 -7 8 -16 14 -21 14 -12 0 11 -52 32 -71 13 -12 15 -19 7 -27 -8 -8 -7
-13 5 -18 9 -3 17 -10 17 -15 0 -18 -33 -8 -60 19 -35 34 -64 58 -67 55 -14
-13 -11 3 5 30 44 71 61 107 52 107 -6 0 -10 -4 -10 -9 0 -5 -14 -22 -31 -38
-29 -26 -65 -89 -61 -105 5 -19 -16 -6 -28 18 -12 21 -12 27 -1 33 9 6 5 10
-13 13 -23 5 -26 3 -20 -15 5 -16 3 -19 -11 -14 -9 4 -19 7 -21 7 -2 0 -4 5
-4 11 0 5 5 7 11 3 7 -4 10 0 7 11 -2 11 -14 19 -30 21 -23 2 -28 -1 -28 -19
0 -12 -4 -56 -7 -97 -4 -41 -6 -234 -6 -427 0 -196 -3 -353 -8 -353 -5 0 -9
32 -9 70 0 46 -4 70 -11 70 -9 0 -10 45 -4 173 12 272 14 612 4 596 -5 -8 -9
-29 -9 -46 0 -18 -4 -33 -10 -33 -5 0 -10 5 -10 10 0 6 -14 10 -31 10 -20 0
-29 4 -26 13 2 6 11 11 19 11 10 -1 14 5 11 17 -7 27 -38 26 -38 -1 0 -11 -11
-15 -40 -15 -22 0 -45 -4 -52 -8 -7 -4 -10 -1 -9 10 2 10 14 20 27 24 20 5 21
7 7 13 -42 15 -47 15 -41 0 3 -8 -1 -14 -8 -14 -19 0 -78 -43 -83 -60 -2 -8
-4 -3 -5 12 0 14 4 28 9 30 6 2 -3 17 -21 33 -21 20 -30 24 -26 13 4 -12 1
-18 -8 -18 -8 0 -15 5 -15 11 0 5 -4 8 -9 5 -15 -10 -19 43 -5 55 8 6 14 26
13 43 -1 28 -2 29 -8 7 -9 -33 -31 -39 -31 -10 0 14 -4 19 -9 14 -6 -6 -5 -33
0 -68 10 -64 7 -77 -20 -77 -10 0 -21 -3 -24 -7 -4 -3 -19 -7 -34 -8 -16 -1
-36 -5 -45 -9 -13 -6 -18 -4 -18 8 0 16 10 20 43 16 16 -1 17 2 7 19 -12 24
-26 27 -33 9 -2 -7 -8 -9 -13 -5 -4 4 -3 16 2 25 8 13 8 19 -3 27 -9 7 -11 20
-7 43 5 27 11 32 34 32 15 0 39 9 54 21 26 20 28 20 46 4 22 -20 40 -13 41 18
1 18 2 19 6 4 3 -10 12 -17 21 -15 9 1 22 -1 29 -5 6 -4 14 -3 18 3 9 14 -20
40 -44 40 -28 0 -27 16 3 35 12 8 31 31 42 50 19 36 28 42 39 25 3 -6 -1 -13
-10 -16 -8 -4 -14 -12 -13 -19 2 -7 -8 -22 -22 -33 -31 -25 -25 -33 20 -22 19
4 27 8 17 9 -10 1 -15 6 -12 12 4 6 14 8 22 5 10 -4 13 -2 10 8 -8 20 4 28 20
14 7 -6 16 -8 20 -5 3 4 -6 16 -20 27 -15 12 -26 26 -24 32 3 16 -60 28 -72
14 -5 -6 -8 -24 -6 -39 2 -18 -2 -30 -11 -34 -8 -3 -14 -11 -14 -18 0 -7 -7
-16 -16 -19 -23 -9 -24 -8 -24 14 0 11 -4 20 -10 20 -5 0 -10 7 -10 15 0 8 5
15 10 15 6 0 10 11 10 25 0 20 -5 24 -22 22 -14 -1 -23 4 -26 14 -2 13 4 16
36 13 30 -2 44 2 57 16 10 11 25 20 33 20 8 0 23 9 33 21 12 14 24 19 37 15
17 -6 19 -14 16 -51 -4 -43 8 -61 20 -30 3 8 12 15 21 15 12 0 14 -7 10 -30
-6 -32 5 -39 25 -15 9 11 10 18 1 29 -6 8 -11 18 -10 22 4 19 -26 74 -41 75
-71 5 -140 3 -140 -3 0 -4 9 -8 20 -8 11 0 20 -5 20 -11 0 -7 -9 -9 -22 -5
-13 4 -28 8 -35 10 -20 4 -28 16 -10 16 23 0 21 17 -3 30 -11 6 -18 15 -15 21
4 5 11 7 16 4 5 -4 9 -1 9 5 0 6 -14 10 -33 8 -18 -1 -38 1 -44 5 -7 4 -18 -2
-27 -15 -22 -31 -31 -16 -11 21 15 30 15 31 -9 41 -13 5 -27 14 -31 19 -8 14
18 14 32 0 7 -7 12 -6 16 5 7 18 -38 30 -75 21 -19 -5 -27 -2 -32 12 -7 17 -8
17 -23 -2 -15 -19 -15 -19 -9 6 5 21 2 28 -15 32 -16 4 -18 3 -9 -7 7 -10 6
-17 -5 -26 -13 -11 -18 -10 -30 6 -14 18 -14 18 -15 0 0 -16 -5 -17 -36 -12
-19 4 -42 10 -50 13 -11 4 -15 0 -12 -13 3 -20 -10 -22 -47 -9 -16 5 -17 5 -5
-4 12 -9 12 -11 -2 -16 -10 -4 -21 -4 -25 -2 -5 3 -9 -7 -8 -21 0 -23 -4 -27
-27 -25 -19 1 -25 -2 -22 -12 7 -18 -15 -30 -29 -16 -6 6 -15 11 -21 11 -6 0
-5 -5 2 -12 15 -15 16 -48 2 -48 -5 0 -10 9 -10 20 0 11 -5 20 -10 20 -6 0 -8
10 -4 24 3 13 1 27 -5 30 -7 4 -11 -1 -11 -13 0 -14 -5 -19 -15 -15 -9 4 -15
0 -15 -9 0 -8 9 -17 21 -20 15 -4 20 -12 17 -29 -2 -18 -9 -23 -31 -21 -22 1
-27 -2 -27 -23 0 -15 -6 -24 -16 -24 -9 0 -14 8 -13 18 3 32 -1 43 -13 36 -6
-4 -17 1 -24 11 -18 25 -32 10 -15 -16 15 -25 9 -36 -9 -14 -18 21 -29 19 -23
-6 5 -19 3 -20 -18 -14 -20 6 -22 5 -11 -6 19 -20 15 -26 -23 -33 -39 -8 -46
-29 -15 -48 22 -14 26 -28 9 -28 -6 0 -16 -6 -23 -13 -11 -10 -11 -15 0 -25
24 -22 40 -12 35 21 0 4 5 7 13 7 9 0 13 -7 11 -20 -6 -29 16 -36 36 -12 10
14 19 18 21 10 3 -8 9 -8 23 -1 16 10 15 11 -14 18 -26 5 -32 11 -29 28 2 17
9 22 31 20 38 -3 61 -21 47 -38 -8 -10 -6 -15 9 -20 12 -3 27 -13 35 -20 19
-19 66 -30 66 -16 0 6 -6 11 -14 11 -7 0 -19 7 -26 15 -10 12 -9 15 6 15 11 0
28 -7 38 -15 11 -8 25 -15 30 -15 6 0 3 5 -7 11 -17 10 -17 12 -2 22 12 10 4
11 -42 9 -51 -2 -56 -1 -40 11 22 18 22 27 -2 27 -11 0 -23 5 -26 10 -4 6 9
10 30 10 28 0 38 5 42 20 3 11 10 20 15 20 5 0 6 -9 3 -21 -6 -19 -5 -20 15
-9 11 6 34 9 50 5 21 -5 27 -11 23 -26 -3 -10 -9 -19 -14 -19 -5 0 -9 -4 -9
-10 0 -5 11 -10 24 -10 20 0 36 -16 36 -37 0 -3 -15 -2 -34 1 -20 4 -37 2 -41
-4 -4 -6 4 -10 19 -10 13 0 37 -5 53 -12 15 -6 36 -10 46 -9 11 2 21 -5 24
-18 6 -24 23 -28 23 -6 0 24 19 18 50 -17 36 -39 28 -59 -10 -23 -23 22 -32
25 -47 16 -14 -7 -23 -7 -31 1 -9 9 -12 8 -12 -3 0 -8 6 -21 12 -27 10 -10 10
-15 -1 -21 -11 -7 -10 -11 4 -19 19 -10 13 -32 -8 -32 -17 0 -47 36 -39 45 4
4 -4 4 -18 1 -19 -6 -21 -5 -10 3 8 6 23 11 33 11 9 0 17 7 17 15 0 8 -8 15
-17 15 -10 0 -29 3 -43 5 -14 3 -19 3 -12 -1 17 -8 15 -24 -3 -24 -10 0 -15
-10 -15 -28 0 -33 -30 -55 -66 -46 -26 7 -28 31 -2 26 8 -1 25 10 39 24 l24
26 -35 -7 c-37 -7 -90 8 -90 25 0 5 9 10 21 10 18 0 19 2 5 15 -16 16 -36 20
-36 6 0 -4 -23 -13 -50 -18 -39 -8 -56 -7 -77 4 -17 9 -29 10 -31 4 -2 -5 -9
-8 -17 -5 -7 3 -16 1 -20 -5 -8 -13 -25 -14 -25 -2 0 5 12 12 26 15 l27 7 -31
30 c-19 18 -36 28 -43 23 -9 -5 -6 -10 9 -15 25 -10 29 -29 6 -29 -8 0 -12 -4
-9 -10 3 -5 -4 -10 -15 -10 -31 0 -76 -41 -72 -64 2 -11 14 -28 26 -37 22 -19
21 -20 -34 -22 -19 -1 -38 -6 -43 -12 -4 -6 -11 -3 -18 8 -5 9 -21 17 -34 17
-13 0 -25 5 -27 12 -3 9 -19 7 -64 -7 -32 -11 -62 -24 -65 -29 -4 -5 -18 -8
-33 -8 -14 0 -31 -7 -37 -14 -8 -10 -8 -14 0 -14 6 0 11 -9 11 -20 0 -11 -7
-20 -15 -20 -8 0 -12 6 -9 14 8 20 -35 46 -75 46 -33 0 -34 -1 -19 -17 13 -13
20 -14 31 -5 8 7 17 9 20 5 13 -12 7 -23 -13 -23 -12 0 -17 -5 -14 -14 3 -7
-3 -17 -13 -21 -16 -6 -16 -8 4 -16 15 -5 21 -14 17 -24 -4 -10 0 -15 15 -15
11 0 25 -9 31 -20 12 -23 4 -29 -46 -34 -42 -5 -40 -23 3 -31 36 -7 37 -8 14
-16 -13 -5 -32 -7 -42 -4 -18 6 -19 -9 -19 -400 l0 -407 383 7 c210 4 406 8
434 10 29 1 67 -1 85 -4 21 -4 -63 -14 -217 -25 -287 -20 -654 -45 -672 -46
-10 0 -13 -140 -13 -665 l0 -665 3600 0 3600 0 0 1116 0 1116 -37 -7 c-52 -9
-66 -29 -59 -89 3 -26 10 -54 16 -60 5 -7 7 -16 3 -19 -12 -13 -44 -7 -49 8
-4 9 -19 15 -35 15 -32 0 -34 3 -19 31 16 29 5 37 -40 29 -37 -7 -53 1 -30 15
17 10 11 25 -10 25 -11 0 -20 5 -20 10 0 16 -32 12 -52 -7 -10 -9 -21 -14 -24
-10 -11 10 17 47 35 47 22 0 56 46 41 55 -13 8 -30 -3 -30 -20 0 -11 -20 -25
-36 -25 -2 0 -2 12 1 28 4 19 0 15 -15 -16 -13 -26 -31 -47 -48 -53 -15 -6
-28 -11 -30 -12 -2 -1 -4 26 -5 60 -1 33 1 59 6 56 4 -2 7 1 7 6 0 6 -4 11 -9
11 -5 0 -7 10 -4 21 5 18 3 20 -18 14 -15 -4 -19 -3 -11 3 17 12 52 82 41 82
-5 0 -9 -4 -9 -10 0 -15 -57 -12 -63 4 -6 16 26 50 36 39 4 -3 7 1 7 11 0 14
-4 15 -21 6 -26 -14 -41 -9 -30 9 12 19 95 28 324 37 l187 7 0 359 0 360 -37
-23 c-21 -13 -40 -26 -43 -29 -3 -3 -39 -28 -80 -55 -41 -26 -79 -52 -85 -57
-34 -28 -113 -84 -205 -144 -58 -38 -111 -74 -118 -81 -7 -7 -22 -13 -33 -13
-10 0 -19 -6 -19 -12 0 -7 -21 -26 -48 -43 -26 -16 -49 -32 -52 -35 -18 -19
-53 -30 -65 -20 -8 7 -15 7 -19 1 -4 -5 0 -13 8 -18 10 -6 17 -39 23 -113 l8
-105 95 0 c99 0 125 -7 116 -31 -3 -8 1 -14 8 -14 15 0 26 -21 26 -51 0 -13 6
-19 16 -17 10 2 19 -3 21 -10 3 -8 -1 -10 -13 -5 -15 5 -16 2 -10 -23 4 -16
14 -34 22 -40 7 -6 13 -22 13 -35 -1 -17 -3 -19 -6 -6 -2 9 -9 17 -14 17 -12
0 -12 -67 0 -74 15 -10 43 -110 39 -142 -2 -21 -8 -29 -23 -29 -17 0 -19 6
-16 48 3 48 -16 67 -26 27 -6 -24 -19 -26 -27 -4 -4 9 -13 14 -21 10 -8 -3
-15 -2 -16 2 0 4 -3 19 -5 35 -3 15 0 27 6 27 5 0 10 -9 10 -19 0 -11 4 -23
10 -26 6 -4 7 6 4 24 -4 18 -2 37 5 45 8 9 8 21 2 37 l-10 24 0 -27 c-1 -15
-5 -29 -9 -32 -12 -7 -35 10 -28 22 3 6 1 23 -6 37 -11 24 -10 29 7 41 18 14
18 14 -2 14 -12 0 -24 6 -26 13 -3 7 -6 5 -6 -5 -1 -11 -6 -15 -16 -12 -20 8
-19 -2 5 -36 11 -15 17 -30 13 -33 -3 -4 0 -20 6 -36 7 -16 11 -39 9 -51 l-3
-22 -28 22 c-16 12 -26 28 -23 35 2 7 -8 26 -24 43 -15 17 -25 34 -22 37 10
10 -20 25 -50 25 -16 0 -28 -4 -28 -10 0 -5 7 -10 15 -10 28 0 67 -49 112
-140 12 -25 23 -50 23 -57 0 -6 9 -9 19 -6 16 4 21 -2 27 -33 8 -44 -4 -69
-36 -69 -17 0 -25 9 -34 34 -16 48 -32 49 -56 2 -18 -37 -24 -41 -58 -41 -20
-1 -55 -4 -77 -8 -22 -4 -47 -6 -56 -4 -22 4 -36 59 -44 172 -8 115 -33 322
-41 329 -2 3 -2 -25 0 -62 6 -80 -9 -82 -17 -3 -3 31 -8 59 -11 64 -2 4 -38 5
-78 1 -40 -4 -105 -8 -144 -8 -80 -1 -121 -21 -109 -54 4 -9 11 -17 16 -17 5
0 9 -9 9 -20 0 -13 -7 -20 -19 -20 -23 0 -36 42 -21 70 9 17 7 22 -13 29 -13
5 -27 17 -31 26 -4 11 -15 15 -31 13 -13 -2 -24 2 -24 7 0 6 7 9 15 7 8 -2 14
1 14 6 0 5 9 12 21 15 33 9 14 25 -26 21 -19 -1 -35 2 -35 7 0 5 8 9 18 9 16
1 52 22 52 32 0 7 -39 3 -46 -5 -17 -16 -35 -7 -29 14 5 15 4 19 -4 15 -6 -4
-11 -3 -11 3 0 5 5 13 10 16 6 3 10 15 10 26 0 11 7 19 17 19 13 0 14 3 6 11
-6 6 -9 17 -7 24 7 18 -10 26 -54 27 -36 0 -38 2 -37 34 1 26 -2 34 -16 34
-29 0 -49 -11 -49 -27 0 -8 -6 -13 -12 -10 -7 2 -12 13 -10 25 3 18 -2 20 -43
20 -52 -1 -63 5 -45 27 10 12 10 15 -4 15 -9 0 -16 -4 -16 -10 0 -19 -38 -31
-64 -19 -21 10 -25 17 -20 38 4 22 2 21 -10 -7 -15 -33 -20 -36 -68 -46 -19
-4 -26 -11 -22 -21 4 -8 1 -15 -6 -15 -7 0 -26 -10 -42 -22 l-30 -21 11 21 c8
15 8 22 1 22 -5 0 -10 8 -10 18 0 26 -11 34 -27 20 -8 -7 -17 -7 -23 -2 -5 5
10 23 36 43 45 34 70 38 38 7 -21 -21 -20 -22 40 -30 41 -5 47 -4 36 8 -6 8
-17 13 -24 10 -9 -3 -12 6 -11 31 0 19 -3 35 -8 35 -5 0 -6 11 -3 25 9 34 -1
50 -20 34 -11 -9 -20 -9 -38 1 -13 6 -33 9 -44 6 -11 -4 -23 -2 -27 4 -9 15
-25 12 -25 -5 0 -15 16 -20 58 -16 12 1 22 -3 22 -9 0 -5 -15 -10 -34 -10 -19
0 -41 -7 -50 -15 -8 -8 -19 -15 -25 -15 -6 0 -11 -7 -11 -15 0 -8 -8 -15 -17
-15 -15 0 -16 -2 -3 -10 22 -14 6 -22 -24 -11 -14 6 -26 17 -26 26 0 22 -9 19
-32 -10 -13 -16 -29 -25 -46 -24 -26 1 -26 1 6 11 17 6 32 16 32 21 0 6 8 19
17 29 19 21 23 36 26 90 2 27 -2 38 -15 41 -11 3 -15 0 -11 -9 7 -19 -16 -18
-38 2 -17 15 -19 15 -35 0 -15 -16 -15 -17 10 -10 28 7 34 -4 14 -25 -11 -10
-8 -11 15 -6 16 4 27 3 27 -3 0 -6 3 -19 7 -29 6 -16 5 -16 -10 -5 -19 16 -37
8 -37 -17 0 -12 -9 -20 -27 -24 l-27 -5 23 17 c17 13 22 24 16 39 -3 12 -10
22 -15 22 -5 0 -15 3 -24 6 -12 4 -16 0 -16 -15 0 -23 -25 -29 -33 -8 -8 21
13 48 32 42 15 -4 20 1 23 23 4 28 2 29 -26 27 -17 -2 -38 -3 -47 -4 -9 -1
-16 -7 -15 -13 0 -7 -3 -15 -8 -18 -16 -9 -12 64 4 77 13 11 13 12 -1 13 -20
0 -51 -44 -44 -62 3 -8 -1 -22 -10 -33 -15 -20 -15 -20 -12 0 3 33 -17 33 -23
0 l-6 -30 -14 31 c-12 29 -15 30 -32 15 -10 -8 -18 -21 -18 -28 0 -8 -12 -13
-31 -13 -25 0 -29 3 -24 19 5 17 2 18 -29 11 -28 -6 -33 -5 -29 7 5 12 1 14
-15 8 -12 -3 -22 -2 -22 3 0 12 25 22 56 22 31 0 30 2 -5 38 -23 22 -31 26
-35 15 -4 -9 -13 -12 -26 -8 -21 7 -25 -1 -12 -22 5 -8 13 -9 22 -3 25 16 31
11 13 -10 -10 -11 -24 -20 -31 -20 -8 0 -12 -6 -9 -14 3 -8 -2 -16 -13 -19
-16 -4 -17 -2 -8 18 12 26 -4 65 -26 65 -8 0 -16 7 -20 15 -9 25 -45 18 -52
-10 l-6 -26 -14 27 c-8 14 -14 34 -15 43 -1 9 -4 5 -8 -9 -5 -19 -14 -26 -39
-28 -18 -2 -32 -7 -32 -13 0 -5 -7 -9 -16 -9 -11 0 -15 6 -11 20 3 11 1 23 -4
26 -9 5 -11 0 -13 -28 -1 -7 -9 -22 -19 -32 -21 -24 -31 -16 -58 50 l-20 49 5
-42 c4 -40 -12 -73 -22 -45 -6 20 -22 14 -34 -13 -6 -14 -15 -25 -20 -25 -5 0
-7 4 -3 9 3 5 -6 21 -20 35 -16 16 -23 31 -19 43 5 17 5 17 -9 1 -18 -23 -22
-23 -61 7 -38 29 -68 33 -64 9 2 -12 -5 -18 -20 -19 -18 -1 -22 2 -19 17 3 10
1 16 -4 12 -5 -3 -9 9 -9 25 0 17 -5 31 -11 31 -6 0 -8 7 -4 18 4 11 3 13 -3
7 -5 -6 -6 -36 -2 -70 8 -69 7 -75 -23 -75 -21 -1 -21 -1 -4 -14 12 -10 37
-13 78 -10 42 3 59 0 59 -9 0 -15 -53 -19 -62 -4 -4 7 -10 8 -20 0 -23 -18
-57 -23 -51 -7 3 9 -2 14 -16 14 -12 0 -21 -4 -21 -10 0 -5 6 -10 13 -10 8 0
9 -3 1 -8 -6 -4 -13 -14 -16 -21 -3 -12 -6 -12 -11 2 -3 9 -2 17 4 17 6 0 6 8
-2 21 -8 15 -8 24 0 32 18 18 14 40 -6 28 -13 -7 -20 -4 -28 12 -7 13 -8 27
-3 34 7 8 -2 10 -32 6 -38 -5 -55 7 -30 22 5 3 7 12 3 20 -3 8 0 15 6 15 22 0
11 16 -24 34 -25 14 -32 23 -25 30 8 8 13 8 18 0 4 -6 17 -14 29 -18 16 -5 25
-2 32 13 16 28 13 51 -5 51 -10 0 -13 -6 -9 -19 4 -13 0 -20 -15 -24 -22 -6
-26 3 -9 20 12 12 4 33 -12 33 -6 0 -8 -8 -4 -19 5 -15 1 -18 -20 -13 -14 2
-25 11 -25 18 0 9 -9 13 -25 12 -14 -1 -25 -6 -25 -10z m0 -140 c0 7 4 12 10
12 5 0 7 -13 4 -30 -4 -20 -2 -30 5 -30 7 0 9 5 6 10 -3 6 2 13 12 17 10 4 24
15 31 25 7 10 19 18 25 17 9 0 9 -2 0 -6 -18 -7 -16 -48 2 -63 8 -7 15 -16 15
-21 0 -5 -7 -6 -15 -3 -8 4 -15 1 -15 -5 0 -6 7 -11 16 -11 8 0 13 -4 10 -8
-3 -5 -26 -7 -52 -6 -39 3 -47 0 -51 -17 -4 -12 -11 -18 -20 -15 -11 4 -13 1
-8 -14 4 -11 3 -20 -2 -19 -19 3 -25 -2 -14 -15 9 -11 8 -15 -5 -20 -11 -4
-18 1 -21 15 -4 14 -11 19 -25 16 -15 -4 -18 -1 -13 14 4 12 2 19 -5 17 -7 -2
-15 3 -17 10 -7 19 19 14 44 -10 16 -15 23 -17 23 -8 0 8 12 24 28 37 24 19
24 21 5 17 -14 -4 -25 0 -32 13 -8 16 -5 25 14 46 16 16 23 33 19 44 -5 16 -4
16 10 -1 9 -11 16 -14 16 -8z m50 -167 c0 -6 -4 -13 -10 -16 -15 -9 -12 -25 5
-25 8 0 15 6 15 13 0 9 3 8 9 -2 5 -8 14 -10 22 -6 11 6 11 5 2 -5 -9 -10 -9
-16 2 -26 17 -18 25 -18 25 0 0 8 7 16 15 20 8 3 15 2 15 -3 0 -5 9 -11 20
-14 11 -3 18 -1 14 4 -6 11 -2 11 20 3 9 -3 16 -12 16 -19 0 -10 -9 -11 -37
-4 -28 6 -41 5 -48 -5 -5 -7 -16 -11 -22 -9 -7 3 -13 0 -13 -7 0 -6 -6 -10
-12 -9 -30 4 -58 -2 -58 -12 0 -6 13 -8 30 -5 17 2 30 0 30 -5 0 -5 -4 -9 -10
-9 -5 0 -10 -7 -10 -15 0 -8 8 -15 17 -15 13 0 14 -3 5 -12 -8 -8 -15 -8 -26
1 -18 15 -59 -7 -51 -27 3 -8 5 -18 5 -24 0 -6 8 -3 19 6 17 15 20 15 34 1 9
-8 23 -15 31 -15 9 0 16 -4 16 -10 0 -5 -7 -10 -15 -10 -9 0 -18 -7 -21 -15
-9 -22 -22 -18 -30 7 l-7 22 -17 -22 c-15 -18 -19 -19 -24 -6 -3 9 -4 20 0 25
3 5 -2 9 -10 9 -9 0 -16 -4 -16 -10 0 -5 -6 -10 -13 -10 -8 0 -20 -11 -27 -25
-7 -14 -17 -25 -22 -25 -14 0 -9 40 7 46 8 4 15 15 15 25 0 10 5 19 10 19 6 0
10 7 10 15 0 20 -17 19 -28 -1 -8 -15 -11 -15 -31 2 -21 19 -28 44 -12 44 5 0
12 -7 15 -17 6 -14 9 -14 27 6 12 12 27 20 33 18 22 -9 37 29 24 58 -9 20 -9
31 0 45 8 14 8 20 0 22 -19 7 13 37 40 38 12 0 22 -4 22 -9z m-2506 -145 c-3
-9 5 -15 27 -20 48 -9 89 -7 89 5 0 5 5 7 10 4 6 -3 10 -11 10 -16 0 -6 -4 -7
-10 -4 -5 3 -10 -1 -10 -9 0 -26 39 -19 52 9 14 31 24 32 31 4 3 -12 10 -18
17 -14 6 4 22 4 34 1 18 -4 22 -11 19 -31 -7 -34 3 -56 22 -49 14 6 14 8 -1
25 -16 18 -16 19 -1 19 10 0 17 -5 17 -10 0 -6 11 -16 25 -22 15 -6 25 -20 25
-31 0 -19 -1 -19 -19 -3 -10 9 -25 14 -35 10 -25 -9 -19 -22 12 -26 19 -2 27
-8 26 -20 -1 -10 2 -18 7 -18 22 0 6 -19 -21 -25 -17 -4 -35 -16 -41 -27 -10
-18 -12 -18 -28 -4 -10 9 -19 16 -22 16 -2 0 -4 -47 -4 -105 0 -83 -3 -108
-15 -115 -11 -7 -16 -5 -18 10 -2 11 -8 20 -13 20 -11 0 -49 32 -49 42 0 4 14
15 30 23 17 9 28 20 24 26 -4 6 -10 7 -17 0 -16 -13 -49 12 -45 35 2 9 -3 19
-10 21 -7 3 -10 -1 -6 -11 8 -21 -3 -20 -33 4 -14 11 -40 20 -58 20 -34 0 -50
19 -46 54 2 11 -2 16 -8 12 -6 -4 -11 -5 -11 -2 0 2 -3 13 -7 23 -6 16 -5 16
10 4 9 -7 17 -9 17 -4 0 5 17 14 38 20 l37 10 -33 8 c-18 4 -31 13 -29 19 2 6
-3 16 -11 22 -10 7 -13 18 -8 30 6 16 9 16 16 4 8 -13 10 -13 10 1 0 9 -7 19
-15 23 -21 8 -16 56 7 56 11 0 15 -5 12 -14z m2399 -190 c26 -6 37 -33 20 -50
-5 -4 -8 -35 -8 -69 -1 -34 -6 -62 -12 -64 -7 -3 -7 -18 -2 -46 11 -58 11 -56
-12 -54 -14 1 -19 7 -15 19 3 12 -4 24 -20 35 -29 19 -29 69 0 67 16 -2 16 -1
1 16 -11 12 -13 20 -6 25 26 16 8 24 -19 8 -19 -11 -30 -25 -30 -40 0 -12 -9
-27 -20 -33 -11 -6 -20 -19 -20 -29 0 -25 -10 -32 -31 -20 -24 12 -24 29 -1
30 16 1 16 2 0 6 -10 2 -18 9 -18 15 0 6 10 8 25 4 18 -5 25 -2 25 9 0 8 9 24
20 35 12 12 18 26 14 32 -5 8 -2 9 9 5 11 -4 17 -1 17 7 0 10 7 12 22 8 17 -4
20 -2 16 15 -3 11 -1 28 4 37 6 10 5 16 -2 16 -5 0 -10 7 -10 15 0 8 6 13 13
11 6 -3 24 -7 40 -10z m2317 -331 c0 -8 9 -15 20 -15 11 0 20 -4 20 -10 0 -5
9 -19 19 -29 18 -18 33 -19 210 -16 105 1 191 0 191 -4 0 -3 -15 -13 -32 -20
-18 -8 -39 -21 -46 -28 -7 -7 -28 -13 -45 -13 -75 0 -323 -12 -335 -16 -8 -2
-10 -12 -6 -28 4 -18 1 -27 -16 -36 -19 -10 -22 -8 -33 19 -6 17 -16 31 -22
31 -14 0 -41 33 -50 61 -7 23 -7 23 18 6 22 -14 26 -14 31 -2 7 20 66 20 66 1
0 -21 27 -27 44 -10 19 19 10 42 -17 46 -14 2 -21 10 -21 21 1 9 -4 17 -12 17
-8 0 -14 9 -14 20 0 11 7 20 15 20 8 0 15 -7 15 -15z m-1311 -277 l1 -58 49 0
c45 0 50 -2 59 -29 6 -16 8 -32 5 -35 -4 -3 -30 -6 -60 -6 l-53 0 0 -69 c0
-39 5 -73 10 -76 6 -3 10 -15 10 -26 0 -22 -2 -22 38 -8 20 7 29 15 25 25 -4
11 5 14 37 14 38 0 41 -2 34 -22 -3 -13 -10 -28 -15 -34 -9 -11 -44 -12 -55
-1 -4 3 -15 2 -25 -3 -10 -6 -24 -9 -31 -8 -10 2 -13 -15 -13 -64 0 -36 -3
-69 -7 -73 -9 -10 -18 81 -21 220 l-2 120 -55 6 c-30 3 -49 6 -42 7 6 1 12 9
12 18 0 12 6 15 24 10 20 -5 23 -3 19 14 -8 31 13 23 27 -10 7 -17 14 -29 15
-28 1 2 -2 39 -6 83 -5 44 -6 94 -2 110 l6 30 8 -25 c4 -14 7 -51 8 -82z
m-2179 12 c-8 -5 -7 -9 4 -13 20 -8 21 -33 1 -41 -24 -9 -18 -28 6 -21 18 6
20 4 15 -13 -5 -14 1 -26 19 -41 30 -23 30 -54 0 -59 -55 -8 -67 -13 -61 -27
7 -19 -3 -19 -45 2 -19 10 -28 18 -20 21 10 3 10 6 1 12 -9 6 -9 13 -1 28 15
28 14 42 -4 42 -15 0 -17 5 -17 35 0 28 2 32 29 44 18 8 29 9 37 1 13 -13 36
-13 36 0 0 6 -7 10 -15 10 -8 0 -15 4 -15 8 0 14 23 31 33 25 5 -3 4 -9 -3
-13z m1644 -86 l94 7 4 -31 c3 -16 2 -32 0 -35 -3 -3 -50 -5 -104 -5 -110 0
-103 7 -91 -88 l6 -53 103 2 c98 1 105 0 124 -22 34 -42 27 -49 -55 -49 -68 0
-75 2 -75 20 0 18 -7 20 -61 20 -52 0 -62 -3 -66 -20 -4 -14 -14 -20 -33 -20
-19 0 -29 6 -33 20 -4 15 -14 20 -38 20 -52 0 -21 20 36 24 l49 2 -3 65 c-1
35 -7 66 -12 70 -6 3 2 28 18 57 25 46 28 50 35 31 8 -21 13 -21 102 -15z
m-256 -461 c-4 -100 -7 -115 -26 -133 -25 -24 -92 -28 -92 -6 0 7 -7 19 -15
26 -11 9 -15 34 -15 96 0 77 2 84 20 84 18 0 20 -7 20 -74 0 -54 4 -79 16 -90
18 -18 17 -18 38 -10 13 5 16 23 16 90 0 46 4 84 9 84 5 0 12 19 16 43 12 66
18 17 13 -110z m166 45 c35 -49 8 -105 -52 -110 -37 -3 -37 -4 -37 -45 1 -37
-2 -43 -20 -43 -19 0 -21 6 -23 100 -2 55 0 104 3 110 3 5 30 10 60 10 44 0
57 -4 69 -22z m-1478 -24 c-3 -20 -1 -46 3 -58 10 -24 -11 -23 266 -13 449 16
695 19 695 9 0 -7 -82 -11 -247 -12 -137 0 -309 -5 -383 -10 -74 -5 -180 -9
-235 -10 -55 0 -116 0 -136 0 -21 -1 -42 6 -49 15 -10 12 -16 13 -27 4 -9 -8
-17 -9 -24 -2 -17 17 25 53 63 53 38 0 58 15 58 42 0 10 5 18 10 18 6 0 8 -15
6 -36z m2032 20 c21 -15 31 -54 14 -54 -5 0 -20 9 -32 20 -27 24 -53 23 -58
-2 -2 -11 11 -23 42 -36 46 -21 65 -44 60 -75 -10 -65 -92 -76 -131 -18 -12
18 -20 37 -17 42 9 15 34 10 34 -6 0 -23 46 -41 65 -25 26 21 17 40 -29 60
-54 23 -71 49 -54 84 9 21 18 26 47 26 20 0 47 -7 59 -16z m202 -95 c20 -61
33 -112 29 -115 -11 -7 -39 7 -33 17 2 5 0 18 -6 29 -9 16 -19 20 -43 18 -27
-2 -33 -8 -35 -30 -2 -19 -9 -28 -21 -28 -17 0 -16 6 5 93 13 50 24 100 24
110 0 11 8 17 23 17 19 0 26 -13 57 -111z"/>
</g>
</svg>
