<?xml version="1.0" standalone="no"?>
<!DOCTYPE svg PUBLIC "-//W3C//DTD SVG 20010904//EN"
 "http://www.w3.org/TR/2001/REC-SVG-20010904/DTD/svg10.dtd">
<svg version="1.0" xmlns="http://www.w3.org/2000/svg"
 width="322.000000pt" height="156.000000pt" viewBox="0 0 322.000000 156.000000"
 preserveAspectRatio="xMidYMid meet">
<metadata>
Created by potrace 1.16, written by Peter Selinger 2001-2019
</metadata>
<g transform="translate(0.000000,156.000000) scale(0.100000,-0.100000)"
fill="#000000" stroke="none">
<path d="M0 1020 c1 -343 4 -539 10 -535 6 4 10 1 10 -4 0 -6 -4 -11 -10 -11
-6 0 -10 -85 -10 -235 l0 -235 1610 0 1610 0 -2 561 -3 561 -58 1 c-33 1 -61
-2 -64 -6 -2 -4 -14 -5 -25 -1 -26 8 -76 -13 -83 -36 -4 -13 -21 -19 -63 -24
-46 -6 -64 -13 -94 -42 -21 -19 -38 -41 -38 -50 0 -9 -9 -29 -21 -45 -11 -16
-18 -36 -15 -44 3 -8 1 -15 -4 -15 -6 0 -13 0 -17 0 -5 0 -8 6 -8 13 0 11 -8
13 -34 9 -5 -1 -7 -10 -4 -20 5 -23 -21 -47 -39 -36 -28 18 -88 14 -105 -6
-10 -11 -23 -20 -29 -20 -17 0 -25 -40 -12 -63 10 -19 12 -19 23 -4 7 9 17 17
24 17 28 0 -29 -36 -59 -38 -19 -1 -48 -3 -65 -4 -23 -2 -30 1 -29 15 1 10 -5
17 -15 17 -9 0 -25 6 -36 14 -11 7 -38 13 -60 12 -22 -1 -59 -3 -82 -4 -23 -1
-48 -8 -55 -15 -6 -8 -22 -11 -35 -9 -28 5 -31 -15 -5 -34 13 -10 14 -15 5
-25 -10 -10 -14 -9 -19 4 -3 9 -10 17 -15 17 -4 0 -6 -7 -2 -16 5 -13 -12 -15
-146 -12 -135 3 -151 1 -151 -14 0 -9 -6 -19 -12 -21 -7 -3 48 -6 122 -7 74
-1 140 -3 145 -5 6 -1 18 -3 27 -3 13 -2 16 -10 13 -33 -3 -18 -6 -33 -8 -36
-2 -2 -378 -6 -836 -10 l-831 -6 0 56 c0 49 3 57 19 57 15 0 18 5 13 23 -5 20
-4 21 13 7 11 -9 16 -10 11 -2 -4 6 -2 12 3 12 6 0 11 -9 11 -21 0 -11 5 -17
10 -14 6 4 8 10 5 15 -3 4 2 11 11 14 24 9 62 7 69 -4 3 -5 27 -7 53 -5 26 3
88 9 137 14 l90 8 -69 1 c-53 2 -67 5 -63 16 3 7 -1 24 -10 36 -20 29 -27 116
-8 100 9 -8 15 -8 20 0 3 5 15 10 27 10 15 0 19 5 15 19 -2 10 0 26 5 35 14
25 18 56 7 56 -5 0 -9 4 -9 9 0 5 18 7 40 4 26 -4 40 -2 40 6 0 6 6 11 13 11
9 0 12 10 9 31 -3 22 -1 30 7 25 19 -12 12 12 -7 26 -17 12 -34 41 -36 61 -1
4 -7 12 -15 16 -8 6 -12 19 -9 35 3 15 1 26 -5 26 -7 0 -7 4 1 12 17 17 -14
48 -50 48 -15 0 -28 5 -28 10 0 6 5 10 10 10 16 0 12 27 -6 34 -8 3 -13 10
-10 14 3 5 -6 14 -20 21 -14 6 -22 16 -19 21 4 6 -5 20 -19 31 -14 11 -26 26
-26 34 0 7 -7 15 -15 19 -8 3 -15 12 -15 20 0 8 -9 18 -21 21 -11 4 -18 9 -15
12 3 3 -1 12 -9 19 -11 11 -67 14 -284 14 l-271 0 0 -540z"/>
<path d="M1820 830 c-6 -4 -34 -8 -63 -9 -60 -3 -102 -20 -102 -41 0 -12 28
-16 155 -23 85 -4 177 -6 204 -5 55 3 55 1 -12 60 -28 25 -38 27 -101 26 -39
-1 -75 -4 -81 -8z"/>
</g>
</svg>
